<svg width="106" height="149" viewBox="0 0 106 149" fill="none" xmlns="http://www.w3.org/2000/svg">
<path d="M90.8915 82.4993C92.1354 82.3904 93.0908 81.3223 93.0238 80.0527C92.9503 78.7831 91.8737 77.7693 90.5736 77.7754L90.4835 77.7758C89.1386 77.8248 88.0891 78.9319 88.1402 80.2443C88.1873 80.9118 88.4685 81.447 88.8562 81.8411C87.3678 84.6806 85.1331 86.7704 81.7307 88.5375C79.4478 89.7097 77.0318 90.1606 74.6755 89.857C72.7031 89.6006 71.1589 88.7515 70.2092 87.3819C68.7857 85.305 68.6466 83.0649 69.8151 80.8082C70.6661 79.1822 71.9457 77.9865 72.7961 77.4023C72.5824 76.8616 72.3209 75.9513 72.1891 75.2623C65.8687 79.7036 66.5444 85.7395 68.4838 88.5796C69.9287 90.6564 72.8643 91.9719 76.0744 91.9569C76.9351 91.9529 77.833 91.8893 78.7088 91.6727C84.2764 90.6049 88.4757 87.3402 90.8692 82.5442L90.8915 82.4993ZM98.5094 77.2612C95.1765 73.489 90.2813 71.4284 84.7163 71.4544L83.9842 71.4578C83.6237 70.6938 82.7833 70.2164 81.8401 70.2209L81.779 70.2211C80.4285 70.2275 79.3834 71.3606 79.4334 72.6688C79.4854 73.9155 80.5771 74.9522 81.8836 74.946L81.9908 74.9455C82.9553 74.8983 83.7854 74.3131 84.1277 73.4761L84.9198 73.4723C88.2199 73.4569 91.3455 74.3809 94.2062 76.1968C96.3896 77.5795 97.9674 79.4076 98.8533 81.5891C99.6323 83.37 99.5955 85.1234 98.8092 86.5866C97.6033 88.8757 95.5489 90.0948 92.8361 90.1075C91.1222 90.1155 89.4509 89.6025 88.5885 89.2325C88.077 89.6475 87.2206 90.3401 86.602 90.7617C88.4934 91.5821 90.3992 92.0514 92.2417 92.0428C96.4175 92.0232 99.5109 89.7242 100.679 87.5112C101.95 85.0093 101.825 80.8043 98.5306 77.2173L98.5094 77.2612ZM76.3974 83.3161C76.4493 84.5629 77.541 85.5995 78.8529 85.5934L78.9376 85.593C80.3104 85.5439 81.3492 84.4368 81.2809 83.1245C81.2751 81.8755 80.1598 80.839 78.8532 80.8451L78.7632 80.8455C78.6807 80.8459 78.552 80.8465 78.4408 80.8918C76.6522 77.9864 75.8884 74.8647 76.1513 71.4934C76.3077 68.9539 77.157 66.7466 78.6886 64.906C79.9665 63.3426 82.3788 62.5552 84.0314 62.51C88.6538 62.4008 90.6114 67.9963 90.7676 70.2208L92.9142 70.8347C92.3849 64.0117 88.0037 60.4516 83.8278 60.4712C79.9092 60.4895 76.3036 63.2733 74.866 67.3387C72.903 72.7639 74.2339 77.955 76.6929 82.1105C76.483 82.3771 76.3566 82.8611 76.3974 83.3161V83.3161Z" fill="url(#paint0_linear_506_65)"/>
<path d="M16.6545 15.5618C15.0229 15.5694 13.7007 16.9806 13.7088 18.7059C13.7168 20.4311 15.0521 21.8299 16.6837 21.8223C18.3153 21.8146 19.6375 20.4034 19.6294 18.6782C19.6213 16.9529 18.286 15.5541 16.6545 15.5618ZM8.41054 24.9518L7.75627 24.7838C2.88754 23.5035 0.0849381 21.312 0.0730191 18.7642C0.0611001 16.2163 2.84411 13.9987 7.69962 12.6729L8.35229 12.4988L8.53909 13.1834C9.03914 14.9744 9.679 16.7197 10.4493 18.4074L10.5908 18.715L10.4522 19.0293C9.69874 20.7175 9.0742 22.4688 8.59096 24.2709L8.41054 24.9518ZM7.40526 14.2735C3.71466 15.3876 1.45407 17.0829 1.4619 18.7577C1.46974 20.4325 3.7471 22.1 7.44695 23.186C7.89413 21.6583 8.43278 20.1707 9.06289 18.7221C8.41822 17.2795 7.86568 15.797 7.40526 14.2735V14.2735ZM24.9858 24.8743L24.799 24.1896C24.299 22.3987 23.6591 20.6533 22.8889 18.9711L22.7474 18.6581L22.8859 18.3438C23.6394 16.6555 24.2639 14.9043 24.7472 13.1021L24.9276 12.4212L25.5819 12.5893C30.4506 13.8695 33.2532 16.061 33.2651 18.6089C33.277 21.1567 30.494 23.3744 25.6385 24.7001L24.9858 24.8743ZM24.2752 18.6509C24.9472 20.1669 25.505 21.656 25.9329 23.0996C29.6286 21.98 31.8841 20.2902 31.8762 18.6154C31.8684 16.9406 29.591 15.2731 25.8912 14.187C25.444 15.7082 24.9054 17.2024 24.2752 18.6509ZM7.39382 14.2681L7.20702 13.5834C5.81609 8.4941 6.21492 4.83654 8.30006 3.55228C10.3469 2.29123 13.644 3.75542 17.1135 7.48702L17.5858 7.99373L17.1183 8.50485C15.8986 9.85854 14.7872 11.3148 13.7893 12.8616L13.6018 13.1422L13.2773 13.1722C11.5116 13.3286 9.76207 13.634 8.04647 14.0884L7.39382 14.2681ZM9.97377 4.5623C9.60139 4.56404 9.27192 4.64565 8.99681 4.81804C7.62846 5.66461 7.39937 8.57883 8.36269 12.5042C9.83603 12.1485 11.3254 11.8959 12.8329 11.7463C13.6908 10.4392 14.6362 9.1899 15.6514 8.01375C13.4856 5.80173 11.4373 4.55436 9.97376 4.5612L9.97377 4.5623ZM23.3764 34.2728C23.3712 34.2728 23.3712 34.2728 23.3764 34.2728C21.4046 34.282 18.8632 32.7287 16.2246 29.8849L15.7523 29.3782L16.2198 28.8671C17.4396 27.5134 18.5509 26.0571 19.5488 24.5103L19.7311 24.2298L20.0556 24.1943C21.8214 24.0434 23.5709 23.738 25.2916 23.2781L25.9443 23.1039L26.1311 23.7885C27.522 28.8779 27.1232 32.5299 25.038 33.8131C24.5312 34.1237 23.9594 34.281 23.3764 34.2717L23.3764 34.2728ZM17.6857 29.3582C19.8515 31.5702 21.8998 32.8176 23.3633 32.8108L23.3685 32.8107C23.7357 32.809 24.0652 32.7219 24.3403 32.555C25.7086 31.7085 25.944 28.7942 24.9744 24.8688C23.5011 25.2245 22.0055 25.4772 20.5042 25.6213C19.6463 26.9338 18.7009 28.1777 17.6857 29.3593L17.6857 29.3582ZM25.9026 14.1815L25.2483 14.0079C23.5233 13.5707 21.771 13.2817 20.0039 13.1408L19.6791 13.1138L19.4942 12.8349C18.4819 11.2975 17.3569 9.85172 16.1246 8.50949L15.6523 8.00278L16.1198 7.49167C19.5543 3.72777 22.8375 2.2328 24.8961 3.47464C26.9932 4.73824 27.4262 8.39301 26.083 13.4951L25.9026 14.1815ZM20.4401 11.7107C22.0185 11.8579 23.5216 12.0966 24.9172 12.4268C25.85 8.49252 25.5874 5.5795 24.2112 4.74687C22.8402 3.9197 20.2749 5.21059 17.5869 8.00579C18.613 9.17788 19.5648 10.4128 20.4401 11.7118L20.4401 11.7107ZM10.113 34.3348C9.52912 34.3485 8.95065 34.1977 8.44199 33.8918C6.34493 32.6282 5.91192 28.9789 7.25518 23.8779L7.43557 23.1916L8.08984 23.3596C9.69129 23.781 11.4539 24.0689 13.329 24.2268L13.6538 24.2593L13.8387 24.5381C14.8511 26.0755 15.976 27.5214 17.2083 28.8636L17.6806 29.3703L17.2131 29.8814C14.6064 32.7497 12.0797 34.3267 10.113 34.3359L10.113 34.3348ZM8.42193 24.9463C7.48915 28.8805 7.75172 31.7936 9.12794 32.6262C10.4989 33.4424 13.0591 32.1625 15.7523 29.3673C14.7261 28.1952 13.7692 26.9602 12.899 25.6558C11.3912 25.5258 9.89853 25.2871 8.42192 24.9452L8.42193 24.9463ZM16.7025 25.8267C15.5625 25.832 14.3954 25.7859 13.2228 25.6883L12.898 25.6613L12.7079 25.377C12.0445 24.3743 11.4122 23.3441 10.8294 22.284C10.2405 21.2239 9.70123 20.1417 9.1992 19.0352L9.05771 18.7221L9.19627 18.4078C9.68793 17.2977 10.2181 16.2094 10.796 15.1439C11.3637 14.0959 11.9853 13.0478 12.6455 12.0334L12.8329 11.7473L13.1574 11.7173C15.4737 11.5003 17.8023 11.4894 20.1153 11.6848L20.4401 11.7118L20.6302 11.996C21.9632 14.0003 23.1401 16.1259 24.1389 18.3379L24.2804 18.6509L24.1419 18.9653C23.1637 21.1865 22.012 23.323 20.6927 25.3397L20.5052 25.6257L20.1807 25.6557C19.0143 25.7643 17.8424 25.8213 16.7025 25.8267V25.8267ZM13.659 24.2527C15.7021 24.4088 17.6895 24.3995 19.7363 24.2243C20.868 22.4542 21.8747 20.5926 22.7463 18.657C21.8619 16.7307 20.8377 14.8786 19.6791 13.1182C17.6578 12.962 15.6268 12.9715 13.607 13.1466C12.465 14.9167 11.4572 16.7783 10.5918 18.7139C11.4815 20.6401 12.5056 22.4922 13.659 24.2527Z" fill="url(#paint1_linear_506_65)"/>
<path d="M67.0842 19.1559L67.1684 37.1517L105.165 36.974L104.997 0.982406L67.0001 1.16016L67.0842 19.1559ZM97.6958 17.5776C98.6622 17.8014 99.3991 18.2084 100.083 18.8666C100.431 19.2159 100.953 19.858 100.998 20.0163C101.01 20.0635 99.3641 21.1195 98.3646 21.7102C98.3279 21.734 98.1788 21.5884 98.0163 21.3597C97.5251 20.6883 97.0096 20.3983 96.2245 20.3491C95.0735 20.2836 94.3341 20.8562 94.3445 21.8111C94.3396 22.0451 94.3966 22.2799 94.5079 22.4841C94.7644 22.9811 95.2419 23.277 96.7159 23.8741C99.4426 24.9681 100.609 25.6948 101.336 26.7285C102.152 27.8843 102.34 29.7347 101.802 31.1196C101.204 32.6161 99.7112 33.6421 97.6099 33.986C96.9609 34.1004 95.4148 34.0896 94.7149 33.9703C93.1867 33.7199 91.7359 33.0113 90.8409 32.0786C90.4866 31.7169 89.8017 30.7652 89.8454 30.7009C89.8643 30.6772 90.0182 30.5831 90.1911 30.4878C90.364 30.3925 90.9988 30.0386 91.5981 29.7074L92.6901 29.0994L92.9207 29.42C93.2447 29.8808 93.9458 30.5107 94.3683 30.7191C95.5835 31.323 97.2467 31.2275 98.0663 30.5263C98.3987 30.2616 98.5832 29.8558 98.5564 29.4465C98.5544 29.0304 98.4978 28.8439 98.2671 28.5334C97.9684 28.1367 97.3672 27.7998 95.6505 27.1049C93.6863 26.311 92.8362 25.8234 92.0667 25.0363C91.5821 24.5167 91.2207 23.9043 91.0133 23.2427C90.8685 22.7339 90.8257 21.4564 90.9349 20.9463C91.329 19.146 92.7576 17.892 94.8148 17.5134C95.4827 17.3877 97.0408 17.4265 97.697 17.5764L97.6958 17.5776ZM88.7855 19.1253L88.8042 20.5953L83.8563 20.6184L83.9186 33.9342L80.4182 33.9505L80.3559 20.6348L75.4151 20.6579L75.4084 19.2171C75.4046 18.4141 75.4205 17.747 75.4442 17.7289C75.463 17.7052 78.4683 17.6799 82.1172 17.6684L88.7596 17.6553L88.7855 19.1253Z" fill="url(#paint2_linear_506_65)" fill-opacity="0.61"/>
<path d="M25.0108 89.3678C25.0542 89.2607 25.1646 89.1859 25.2446 89.0956C26.4655 87.7038 27.6969 86.3244 28.9011 84.9159C29.2782 84.5373 29.5687 84.0698 29.7501 83.55C29.9314 83.0302 29.9986 82.4722 29.9463 81.9196C29.9072 81.6831 29.8562 81.449 29.7936 81.2183C29.4651 81.5574 29.1594 81.8659 28.8517 82.1767C28.3734 82.6605 27.8973 83.1465 27.4148 83.6246C27.1305 83.9398 26.764 84.1546 26.3637 84.2406C25.9635 84.3266 25.5484 84.2799 25.1732 84.1065C24.7935 83.9583 24.4625 83.6933 24.2213 83.3445C23.9801 82.9956 23.8393 82.5782 23.8164 82.144C23.805 82.0882 23.7897 82.0334 23.7708 81.98C23.4036 82.3192 23.052 82.6314 22.7035 82.9525L15.461 89.624C15.4111 89.6703 15.357 89.7279 15.3103 89.7732L25.0073 89.7278L24.9926 89.7177C24.9402 89.6786 24.9664 89.4715 25.0108 89.3678V89.3678Z" fill="#FFCEBF"/>
<path d="M14.8646 89.4153C14.9503 89.2939 15.0539 89.1885 15.1713 89.1033L25.1941 79.8595C25.8778 79.2285 26.5583 78.5942 27.2358 77.9565C27.3195 77.893 27.385 77.8054 27.4247 77.7037C27.5839 76.9391 27.6032 76.1484 27.4817 75.3757C27.3776 75.455 27.3214 75.489 27.2736 75.5443C26.4531 76.3424 25.6368 77.1473 24.8122 77.9409C24.5391 78.2396 24.1851 78.4373 23.801 78.5056C23.4169 78.5739 23.0225 78.5093 22.6745 78.321C22.3196 78.1426 22.0219 77.8546 21.8193 77.4935C21.6167 77.1324 21.5184 76.7147 21.5369 76.2934C21.5364 76.1978 21.536 76.1033 21.5352 75.9289C21.3843 76.0489 21.2739 76.1293 21.1709 76.2198C17.1585 79.7126 13.1467 83.2028 9.13568 86.6903C8.95466 86.8475 8.73901 87.1973 8.49926 86.8598C8.2595 86.5223 8.62133 86.3811 8.8034 86.2227C13.0793 82.4924 17.3574 78.7655 21.6376 75.0419C22.3346 74.4346 22.3794 74.1812 21.9195 73.2237L21.6492 73.4995C20.9078 74.2489 20.1581 74.9881 19.4284 75.7498C19.129 76.0637 18.7533 76.2799 18.3446 76.3735C17.9358 76.4672 17.5107 76.4344 17.1184 76.2789C16.7261 76.1235 16.3825 75.8517 16.1274 75.495C15.8722 75.1384 15.7159 74.7113 15.6764 74.2632C15.538 74.3763 15.4183 74.459 15.3049 74.5552L8.95769 79.9039C8.84833 80.0205 8.72346 80.1189 8.58717 80.1959C8.4842 80.23 8.37343 80.2245 8.27371 80.1805L8.31877 89.8115L14.8538 89.781C14.8292 89.7232 14.8174 89.6602 14.8193 89.5967C14.8212 89.5333 14.8367 89.4712 14.8646 89.4153V89.4153Z" fill="#FFCEBF"/>
<path d="M32.3753 58.7589C32.2007 59.3864 32.0313 60.0149 31.8786 60.649C31.7369 61.0973 31.7559 61.5865 31.9319 62.0207C32.1079 62.4548 32.4281 62.8026 32.8297 62.9958C34.0587 63.684 35.4414 63.9892 36.8222 63.8772L36.7987 58.8451C36.7828 58.7348 36.788 58.6223 36.8138 58.5143C36.8428 58.4531 36.8795 58.3965 36.9227 58.3461L32.3693 58.3674C32.4397 58.4549 32.4164 58.6091 32.3753 58.7589V58.7589Z" fill="#FF6196"/>
<path d="M23.2804 69.6117C23.2614 70.1734 23.0815 70.715 22.7654 71.1621C21.6352 72.7489 20.3355 74.1868 18.8931 75.4463C18.6607 75.6802 18.3654 75.8287 18.0495 75.8706C17.7337 75.9125 17.4136 75.8456 17.1351 75.6795C16.8581 75.5536 16.624 75.3385 16.4651 75.0636C16.3061 74.7888 16.23 74.4678 16.2473 74.1446C16.2789 73.7477 16.4301 73.3729 16.6779 73.0772C18.2896 71.4066 20.0372 69.895 21.8997 68.5606C22.0216 68.4567 22.1708 68.3967 22.3262 68.3891C22.4816 68.3815 22.6353 68.4267 22.7655 68.5183C22.9367 68.6316 23.0755 68.7938 23.1663 68.9868C23.2572 69.1798 23.2967 69.3961 23.2804 69.6117V69.6117Z" fill="#FF87AF"/>
<path d="M22.0609 76.436C22.0355 76.1875 22.0639 75.936 22.1441 75.7014C22.2242 75.4668 22.3537 75.2554 22.5226 75.0839C24.1009 73.5014 25.7954 72.0589 27.5897 70.7705C27.6438 70.7331 27.6938 70.6958 27.7532 70.6572C27.9098 70.5342 28.1001 70.4709 28.294 70.4771C28.4878 70.4833 28.6743 70.5588 28.8241 70.6916C28.969 70.8226 29.0719 70.9994 29.1182 71.1969C29.1645 71.3944 29.1519 71.6026 29.082 71.7918C28.8581 72.6098 28.4412 73.3513 27.872 73.944C26.7235 75.1868 25.5309 76.3894 24.3373 77.583C24.1566 77.785 23.9187 77.9165 23.6609 77.9568C23.4031 77.9971 23.1402 77.944 22.9134 77.8057C22.6752 77.6739 22.472 77.479 22.3229 77.2394C22.1738 76.9998 22.0836 76.7234 22.0609 76.436Z" fill="#FF87AF"/>
<path d="M29.6022 77.1444C29.3113 77.4833 29.012 77.8065 28.7326 78.1531C28.6487 78.287 28.5793 78.4308 28.5257 78.5816C28.6805 78.6304 28.8618 78.76 28.987 78.7133C29.6241 78.4797 30.2454 78.2001 30.945 77.9054C30.7942 78.2841 30.681 78.6334 30.5205 78.9537C29.8592 80.164 29.0289 81.2577 28.0589 82.1962C27.6902 82.5827 27.3072 82.9524 26.9098 83.3052C26.6994 83.4951 26.4458 83.6213 26.1752 83.6709C25.9045 83.7206 25.6264 83.6919 25.3693 83.5878C25.1121 83.4837 24.8853 83.308 24.7119 83.0786C24.5384 82.8491 24.4247 82.5743 24.3822 82.282C24.3647 82.1195 24.3773 81.9549 24.4192 81.7977C24.4612 81.6405 24.5317 81.4939 24.6266 81.3663C26.0403 79.6972 27.6581 78.2427 29.4356 77.0428C29.4573 77.0337 29.4802 77.0286 29.5035 77.0279L29.6022 77.1444Z" fill="#FF87AF"/>
<path d="M31.9776 72.6524L33.7249 64.0941L34.9799 64.4044L34.3432 66.5235C33.7486 68.4951 33.1467 70.4666 32.5668 72.4404C32.4536 72.8054 32.3035 72.8736 31.9776 72.6524V72.6524Z" fill="#FF6196"/>
<path d="M29.9829 77.6905C30.1684 76.9123 30.353 76.1925 30.5084 75.4651C30.6598 74.7596 30.9511 74.0977 31.3622 73.5249C31.6143 73.1649 31.9002 73.3064 32.192 73.3827C32.4618 73.4523 32.5307 73.6646 32.5435 73.9435C32.5896 74.7149 32.375 75.4779 31.9393 76.0917C31.4205 76.7912 30.7482 77.3407 29.9829 77.6905V77.6905Z" fill="#FF6196"/>
<path d="M37.3459 59.2655C37.3604 59.0149 37.3532 58.7633 37.3247 58.5141C37.3028 58.4445 37.2598 58.3849 37.2027 58.3448C37.1561 58.3044 37.1017 58.2758 37.0435 58.2612C37.0101 58.2546 36.9632 58.2919 36.9186 58.345C36.8753 58.3954 36.8386 58.452 36.8097 58.5131C36.7838 58.6211 36.7786 58.7337 36.7945 58.844L36.818 63.8749C35.4372 63.987 34.0545 63.6817 32.8255 62.9936C32.4239 62.8004 32.1037 62.4526 31.9277 62.0184C31.7517 61.5842 31.7327 61.095 31.8744 60.6467C32.0271 60.0126 32.1965 59.3841 32.3712 58.7566C32.4122 58.6068 32.4355 58.4526 32.3693 58.3651C32.3325 58.3226 32.2819 58.297 32.228 58.2938C32.159 58.2949 32.0923 58.3206 32.0382 58.3667C31.9603 58.4174 31.8984 58.4922 31.8606 58.5813C31.6548 59.2573 31.4741 59.9399 31.3175 60.6291C31.2585 60.9007 31.2435 61.1813 31.2734 61.4584C31.3161 61.96 31.4916 62.4378 31.779 62.8353C32.0664 63.2328 32.4536 63.5332 32.8947 63.7009C33.0925 63.7888 33.2089 63.876 33.1548 64.1564C33.0802 64.5123 33.0077 64.8681 32.9342 65.2251C32.4336 67.644 31.9359 70.0639 31.4409 72.485C31.4271 72.5929 31.3836 72.6939 31.3158 72.7747C30.9835 73.0619 30.7048 73.4145 30.4944 73.8136C30.2265 74.3403 30.042 74.9115 29.9487 75.5037C29.9311 75.6925 29.8686 75.8732 29.7672 76.0284C29.6659 76.1836 29.529 76.308 29.3699 76.3895C28.9354 76.6289 28.5368 76.9379 28.0546 77.2597C28.0839 76.6331 28.0747 76.0052 28.027 75.3799C27.9893 75.1877 27.9962 74.9884 28.0471 74.7998C28.0979 74.6112 28.1912 74.439 28.3186 74.2985C28.9526 73.6158 29.4027 72.7607 29.6212 71.8242C29.6868 71.607 29.7039 71.3762 29.6713 71.1505C29.6387 70.9248 29.5573 70.7105 29.4336 70.5249C29.3099 70.3392 29.1473 70.1876 28.9592 70.0821C28.771 69.9766 28.5624 69.9202 28.3504 69.9176C28.007 69.9151 27.6704 70.0198 27.3813 70.2191C26.3851 70.9505 25.4161 71.7268 24.4546 72.5121C23.8854 72.9782 23.3498 73.4938 22.7984 73.9823C22.7744 73.9549 22.7536 73.9244 22.7364 73.8915C22.7254 73.8087 22.7043 73.7279 22.6736 73.651C22.2072 72.8837 22.5253 72.3231 23.0251 71.7459C23.5458 71.1525 23.8313 70.3639 23.8212 69.5473C23.8355 69.1311 23.7126 68.7228 23.4743 68.3946C23.3473 68.2281 23.1912 68.09 23.0148 67.9884C22.7643 67.8423 22.4782 67.7821 22.1952 67.816C21.9121 67.8499 21.6454 67.9763 21.431 68.1781L21.1406 68.4044C20.4776 68.9205 19.8062 69.4232 19.1684 69.9752C18.2372 70.7805 17.3282 71.6195 16.4369 72.4787C16.021 72.8778 15.7185 73.4215 15.2867 73.7925C13.0352 75.7257 10.7595 77.6241 8.49216 79.5348C8.41412 79.5855 8.34244 79.6467 8.27886 79.717C8.27233 79.7272 8.26678 79.7382 8.2623 79.7497C8.21481 79.8703 8.175 80.0696 8.23175 80.1424C8.24566 80.1582 8.26243 80.1708 8.28102 80.1793C8.38074 80.2233 8.49151 80.2288 8.59448 80.1947C8.73077 80.1178 8.85565 80.0193 8.965 79.9027L15.3122 74.554C15.4256 74.4578 15.5453 74.3707 15.6837 74.262C15.7232 74.7101 15.8795 75.1372 16.1347 75.4938C16.3898 75.8505 16.7334 76.1223 17.1257 76.2777C17.5181 76.4332 17.9431 76.466 18.3519 76.3723C18.7606 76.2787 19.1363 76.0625 19.4357 75.7486C20.1634 74.9869 20.9152 74.2477 21.6565 73.4983L21.9268 73.2225C22.3867 74.18 22.3419 74.4334 21.6449 75.0407C17.3612 78.7673 13.0808 82.4946 8.8034 86.2227C8.62133 86.381 8.26057 86.5256 8.49926 86.8597C8.73796 87.1939 8.95466 86.8475 9.13569 86.6903C13.1488 83.2057 17.1592 79.7167 21.1667 76.2231C21.2708 76.1326 21.3801 76.0522 21.531 75.9323L21.5327 76.2968C21.5142 76.718 21.6125 77.1358 21.8151 77.4969C22.0177 77.8579 22.3154 78.146 22.6704 78.3244C23.0184 78.5127 23.4128 78.5773 23.7969 78.509C24.181 78.4407 24.535 78.243 24.808 77.9442C25.6327 77.1529 26.4489 76.3458 27.2694 75.5477C27.3214 75.4968 27.3818 75.4583 27.4776 75.3791C27.5991 76.1518 27.5797 76.9425 27.4205 77.707C27.3808 77.8087 27.3154 77.8964 27.2316 77.9599C26.5535 78.5968 25.8729 79.2311 25.1899 79.8628L15.1713 89.1078C15.0539 89.193 14.9503 89.2984 14.8646 89.4198C14.8374 89.4751 14.8222 89.5364 14.8203 89.599C14.8185 89.6616 14.8299 89.7238 14.8538 89.7809C14.9012 89.8188 14.9559 89.8447 15.0138 89.8567C15.0717 89.8687 15.1314 89.8665 15.1884 89.8502C15.2334 89.8359 15.2747 89.8107 15.3092 89.7765C15.3612 89.7313 15.4132 89.6737 15.46 89.6273L22.7025 82.9559C23.051 82.6348 23.4026 82.3181 23.7697 81.9834C23.7887 82.0368 23.8039 82.0916 23.8154 82.1474C23.8383 82.5816 23.9791 82.999 24.2203 83.3478C24.4615 83.6967 24.7925 83.9617 25.1722 84.1098C25.5474 84.2832 25.9625 84.33 26.3627 84.244C26.7629 84.1579 27.1294 83.9432 27.4138 83.628C27.8962 83.1498 28.3724 82.6639 28.8507 82.1801C29.1626 81.8693 29.4641 81.5574 29.7926 81.2217C29.8552 81.4523 29.9062 81.6864 29.9453 81.923C29.9959 82.4738 29.9279 83.0296 29.7466 83.5473C29.5653 84.065 29.2756 84.5306 28.9 84.908C27.6959 86.3177 26.4644 87.6971 25.2435 89.0877C25.1635 89.1781 25.0531 89.2528 25.0097 89.3599C24.9664 89.467 24.9391 89.6764 24.9916 89.7211L25.0063 89.7312C25.1161 89.788 25.2393 89.8075 25.3596 89.7869C25.3933 89.7793 25.4233 89.7588 25.4439 89.7291C25.473 89.6964 25.5011 89.6557 25.5291 89.6252C26.5184 88.5136 27.5129 87.4076 28.4949 86.2881C28.8913 85.8514 29.2637 85.3903 29.6103 84.907C30.0627 84.3625 30.3611 83.6902 30.4707 82.969C30.5802 82.2478 30.4962 81.5078 30.2285 80.836C30.1994 80.6861 30.2264 80.5299 30.3038 80.4014C30.3711 80.2751 30.4457 80.1521 30.5225 80.0303C30.7682 79.6833 30.9724 79.3043 31.1304 78.9024C31.4346 77.9164 31.9045 76.999 32.5165 76.1959C32.7977 75.8081 32.9904 75.3544 33.0788 74.8715C33.1673 74.3886 33.1491 73.89 33.0258 73.4159C32.9821 73.2356 32.9812 73.0464 33.0232 72.8657C33.5435 71.1004 34.0795 69.3406 34.6103 67.5798C34.8483 66.7911 35.0849 66.0048 35.3201 65.2207L35.5392 64.4918C36.0134 64.4895 36.4605 64.4773 36.9055 64.4854C37.2753 64.4949 37.3873 64.3076 37.3813 63.9206C37.3521 62.3683 37.3532 60.8169 37.3459 59.2655ZM18.8931 75.4463C18.6607 75.6802 18.3654 75.8287 18.0495 75.8706C17.7337 75.9125 17.4136 75.8456 17.1351 75.6795C16.8581 75.5536 16.6241 75.3385 16.4651 75.0636C16.3061 74.7888 16.23 74.4678 16.2473 74.1446C16.2789 73.7477 16.4301 73.3729 16.6779 73.0772C18.2896 71.4066 20.0372 69.895 21.8997 68.5606C22.0014 68.4825 22.1172 68.4283 22.2396 68.4015C22.3217 68.3848 22.4059 68.3844 22.4882 68.4004C22.5867 68.4205 22.6808 68.4606 22.7655 68.5183C22.9369 68.6317 23.0757 68.794 23.1666 68.9873C23.2575 69.1805 23.2969 69.397 23.2804 69.6128C23.2614 70.1746 23.0815 70.7161 22.7654 71.1632C21.6352 72.7496 20.3355 74.1872 18.8931 75.4463ZM24.3352 77.5909C24.1546 77.7929 23.9166 77.9244 23.6589 77.9647C23.4011 78.005 23.1381 77.9519 22.9114 77.8136C22.6728 77.6815 22.4693 77.4861 22.3201 77.2459C22.171 77.0056 22.081 76.7285 22.0588 76.4406C22.0334 76.192 22.0619 75.9405 22.142 75.7059C22.2221 75.4713 22.3517 75.2599 22.5205 75.0884C24.0988 73.5059 25.7934 72.0634 27.5876 70.775C27.6418 70.7376 27.6917 70.7003 27.7511 70.6618C27.9078 70.5388 28.098 70.4754 28.2919 70.4816C28.4858 70.4878 28.6722 70.5633 28.822 70.6961C28.9669 70.8271 29.0699 71.0039 29.1162 71.2014C29.1625 71.3989 29.1498 71.6071 29.08 71.7963C28.856 72.6143 28.4391 73.3558 27.8699 73.9485C26.7235 75.1936 25.5309 76.3928 24.3373 77.5864L24.3352 77.5909ZM30.5164 78.9582C29.8559 80.1666 29.0271 81.2587 28.0589 82.1962C27.6902 82.5827 27.3072 82.9523 26.9098 83.3052C26.6994 83.4951 26.4458 83.6213 26.1752 83.6709C25.9045 83.7206 25.6264 83.6919 25.3693 83.5878C25.1122 83.4837 24.8853 83.308 24.7119 83.0786C24.5384 82.8491 24.4247 82.5742 24.3822 82.282C24.3647 82.1195 24.3773 81.9549 24.4193 81.7977C24.4612 81.6405 24.5317 81.4939 24.6266 81.3662C26.0403 79.6971 27.6581 78.2427 29.4356 77.0428C29.4573 77.0337 29.4802 77.0286 29.5035 77.0279L29.6085 77.1399C29.3176 77.4788 29.0182 77.8019 28.7388 78.1486C28.655 78.2825 28.5855 78.4262 28.5319 78.5771C28.6867 78.6258 28.8681 78.7555 28.9932 78.7088C29.4969 78.5242 29.9921 78.3104 30.5227 78.0829L30.9512 77.9009C30.7922 78.2841 30.6789 78.6334 30.5185 78.9537L30.5164 78.9582ZM31.9373 76.0996C31.5501 76.6357 31.0638 77.0793 30.5091 77.4023C30.3376 77.5066 30.1615 77.6042 29.9809 77.695C30.1632 76.928 30.3458 76.2173 30.5002 75.4988L30.5063 75.4695C30.6578 74.7641 30.949 74.1022 31.3601 73.5294C31.6123 73.1694 31.8981 73.3109 32.1899 73.3872C32.4598 73.4568 32.5287 73.6691 32.5415 73.948C32.5879 74.7187 32.3741 75.4813 31.9394 76.0951L31.9373 76.0996ZM34.3369 66.5258C33.7423 68.4973 33.1405 70.4689 32.5605 72.4427C32.4515 72.8133 32.3014 72.8815 31.9755 72.6603L33.49 65.236L33.7228 64.0964L34.9778 64.4066C34.8934 64.6849 34.8122 64.9587 34.7299 65.2302L34.3369 66.5258Z" fill="black"/>
<path d="M20.506 146.795C20.0157 146.795 19.5297 146.667 19.1 146.42L14.6242 143.769C13.9554 143.395 14.2817 143.263 14.502 143.187C15.3938 142.875 15.574 142.804 16.5256 142.263C16.6255 142.206 16.7562 142.227 16.8587 142.287L20.2976 144.328C20.4214 144.395 20.5982 144.395 20.7127 144.328L34.1205 136.588C34.2444 136.517 34.3255 136.374 34.3255 136.226V120.754C34.3255 120.6 34.2452 120.462 34.118 120.385L20.7161 112.652C20.5922 112.578 20.4274 112.578 20.3035 112.652L6.90337 120.385C6.77354 120.458 6.69069 120.602 6.69069 120.75V136.223C6.69069 136.37 6.77098 136.511 6.8991 136.581L10.5712 138.702C12.5648 139.699 13.7828 138.525 13.7828 137.343V122.073C13.7828 121.855 13.9537 121.687 14.1723 121.687H15.8704C16.0822 121.687 16.2565 121.855 16.2565 122.073V137.351C16.2565 140.009 14.807 141.536 12.2863 141.536C11.5107 141.536 10.9 141.536 9.1951 140.698L5.67764 138.671C4.8081 138.167 4.27083 137.226 4.27083 136.223V120.751C4.27083 119.744 4.8081 118.804 5.67679 118.307L19.0992 110.564C19.9482 110.084 21.0757 110.084 21.9188 110.564L35.3241 118.311C36.1885 118.81 36.7292 119.747 36.7292 120.754V136.227C36.7292 137.23 36.1885 138.167 35.3232 138.671L21.9179 146.413C21.4883 146.661 21.0014 146.789 20.5051 146.789" fill="#21A366"/>
<path d="M24.6478 136.134C18.7814 136.134 17.5514 133.441 17.5514 131.182C17.5514 130.968 17.7248 130.796 17.9401 130.796H19.6723C19.8636 130.796 20.0251 130.935 20.055 131.124C20.3164 132.889 21.0954 133.779 24.6427 133.779C27.4683 133.779 28.6701 133.141 28.6701 131.642C28.6701 130.779 28.3276 130.138 23.938 129.709C20.266 129.347 17.9973 128.538 17.9973 125.601C17.9973 122.896 20.2796 121.285 24.102 121.285C28.3951 121.285 30.5228 122.775 30.791 125.977C30.8012 126.088 30.7611 126.195 30.6868 126.276C30.6133 126.353 30.5091 126.4 30.4015 126.4H28.6599C28.4788 126.4 28.3207 126.272 28.284 126.097C27.8646 124.241 26.8507 123.648 24.0952 123.648C21.0108 123.648 20.652 124.721 20.652 125.527C20.652 126.503 21.0749 126.788 25.2364 127.339C29.3577 127.886 31.3146 128.658 31.3146 131.555C31.3146 134.474 28.8777 136.149 24.629 136.149" fill="#21A366"/>
<path d="M89.6724 111.042C88.407 111.06 87.1536 111.265 85.9378 111.662L85.8536 111.693C85.0895 111.549 84.3116 111.472 83.539 111.457C81.94 111.434 80.5698 111.868 79.4673 112.589C78.3747 112.179 76.1108 111.462 73.729 111.62C72.0737 111.727 70.265 112.292 68.9266 113.869C67.6003 115.44 66.9032 117.869 67.0661 121.174C67.112 122.082 67.3527 123.562 67.7531 125.488C68.1483 127.409 68.7047 129.656 69.3973 131.71C70.09 133.758 70.8436 135.599 72.0153 136.847C72.5997 137.471 73.4072 138.002 74.3543 137.951C75.0168 137.918 75.613 137.593 76.1302 137.116C76.385 137.484 76.6571 137.64 76.9007 137.786C77.2147 137.973 77.5111 138.099 77.8245 138.181C78.3863 138.336 79.3458 138.537 80.4669 138.321C80.8478 138.248 81.2496 138.107 81.6512 137.911C81.6698 138.403 81.6883 138.889 81.7059 139.381C81.7711 140.934 81.8164 142.369 82.239 143.627C82.3091 143.833 82.5 144.886 83.2342 145.82C83.9745 146.754 85.4053 147.327 87.04 146.933C88.1883 146.657 89.6517 146.159 90.6192 144.62C91.5758 143.103 91.9996 140.928 92.0685 137.399C92.0879 137.205 92.1146 137.048 92.1393 136.895L92.3671 136.917L92.3945 136.917C93.6227 136.97 94.9563 136.77 96.0707 136.19C97.0522 135.681 97.7969 135.168 98.3375 134.258C98.4696 134.033 98.6208 133.758 98.6572 133.289C98.6967 132.826 98.4493 132.094 98.0453 131.757C97.2381 131.081 96.7311 131.341 96.1859 131.473C95.6528 131.605 95.1063 131.676 94.5616 131.697C96.1143 128.772 97.2219 125.662 97.8504 122.915C98.224 121.289 98.4294 119.794 98.4386 118.488C98.4538 117.182 98.3488 116.028 97.6387 115.03C95.4113 111.917 92.299 111.063 89.896 111.046C89.8218 111.047 89.7486 111.047 89.6734 111.047L89.6724 111.042ZM89.6129 112.004C91.8845 111.97 94.7927 112.659 96.8922 115.602C97.367 116.262 97.5097 117.228 97.4991 118.424C97.4884 119.62 97.2948 121.044 96.9362 122.611C96.247 125.65 94.9229 129.183 93.0593 132.363C93.1236 132.416 93.197 132.461 93.2714 132.491C93.6635 132.671 94.5587 132.818 96.3457 132.406C96.7955 132.297 97.1245 132.227 97.4694 132.512C97.6399 132.669 97.7304 132.904 97.7204 133.15C97.7009 133.331 97.6438 133.507 97.5429 133.655C97.201 134.229 96.5225 134.779 95.6505 135.234C94.8799 135.635 93.7678 135.846 92.7901 135.863C92.2931 135.871 91.8375 135.832 91.4486 135.699L91.4283 135.694C91.2863 137.282 90.9584 140.425 90.7415 141.855C90.568 143.009 90.2593 143.932 89.6648 144.62C89.0694 145.314 88.2297 145.728 87.0925 146.003C85.6863 146.344 84.6621 145.991 83.9986 145.379C83.335 144.766 83.0283 143.948 82.846 143.45C82.7184 143.105 82.6523 142.66 82.5865 142.062C82.5196 141.465 82.4745 140.738 82.4382 139.912C82.3906 138.653 82.3684 137.393 82.3788 136.127C81.7951 136.728 81.0661 137.123 80.2821 137.28C79.3468 137.46 78.5146 137.288 78.0169 137.155C77.7726 137.086 77.5333 136.988 77.3111 136.854C77.0777 136.72 76.8595 136.569 76.7107 136.264C76.6245 136.089 76.5981 135.885 76.6338 135.691C76.6745 135.492 76.7794 135.322 76.9232 135.192C77.1914 134.948 77.5465 134.814 78.0796 134.688C79.0533 134.459 79.3961 134.307 79.6016 134.123C79.7757 133.97 79.9765 133.653 80.322 133.188C80.3219 133.171 80.3218 133.147 80.3166 133.129C79.6873 133.11 79.0715 132.931 78.514 132.599C78.3148 132.834 77.2767 134.058 76.0201 135.752C75.4938 136.456 74.9082 136.864 74.2843 136.897C73.6654 136.928 73.1007 136.587 72.6226 136.078C71.6654 135.056 70.8938 133.296 70.2228 131.306C69.5518 129.317 69.0068 127.1 68.6117 125.215C68.2217 123.323 67.9869 121.801 67.9509 121.069C67.794 117.946 68.4459 115.84 69.572 114.504C70.698 113.168 72.2478 112.663 73.7618 112.557C76.4769 112.375 79.0646 113.411 79.585 113.632C80.5867 112.871 81.8815 112.397 83.5018 112.417C84.2703 112.426 85.0321 112.533 85.7802 112.735L85.8075 112.717C86.1353 112.593 86.4681 112.48 86.8062 112.397C87.727 112.151 88.6676 112.024 89.6098 112.003L89.6129 112.004ZM89.8239 113.004L89.6236 113.005C88.8512 113.019 88.0721 113.124 87.3167 113.308C89.0088 114.127 90.2904 115.392 91.1959 116.666C91.8251 117.541 92.343 118.505 92.7391 119.535C92.8955 119.934 92.9977 120.266 93.0517 120.524C93.0838 120.653 93.1006 120.763 93.1113 120.875C93.1116 120.933 93.1169 120.993 93.091 121.092C93.091 121.097 93.086 121.11 93.086 121.115C93.1359 122.428 92.8432 123.318 92.8105 124.573C92.7893 125.482 93.0057 126.548 93.064 127.713C93.1169 128.807 93.0016 130.01 92.3657 131.196C92.4189 131.267 92.467 131.336 92.5202 131.413C94.2058 128.439 95.4184 125.158 96.0568 122.359C96.3994 120.851 96.577 119.486 96.5882 118.409C96.5995 117.33 96.4159 116.546 96.1806 116.219C94.3471 113.655 91.8832 113.009 89.8228 113.003L89.8239 113.004ZM83.3297 113.42C81.7319 113.434 80.5848 113.973 79.7164 114.78C78.8188 115.616 78.2213 116.75 77.8354 117.917C77.3702 119.297 77.2128 120.633 77.1531 121.542L77.1743 121.53C77.6558 121.229 78.2886 120.921 78.9708 120.748C79.648 120.568 80.3836 120.512 81.0456 120.797C81.7147 121.074 82.2627 121.745 82.4687 122.758C83.446 127.641 82.2043 129.464 81.7503 130.836C81.5778 131.335 81.4266 131.84 81.3071 132.356C81.365 132.343 81.4238 132.325 81.4817 132.319C81.8099 132.29 82.0635 132.405 82.2133 132.474C82.6808 132.688 83 133.132 83.1773 133.641C83.2196 133.776 83.2517 133.915 83.2738 134.068C83.2903 134.127 83.3018 134.191 83.3021 134.256C83.258 136.125 83.2708 137.995 83.3436 139.863C83.3799 140.672 83.431 141.381 83.4916 141.943C83.5521 142.499 83.6334 142.927 83.6879 143.073C83.864 143.552 84.121 144.178 84.5845 144.603C85.0419 145.03 85.6988 145.308 86.8999 145.021C87.9406 144.764 88.5803 144.42 89.0059 143.926C89.4336 143.426 89.6834 142.74 89.8422 141.69C90.0838 140.113 90.5544 135.54 90.6094 134.684C90.5809 134.033 90.6619 133.535 90.8512 133.153C91.0395 132.765 91.3352 132.524 91.5948 132.393C91.7205 132.329 91.8423 132.288 91.9428 132.251C91.8363 132.089 91.7247 131.925 91.6122 131.767C91.2399 131.27 90.9293 130.716 90.6988 130.125C90.592 129.878 90.4739 129.632 90.3458 129.399C90.1652 129.043 89.9354 128.592 89.6942 128.083C89.2127 127.077 88.6886 125.85 88.4127 124.655C88.1377 123.461 88.0953 122.226 88.7794 121.355C89.3846 120.578 90.4575 120.252 92.0612 120.426C92.0127 120.268 91.9867 120.133 91.9054 119.928C91.5361 118.981 91.0552 118.092 90.4792 117.285C89.1092 115.365 86.8925 113.463 83.4892 113.415L83.3297 113.42ZM74.3316 113.539C74.1618 113.54 73.987 113.546 73.8183 113.559C72.4476 113.655 71.1578 114.098 70.2358 115.187C69.315 116.282 68.7155 118.06 68.8604 121.007C68.8904 121.569 69.1142 123.127 69.498 124.982C69.8838 126.839 70.4276 129.023 71.078 130.953C71.7264 132.877 72.5088 134.555 73.2535 135.348C73.6253 135.739 73.9483 135.902 74.2399 135.889C74.5316 135.87 74.8854 135.68 75.3168 135.105C76.1006 134.047 76.912 133.022 77.754 132.023C76.5298 130.851 75.9238 129.074 76.1544 127.302C76.2864 126.194 76.3029 125.155 76.2777 124.335C76.2588 123.539 76.2075 123.012 76.206 122.678C76.2059 122.666 76.2059 122.66 76.2058 122.648L76.2058 122.642L76.2007 122.632C76.1926 120.903 76.461 119.192 76.982 117.566C77.3579 116.443 77.9147 115.311 78.7561 114.386C77.9242 114.085 76.4442 113.636 74.846 113.555C74.6762 113.543 74.5013 113.538 74.3326 113.539L74.3316 113.539ZM91.1702 121.382C90.2504 121.404 89.7374 121.671 89.4645 122.011C89.0846 122.5 89.052 123.355 89.2958 124.409C89.5376 125.462 90.0371 126.638 90.5021 127.616C90.7321 128.106 90.9567 128.545 91.1373 128.901C91.325 129.264 91.4583 129.515 91.5386 129.737C91.6138 129.936 91.7 130.111 91.7851 130.275C92.1359 129.441 92.1962 128.626 92.1546 127.771C92.1019 126.717 91.8752 125.639 91.9067 124.55C91.9384 123.272 92.1621 122.438 92.1738 121.454C91.8443 121.409 91.5056 121.38 91.1723 121.382L91.1702 121.382ZM80.0127 121.612C79.7321 121.613 79.4518 121.655 79.1767 121.727C78.6315 121.877 78.1091 122.101 77.6176 122.408C77.4544 122.508 77.2963 122.622 77.1486 122.752L77.1162 122.78C77.1284 123.004 77.1674 123.53 77.1874 124.315C77.2076 125.17 77.1965 126.259 77.0546 127.439C76.7383 130.007 78.4314 132.121 80.4064 132.117C80.5208 131.589 80.7074 131.054 80.8958 130.491C81.438 128.847 82.5129 127.648 81.5803 122.976C81.4294 122.215 81.1311 121.906 80.7217 121.732C80.4936 121.645 80.2566 121.605 80.0127 121.613L80.0127 121.612ZM90.7446 121.866L90.8137 121.865C90.8981 121.87 90.9835 121.877 91.0568 121.899C91.126 121.917 91.1901 121.94 91.2432 121.98C91.2962 122.015 91.333 122.073 91.3445 122.143L91.3446 122.155C91.3449 122.226 91.329 122.296 91.2978 122.361C91.2565 122.443 91.2091 122.519 91.1514 122.584C91.014 122.754 90.8285 122.868 90.6284 122.902C90.4324 122.934 90.237 122.876 90.0717 122.753C90.0075 122.699 89.9442 122.641 89.8961 122.577C89.8481 122.525 89.8213 122.455 89.8098 122.384C89.8054 122.315 89.8203 122.245 89.8618 122.191C89.9103 122.137 89.9629 122.091 90.0207 122.056C90.1515 121.973 90.326 121.914 90.5281 121.882C90.6013 121.872 90.6754 121.865 90.7445 121.859L90.7446 121.866ZM80.1464 122.167C80.2155 122.167 80.2958 122.172 80.3701 122.183C80.5817 122.218 80.7619 122.276 80.9046 122.368C80.9739 122.404 81.0382 122.462 81.0852 122.526C81.1384 122.597 81.1642 122.683 81.1606 122.778C81.1448 122.865 81.1126 122.948 81.0601 123.012C81.0025 123.089 80.9398 123.153 80.8658 123.207C80.6917 123.348 80.4754 123.408 80.2578 123.379C80.0391 123.34 79.8383 123.224 79.69 123.043C79.6256 122.967 79.5724 122.885 79.5293 122.798C79.4811 122.716 79.4604 122.623 79.4701 122.528C79.4907 122.37 79.6123 122.281 79.7289 122.234C79.8619 122.185 80.0041 122.169 80.1464 122.174L80.1464 122.167ZM92.4754 133.125L92.4703 133.125C92.2755 133.208 92.112 133.239 91.9741 133.311C91.8321 133.37 91.7198 133.488 91.6534 133.633C91.5638 133.804 91.4971 134.11 91.5198 134.629C91.578 134.677 91.6473 134.711 91.7226 134.735C91.9507 134.811 92.3422 134.862 92.7762 134.853C93.6391 134.837 94.7023 134.61 95.2671 134.314C95.7264 134.078 96.1589 133.759 96.5384 133.389C94.6508 133.825 93.5871 133.718 92.9281 133.423C92.7692 133.348 92.6152 133.248 92.4764 133.125L92.4754 133.125ZM81.5921 133.317L81.5647 133.317C81.4915 133.323 81.39 133.354 81.1848 133.601C80.7159 134.188 80.554 134.558 80.1694 134.901C79.7797 135.248 79.2774 135.433 78.2671 135.666C77.9503 135.738 77.7647 135.82 77.643 135.885C77.6798 135.92 77.6798 135.933 77.7379 135.961C77.8877 136.054 78.0772 136.13 78.2319 136.175C78.6664 136.29 79.3755 136.428 80.122 136.284C80.8623 136.14 81.6329 135.742 82.2909 134.715C82.4069 134.539 82.4148 134.275 82.319 133.994C82.2232 133.72 82.0147 133.474 81.8721 133.411C81.7814 133.363 81.6857 133.335 81.5911 133.318L81.5921 133.317Z" fill="url(#paint3_linear_506_65)"/>
<defs>
<linearGradient id="paint0_linear_506_65" x1="84.1679" y1="60.4696" x2="84.3158" y2="92.0798" gradientUnits="userSpaceOnUse">
<stop stop-color="#BF16DB" stop-opacity="0.78"/>
<stop offset="1" stop-color="#0076FF" stop-opacity="0.67"/>
</linearGradient>
<linearGradient id="paint1_linear_506_65" x1="16.596" y1="3.07764" x2="16.7421" y2="34.3049" gradientUnits="userSpaceOnUse">
<stop stop-color="#16ACDB" stop-opacity="0.78"/>
<stop offset="1" stop-color="#0076FF" stop-opacity="0.67"/>
</linearGradient>
<linearGradient id="paint2_linear_506_65" x1="85.9984" y1="1.07128" x2="86.1668" y2="37.0629" gradientUnits="userSpaceOnUse">
<stop stop-color="#1657FF"/>
<stop offset="1" stop-color="#3183FF"/>
</linearGradient>
<linearGradient id="paint3_linear_506_65" x1="82.7788" y1="111.074" x2="82.9472" y2="147.073" gradientUnits="userSpaceOnUse">
<stop stop-color="#16A0DB" stop-opacity="0.78"/>
<stop offset="1" stop-color="#0076FF" stop-opacity="0.67"/>
</linearGradient>
</defs>
</svg>
