<svg width="140" height="229" viewBox="0 0 140 229" fill="none" xmlns="http://www.w3.org/2000/svg">
<path d="M108.892 148.499C110.135 148.39 111.091 147.322 111.024 146.053C110.95 144.783 109.874 143.769 108.574 143.775L108.484 143.776C107.139 143.825 106.089 144.932 106.14 146.244C106.187 146.912 106.468 147.447 106.856 147.841C105.368 150.681 103.133 152.77 99.7307 154.537C97.4478 155.71 95.0318 156.161 92.6755 155.857C90.7031 155.601 89.1589 154.752 88.2092 153.382C86.7857 151.305 86.6466 149.065 87.8151 146.808C88.6661 145.182 89.9457 143.987 90.7961 143.402C90.5824 142.862 90.3209 141.951 90.1891 141.262C83.8687 145.704 84.5444 151.74 86.4838 154.58C87.9287 156.656 90.8643 157.972 94.0744 157.957C94.9351 157.953 95.833 157.889 96.7088 157.673C102.276 156.605 106.476 153.34 108.869 148.544L108.892 148.499ZM116.509 143.261C113.176 139.489 108.281 137.428 102.716 137.454L101.984 137.458C101.624 136.694 100.783 136.216 99.8401 136.221L99.779 136.221C98.4285 136.227 97.3834 137.361 97.4334 138.669C97.4854 139.916 98.5771 140.952 99.8836 140.946L99.9908 140.946C100.955 140.898 101.785 140.313 102.128 139.476L102.92 139.472C106.22 139.457 109.346 140.381 112.206 142.197C114.39 143.579 115.967 145.408 116.853 147.589C117.632 149.37 117.595 151.123 116.809 152.587C115.603 154.876 113.549 156.095 110.836 156.108C109.122 156.116 107.451 155.602 106.588 155.233C106.077 155.647 105.221 156.34 104.602 156.762C106.493 157.582 108.399 158.051 110.242 158.043C114.418 158.023 117.511 155.724 118.679 153.511C119.95 151.009 119.825 146.804 116.531 143.217L116.509 143.261ZM94.3974 149.316C94.4493 150.563 95.541 151.6 96.8529 151.593L96.9376 151.593C98.3104 151.544 99.3492 150.437 99.2809 149.125C99.2751 147.876 98.1598 146.839 96.8532 146.845L96.7632 146.846C96.6807 146.846 96.552 146.846 96.4408 146.892C94.6522 143.986 93.8884 140.865 94.1513 137.493C94.3077 134.954 95.157 132.747 96.6886 130.906C97.9665 129.343 100.379 128.555 102.031 128.51C106.654 128.401 108.611 133.996 108.768 136.221L110.914 136.835C110.385 130.012 106.004 126.452 101.828 126.471C97.9092 126.49 94.3036 129.273 92.866 133.339C90.903 138.764 92.2339 143.955 94.6929 148.111C94.483 148.377 94.3566 148.861 94.3974 149.316V149.316Z" fill="url(#paint0_linear_423_35)"/>
<path d="M34.6545 81.5618C33.0229 81.5694 31.7007 82.9806 31.7088 84.7059C31.7168 86.4311 33.0521 87.8299 34.6837 87.8223C36.3153 87.8146 37.6375 86.4034 37.6294 84.6782C37.6213 82.9529 36.286 81.5541 34.6545 81.5618ZM26.4105 90.9518L25.7563 90.7838C20.8875 89.5035 18.0849 87.312 18.073 84.7642C18.0611 82.2163 20.8441 79.9987 25.6996 78.6729L26.3523 78.4988L26.5391 79.1834C27.0391 80.9744 27.679 82.7197 28.4493 84.4074L28.5908 84.715L28.4522 85.0293C27.6987 86.7175 27.0742 88.4688 26.591 90.2709L26.4105 90.9518ZM25.4053 80.2735C21.7147 81.3876 19.4541 83.0829 19.4619 84.7577C19.4697 86.4325 21.7471 88.1 25.447 89.186C25.8941 87.6583 26.4328 86.1707 27.0629 84.7221C26.4182 83.2795 25.8657 81.797 25.4053 80.2735V80.2735ZM42.9858 90.8743L42.799 90.1896C42.299 88.3987 41.6591 86.6533 40.8889 84.9711L40.7474 84.6581L40.8859 84.3438C41.6394 82.6555 42.2639 80.9043 42.7472 79.1021L42.9276 78.4212L43.5819 78.5893C48.4506 79.8695 51.2532 82.061 51.2651 84.6089C51.277 87.1567 48.494 89.3744 43.6385 90.7001L42.9858 90.8743ZM42.2752 84.6509C42.9472 86.1669 43.505 87.656 43.9329 89.0996C47.6286 87.98 49.8841 86.2902 49.8762 84.6154C49.8684 82.9406 47.591 81.2731 43.8912 80.187C43.444 81.7082 42.9054 83.2024 42.2752 84.6509ZM25.3938 80.2681L25.207 79.5834C23.8161 74.4941 24.2149 70.8365 26.3001 69.5523C28.3469 68.2912 31.644 69.7554 35.1135 73.487L35.5858 73.9937L35.1183 74.5048C33.8986 75.8585 32.7872 77.3148 31.7893 78.8616L31.6018 79.1422L31.2773 79.1722C29.5116 79.3286 27.7621 79.634 26.0465 80.0884L25.3938 80.2681ZM27.9738 70.5623C27.6014 70.564 27.2719 70.6456 26.9968 70.818C25.6285 71.6646 25.3994 74.5788 26.3627 78.5042C27.836 78.1485 29.3254 77.8959 30.8329 77.7463C31.6908 76.4392 32.6362 75.1899 33.6514 74.0138C31.4856 71.8017 29.4373 70.5544 27.9738 70.5612L27.9738 70.5623ZM41.3764 100.273C41.3712 100.273 41.3712 100.273 41.3764 100.273C39.4046 100.282 36.8632 98.7287 34.2246 95.8849L33.7523 95.3782L34.2198 94.8671C35.4396 93.5134 36.5509 92.0571 37.5488 90.5103L37.7311 90.2298L38.0556 90.1943C39.8214 90.0434 41.5709 89.738 43.2916 89.2781L43.9443 89.1039L44.1311 89.7885C45.522 94.8779 45.1232 98.5299 43.038 99.8131C42.5312 100.124 41.9594 100.281 41.3764 100.272L41.3764 100.273ZM35.6857 95.3582C37.8515 97.5702 39.8998 98.8176 41.3633 98.8108L41.3685 98.8107C41.7357 98.809 42.0652 98.7219 42.3403 98.555C43.7086 97.7085 43.944 94.7942 42.9744 90.8688C41.5011 91.2245 40.0055 91.4772 38.5042 91.6213C37.6463 92.9338 36.7009 94.1777 35.6857 95.3593L35.6857 95.3582ZM43.9026 80.1815L43.2483 80.0079C41.5233 79.5707 39.771 79.2817 38.0039 79.1408L37.6791 79.1138L37.4942 78.8349C36.4819 77.2975 35.3569 75.8517 34.1246 74.5095L33.6523 74.0028L34.1198 73.4917C37.5543 69.7278 40.8375 68.2328 42.8961 69.4746C44.9932 70.7382 45.4262 74.393 44.083 79.4951L43.9026 80.1815ZM38.4401 77.7107C40.0185 77.8579 41.5216 78.0966 42.9172 78.4268C43.85 74.4925 43.5874 71.5795 42.2112 70.7469C40.8402 69.9197 38.2749 71.2106 35.5869 74.0058C36.613 75.1779 37.5648 76.4128 38.4401 77.7118L38.4401 77.7107ZM28.113 100.335C27.5291 100.349 26.9507 100.198 26.442 99.8918C24.3449 98.6282 23.9119 94.9789 25.2552 89.8779L25.4356 89.1916L26.0898 89.3596C27.6913 89.781 29.4539 90.0689 31.329 90.2268L31.6538 90.2593L31.8387 90.5381C32.8511 92.0755 33.976 93.5214 35.2083 94.8636L35.6806 95.3703L35.2131 95.8814C32.6064 98.7497 30.0797 100.327 28.113 100.336L28.113 100.335ZM26.4219 90.9463C25.4892 94.8805 25.7517 97.7936 27.1279 98.6262C28.4989 99.4424 31.0591 98.1625 33.7523 95.3673C32.7261 94.1952 31.7692 92.9602 30.899 91.6558C29.3912 91.5258 27.8985 91.2871 26.4219 90.9452L26.4219 90.9463ZM34.7025 91.8267C33.5625 91.832 32.3954 91.7859 31.2228 91.6883L30.898 91.6613L30.7079 91.377C30.0445 90.3743 29.4122 89.3441 28.8294 88.284C28.2405 87.2239 27.7012 86.1417 27.1992 85.0352L27.0577 84.7221L27.1963 84.4078C27.6879 83.2977 28.2181 82.2094 28.796 81.1439C29.3637 80.0959 29.9853 79.0478 30.6455 78.0334L30.8329 77.7473L31.1574 77.7173C33.4737 77.5003 35.8023 77.4894 38.1153 77.6848L38.4401 77.7118L38.6302 77.996C39.9632 80.0003 41.1401 82.1259 42.1389 84.3379L42.2804 84.6509L42.1419 84.9653C41.1637 87.1865 40.012 89.323 38.6927 91.3397L38.5052 91.6257L38.1807 91.6557C37.0143 91.7643 35.8424 91.8213 34.7025 91.8267V91.8267ZM31.659 90.2527C33.7021 90.4088 35.6895 90.3995 37.7363 90.2243C38.868 88.4542 39.8747 86.5926 40.7463 84.657C39.8619 82.7307 38.8377 80.8786 37.6791 79.1182C35.6578 78.962 33.6268 78.9715 31.607 79.1466C30.465 80.9167 29.4572 82.7783 28.5918 84.7139C29.4815 86.6401 30.5056 88.4922 31.659 90.2527Z" fill="url(#paint1_linear_423_35)"/>
<path d="M85.0842 85.1559L85.1684 103.152L123.165 102.974L122.997 66.9824L85.0001 67.1602L85.0842 85.1559ZM115.696 83.5776C116.662 83.8014 117.399 84.2084 118.083 84.8666C118.431 85.2159 118.953 85.858 118.998 86.0163C119.01 86.0635 117.364 87.1195 116.365 87.7102C116.328 87.734 116.179 87.5884 116.016 87.3597C115.525 86.6883 115.01 86.3983 114.224 86.3491C113.074 86.2836 112.334 86.8562 112.344 87.8111C112.34 88.0451 112.397 88.2799 112.508 88.4841C112.764 88.9811 113.242 89.277 114.716 89.8741C117.443 90.9681 118.609 91.6948 119.336 92.7285C120.152 93.8843 120.34 95.7347 119.802 97.1196C119.204 98.6161 117.711 99.6421 115.61 99.986C114.961 100.1 113.415 100.09 112.715 99.9703C111.187 99.7199 109.736 99.0113 108.841 98.0786C108.487 97.7169 107.802 96.7652 107.845 96.7009C107.864 96.6772 108.018 96.5831 108.191 96.4878C108.364 96.3925 108.999 96.0386 109.598 95.7074L110.69 95.0994L110.921 95.42C111.245 95.8808 111.946 96.5107 112.368 96.7191C113.584 97.323 115.247 97.2275 116.066 96.5263C116.399 96.2616 116.583 95.8558 116.556 95.4465C116.554 95.0304 116.498 94.8439 116.267 94.5334C115.968 94.1367 115.367 93.7998 113.65 93.1049C111.686 92.311 110.836 91.8234 110.067 91.0363C109.582 90.5167 109.221 89.9043 109.013 89.2427C108.868 88.7339 108.826 87.4564 108.935 86.9463C109.329 85.146 110.758 83.892 112.815 83.5134C113.483 83.3877 115.041 83.4265 115.697 83.5764L115.696 83.5776ZM106.785 85.1253L106.804 86.5953L101.856 86.6184L101.919 99.9342L98.4182 99.9505L98.3559 86.6348L93.4151 86.6579L93.4084 85.2171C93.4046 84.4141 93.4205 83.747 93.4442 83.7289C93.463 83.7052 96.4683 83.6799 100.117 83.6684L106.76 83.6553L106.785 85.1253Z" fill="url(#paint2_linear_423_35)" fill-opacity="0.61"/>
<path d="M43.0108 155.368C43.0542 155.261 43.1646 155.186 43.2446 155.096C44.4655 153.704 45.6969 152.324 46.9011 150.916C47.2782 150.537 47.5687 150.07 47.7501 149.55C47.9314 149.03 47.9986 148.472 47.9463 147.92C47.9072 147.683 47.8562 147.449 47.7936 147.218C47.4651 147.557 47.1594 147.866 46.8517 148.177C46.3734 148.66 45.8973 149.146 45.4148 149.625C45.1305 149.94 44.764 150.155 44.3637 150.241C43.9635 150.327 43.5484 150.28 43.1732 150.106C42.7935 149.958 42.4625 149.693 42.2213 149.344C41.9801 148.996 41.8393 148.578 41.8164 148.144C41.805 148.088 41.7897 148.033 41.7708 147.98C41.4036 148.319 41.052 148.631 40.7035 148.953L33.461 155.624C33.4111 155.67 33.357 155.728 33.3103 155.773L43.0073 155.728L42.9926 155.718C42.9402 155.679 42.9664 155.471 43.0108 155.368V155.368Z" fill="#FFCEBF"/>
<path d="M32.8646 155.415C32.9503 155.294 33.0539 155.189 33.1713 155.103L43.1941 145.859C43.8778 145.229 44.5583 144.594 45.2358 143.957C45.3195 143.893 45.385 143.805 45.4247 143.704C45.5839 142.939 45.6032 142.148 45.4817 141.376C45.3776 141.455 45.3214 141.489 45.2736 141.544C44.4531 142.342 43.6368 143.147 42.8122 143.941C42.5391 144.24 42.1851 144.437 41.801 144.506C41.4169 144.574 41.0225 144.509 40.6745 144.321C40.3196 144.143 40.0219 143.855 39.8193 143.494C39.6167 143.132 39.5184 142.715 39.5369 142.293C39.5364 142.198 39.536 142.103 39.5352 141.929C39.3843 142.049 39.2739 142.129 39.1709 142.22C35.1585 145.713 31.1467 149.203 27.1357 152.69C26.9547 152.848 26.739 153.197 26.4993 152.86C26.2595 152.522 26.6213 152.381 26.8034 152.223C31.0793 148.492 35.3574 144.766 39.6376 141.042C40.3346 140.435 40.3794 140.181 39.9195 139.224L39.6492 139.5C38.9078 140.249 38.1581 140.988 37.4284 141.75C37.129 142.064 36.7533 142.28 36.3446 142.374C35.9358 142.467 35.5107 142.434 35.1184 142.279C34.7261 142.123 34.3825 141.852 34.1274 141.495C33.8722 141.138 33.7159 140.711 33.6764 140.263C33.538 140.376 33.4183 140.459 33.3049 140.555L26.9577 145.904C26.8483 146.021 26.7235 146.119 26.5872 146.196C26.4842 146.23 26.3734 146.225 26.2737 146.181L26.3188 155.812L32.8538 155.781C32.8292 155.723 32.8174 155.66 32.8193 155.597C32.8212 155.533 32.8367 155.471 32.8646 155.415V155.415Z" fill="#FFCEBF"/>
<path d="M50.3753 124.759C50.2007 125.386 50.0313 126.015 49.8786 126.649C49.7369 127.097 49.7559 127.586 49.9319 128.021C50.1079 128.455 50.4281 128.803 50.8297 128.996C52.0587 129.684 53.4414 129.989 54.8222 129.877L54.7987 124.845C54.7828 124.735 54.788 124.622 54.8138 124.514C54.8428 124.453 54.8795 124.397 54.9227 124.346L50.3693 124.367C50.4397 124.455 50.4164 124.609 50.3753 124.759V124.759Z" fill="#FF6196"/>
<path d="M41.2804 135.612C41.2614 136.173 41.0815 136.715 40.7654 137.162C39.6352 138.749 38.3355 140.187 36.8931 141.446C36.6607 141.68 36.3654 141.829 36.0495 141.871C35.7337 141.913 35.4136 141.846 35.1351 141.679C34.8581 141.554 34.624 141.338 34.4651 141.064C34.3061 140.789 34.23 140.468 34.2473 140.145C34.2789 139.748 34.4301 139.373 34.6779 139.077C36.2896 137.407 38.0372 135.895 39.8997 134.561C40.0216 134.457 40.1708 134.397 40.3262 134.389C40.4816 134.381 40.6353 134.427 40.7655 134.518C40.9367 134.632 41.0755 134.794 41.1663 134.987C41.2572 135.18 41.2967 135.396 41.2804 135.612V135.612Z" fill="#FF87AF"/>
<path d="M40.0609 142.436C40.0355 142.187 40.0639 141.936 40.1441 141.701C40.2242 141.467 40.3537 141.255 40.5226 141.084C42.1009 139.501 43.7954 138.059 45.5897 136.77C45.6438 136.733 45.6938 136.696 45.7532 136.657C45.9099 136.534 46.1001 136.471 46.294 136.477C46.4878 136.483 46.6743 136.559 46.8241 136.692C46.969 136.823 47.0719 136.999 47.1182 137.197C47.1645 137.394 47.1519 137.603 47.082 137.792C46.8581 138.61 46.4412 139.351 45.872 139.944C44.7235 141.187 43.5309 142.389 42.3373 143.583C42.1566 143.785 41.9187 143.916 41.6609 143.957C41.4031 143.997 41.1402 143.944 40.9134 143.806C40.6752 143.674 40.472 143.479 40.3229 143.239C40.1738 143 40.0836 142.723 40.0609 142.436Z" fill="#FF87AF"/>
<path d="M47.6022 143.144C47.3113 143.483 47.012 143.806 46.7326 144.153C46.6487 144.287 46.5793 144.431 46.5257 144.582C46.6805 144.63 46.8618 144.76 46.987 144.713C47.6241 144.48 48.2454 144.2 48.945 143.905C48.7942 144.284 48.681 144.633 48.5205 144.954C47.8592 146.164 47.0289 147.258 46.0589 148.196C45.6902 148.583 45.3072 148.952 44.9098 149.305C44.6994 149.495 44.4458 149.621 44.1752 149.671C43.9045 149.721 43.6264 149.692 43.3693 149.588C43.1121 149.484 42.8853 149.308 42.7119 149.079C42.5384 148.849 42.4247 148.574 42.3822 148.282C42.3647 148.12 42.3773 147.955 42.4192 147.798C42.4612 147.641 42.5317 147.494 42.6266 147.366C44.0403 145.697 45.6581 144.243 47.4356 143.043C47.4573 143.034 47.4802 143.029 47.5035 143.028L47.6022 143.144Z" fill="#FF87AF"/>
<path d="M49.9776 138.652L51.7249 130.094L52.9799 130.404L52.3432 132.524C51.7486 134.495 51.1467 136.467 50.5668 138.44C50.4536 138.805 50.3035 138.874 49.9776 138.652V138.652Z" fill="#FF6196"/>
<path d="M47.9829 143.691C48.1684 142.912 48.353 142.193 48.5084 141.465C48.6598 140.76 48.9511 140.098 49.3622 139.525C49.6143 139.165 49.9002 139.306 50.192 139.383C50.4618 139.452 50.5307 139.665 50.5435 139.944C50.5896 140.715 50.375 141.478 49.9393 142.092C49.4205 142.791 48.7482 143.341 47.9829 143.691V143.691Z" fill="#FF6196"/>
<path d="M55.3459 125.266C55.3604 125.015 55.3532 124.763 55.3247 124.514C55.3028 124.445 55.2598 124.385 55.2027 124.345C55.1561 124.304 55.1017 124.276 55.0435 124.261C55.0101 124.255 54.9632 124.292 54.9186 124.345C54.8753 124.395 54.8386 124.452 54.8097 124.513C54.7838 124.621 54.7786 124.734 54.7945 124.844L54.818 129.875C53.4372 129.987 52.0545 129.682 50.8255 128.994C50.4239 128.8 50.1037 128.453 49.9277 128.018C49.7517 127.584 49.7327 127.095 49.8744 126.647C50.0271 126.013 50.1965 125.384 50.3712 124.757C50.4122 124.607 50.4355 124.453 50.3693 124.365C50.3325 124.323 50.2819 124.297 50.228 124.294C50.159 124.295 50.0923 124.321 50.0382 124.367C49.9603 124.417 49.8984 124.492 49.8606 124.581C49.6548 125.257 49.4741 125.94 49.3175 126.629C49.2585 126.901 49.2435 127.181 49.2734 127.458C49.3161 127.96 49.4916 128.438 49.779 128.835C50.0664 129.233 50.4536 129.533 50.8947 129.701C51.0925 129.789 51.2089 129.876 51.1548 130.156C51.0802 130.512 51.0077 130.868 50.9342 131.225C50.4336 133.644 49.9359 136.064 49.4409 138.485C49.4271 138.593 49.3836 138.694 49.3159 138.775C48.9835 139.062 48.7048 139.414 48.4944 139.814C48.2265 140.34 48.042 140.911 47.9487 141.504C47.9311 141.693 47.8686 141.873 47.7672 142.028C47.6659 142.184 47.529 142.308 47.3699 142.39C46.9354 142.629 46.5368 142.938 46.0546 143.26C46.0839 142.633 46.0747 142.005 46.027 141.38C45.9893 141.188 45.9962 140.988 46.0471 140.8C46.0979 140.611 46.1912 140.439 46.3186 140.299C46.9526 139.616 47.4027 138.761 47.6212 137.824C47.6868 137.607 47.7039 137.376 47.6713 137.15C47.6387 136.925 47.5573 136.71 47.4336 136.525C47.3099 136.339 47.1473 136.188 46.9592 136.082C46.771 135.977 46.5624 135.92 46.3504 135.918C46.007 135.915 45.6704 136.02 45.3813 136.219C44.3851 136.951 43.4161 137.727 42.4546 138.512C41.8854 138.978 41.3498 139.494 40.7984 139.982C40.7744 139.955 40.7536 139.924 40.7364 139.892C40.7254 139.809 40.7043 139.728 40.6736 139.651C40.2072 138.884 40.5253 138.323 41.0251 137.746C41.5458 137.152 41.8313 136.364 41.8212 135.547C41.8355 135.131 41.7126 134.723 41.4743 134.395C41.3473 134.228 41.1912 134.09 41.0148 133.988C40.7643 133.842 40.4782 133.782 40.1952 133.816C39.9121 133.85 39.6454 133.976 39.431 134.178L39.1406 134.404C38.4776 134.921 37.8062 135.423 37.1684 135.975C36.2372 136.781 35.3282 137.62 34.4369 138.479C34.021 138.878 33.7185 139.421 33.2867 139.792C31.0352 141.726 28.7595 143.624 26.4922 145.535C26.4141 145.585 26.3424 145.647 26.2789 145.717C26.2723 145.727 26.2668 145.738 26.2623 145.75C26.2148 145.87 26.175 146.07 26.2318 146.142C26.2457 146.158 26.2624 146.171 26.281 146.179C26.3807 146.223 26.4915 146.229 26.5945 146.195C26.7308 146.118 26.8556 146.019 26.965 145.903L33.3122 140.554C33.4256 140.458 33.5453 140.371 33.6838 140.262C33.7232 140.71 33.8795 141.137 34.1347 141.494C34.3898 141.851 34.7334 142.122 35.1257 142.278C35.5181 142.433 35.9431 142.466 36.3519 142.372C36.7606 142.279 37.1363 142.062 37.4357 141.749C38.1634 140.987 38.9152 140.248 39.6565 139.498L39.9268 139.223C40.3867 140.18 40.3419 140.433 39.6449 141.041C35.3613 144.767 31.0808 148.495 26.8034 152.223C26.6213 152.381 26.2606 152.526 26.4993 152.86C26.738 153.194 26.9547 152.847 27.1357 152.69C31.1489 149.206 35.1592 145.717 39.1668 142.223C39.2708 142.133 39.3801 142.052 39.531 141.932L39.5327 142.297C39.5142 142.718 39.6125 143.136 39.8151 143.497C40.0177 143.858 40.3154 144.146 40.6704 144.324C41.0184 144.513 41.4128 144.577 41.7969 144.509C42.181 144.441 42.535 144.243 42.808 143.944C43.6327 143.153 44.4489 142.346 45.2694 141.548C45.3214 141.497 45.3818 141.458 45.4776 141.379C45.5991 142.152 45.5797 142.942 45.4205 143.707C45.3808 143.809 45.3154 143.896 45.2316 143.96C44.5535 144.597 43.8729 145.231 43.1899 145.863L33.1713 155.108C33.0539 155.193 32.9503 155.298 32.8646 155.42C32.8374 155.475 32.8222 155.536 32.8203 155.599C32.8185 155.662 32.8299 155.724 32.8538 155.781C32.9012 155.819 32.9559 155.845 33.0138 155.857C33.0717 155.869 33.1314 155.866 33.1884 155.85C33.2334 155.836 33.2747 155.811 33.3092 155.777C33.3612 155.731 33.4132 155.674 33.46 155.627L40.7025 148.956C41.051 148.635 41.4026 148.318 41.7697 147.983C41.7887 148.037 41.8039 148.092 41.8154 148.147C41.8383 148.582 41.9791 148.999 42.2203 149.348C42.4615 149.697 42.7925 149.962 43.1722 150.11C43.5474 150.283 43.9625 150.33 44.3627 150.244C44.7629 150.158 45.1294 149.943 45.4138 149.628C45.8962 149.15 46.3724 148.664 46.8507 148.18C47.1626 147.869 47.4641 147.557 47.7926 147.222C47.8552 147.452 47.9062 147.686 47.9453 147.923C47.9959 148.474 47.9279 149.03 47.7466 149.547C47.5653 150.065 47.2756 150.531 46.9 150.908C45.6959 152.318 44.4644 153.697 43.2435 155.088C43.1635 155.178 43.0531 155.253 43.0097 155.36C42.9664 155.467 42.9391 155.676 42.9916 155.721L43.0063 155.731C43.1161 155.788 43.2393 155.807 43.3596 155.787C43.3933 155.779 43.4233 155.759 43.4439 155.729C43.473 155.696 43.5011 155.656 43.5291 155.625C44.5184 154.514 45.5129 153.408 46.4949 152.288C46.8913 151.851 47.2637 151.39 47.6103 150.907C48.0627 150.363 48.3611 149.69 48.4707 148.969C48.5802 148.248 48.4962 147.508 48.2285 146.836C48.1994 146.686 48.2264 146.53 48.3038 146.401C48.3711 146.275 48.4457 146.152 48.5225 146.03C48.7682 145.683 48.9724 145.304 49.1304 144.902C49.4346 143.916 49.9045 142.999 50.5165 142.196C50.7977 141.808 50.9904 141.354 51.0788 140.871C51.1673 140.389 51.1491 139.89 51.0258 139.416C50.9821 139.236 50.9812 139.046 51.0232 138.866C51.5435 137.1 52.0795 135.341 52.6103 133.58C52.8483 132.791 53.0849 132.005 53.3201 131.221L53.5392 130.492C54.0134 130.49 54.4605 130.477 54.9055 130.485C55.2753 130.495 55.3873 130.308 55.3813 129.921C55.3521 128.368 55.3532 126.817 55.3459 125.266ZM36.8932 141.446C36.6607 141.68 36.3654 141.829 36.0495 141.871C35.7337 141.913 35.4136 141.846 35.1351 141.679C34.8581 141.554 34.6241 141.338 34.4651 141.064C34.3061 140.789 34.23 140.468 34.2473 140.145C34.2789 139.748 34.4301 139.373 34.6779 139.077C36.2896 137.407 38.0372 135.895 39.8997 134.561C40.0014 134.482 40.1172 134.428 40.2396 134.402C40.3217 134.385 40.4059 134.384 40.4882 134.4C40.5867 134.421 40.6808 134.461 40.7655 134.518C40.9369 134.632 41.0757 134.794 41.1666 134.987C41.2575 135.18 41.2969 135.397 41.2804 135.613C41.2614 136.175 41.0815 136.716 40.7654 137.163C39.6352 138.75 38.3355 140.187 36.8932 141.446ZM42.3352 143.591C42.1546 143.793 41.9166 143.924 41.6589 143.965C41.4011 144.005 41.1381 143.952 40.9114 143.814C40.6728 143.681 40.4693 143.486 40.3201 143.246C40.171 143.006 40.081 142.728 40.0588 142.441C40.0334 142.192 40.0619 141.941 40.142 141.706C40.2221 141.471 40.3517 141.26 40.5205 141.088C42.0988 139.506 43.7934 138.063 45.5876 136.775C45.6418 136.738 45.6917 136.7 45.7511 136.662C45.9078 136.539 46.098 136.475 46.2919 136.482C46.4858 136.488 46.6722 136.563 46.822 136.696C46.9669 136.827 47.0699 137.004 47.1162 137.201C47.1625 137.399 47.1498 137.607 47.08 137.796C46.856 138.614 46.4391 139.356 45.8699 139.948C44.7235 141.194 43.5309 142.393 42.3373 143.586L42.3352 143.591ZM48.5164 144.958C47.8559 146.167 47.0271 147.259 46.0589 148.196C45.6902 148.583 45.3072 148.952 44.9098 149.305C44.6994 149.495 44.4458 149.621 44.1752 149.671C43.9045 149.721 43.6264 149.692 43.3693 149.588C43.1122 149.484 42.8853 149.308 42.7119 149.079C42.5384 148.849 42.4247 148.574 42.3822 148.282C42.3647 148.12 42.3773 147.955 42.4193 147.798C42.4612 147.641 42.5317 147.494 42.6266 147.366C44.0403 145.697 45.6581 144.243 47.4356 143.043C47.4573 143.034 47.4802 143.029 47.5035 143.028L47.6085 143.14C47.3176 143.479 47.0182 143.802 46.7388 144.149C46.655 144.282 46.5855 144.426 46.5319 144.577C46.6867 144.626 46.8681 144.756 46.9932 144.709C47.4969 144.524 47.9921 144.31 48.5227 144.083L48.9512 143.901C48.7922 144.284 48.6789 144.633 48.5185 144.954L48.5164 144.958ZM49.9373 142.1C49.5501 142.636 49.0638 143.079 48.5091 143.402C48.3376 143.507 48.1615 143.604 47.9809 143.695C48.1632 142.928 48.3458 142.217 48.5002 141.499L48.5063 141.47C48.6578 140.764 48.949 140.102 49.3601 139.529C49.6123 139.169 49.8981 139.311 50.1899 139.387C50.4598 139.457 50.5287 139.669 50.5415 139.948C50.5879 140.719 50.3741 141.481 49.9394 142.095L49.9373 142.1ZM52.3369 132.526C51.7424 134.497 51.1405 136.469 50.5605 138.443C50.4515 138.813 50.3014 138.881 49.9755 138.66L51.49 131.236L51.7228 130.096L52.9778 130.407C52.8934 130.685 52.8122 130.959 52.7299 131.23L52.3369 132.526Z" fill="black"/>
<path d="M38.506 212.795C38.0157 212.795 37.5297 212.667 37.1 212.419L32.6242 209.769C31.9554 209.395 32.2817 209.262 32.502 209.186C33.3938 208.875 33.574 208.804 34.5256 208.263C34.6255 208.206 34.7562 208.226 34.8587 208.287L38.2976 210.328C38.4214 210.395 38.5982 210.395 38.7127 210.328L52.1205 202.588C52.2444 202.517 52.3255 202.374 52.3255 202.226V186.754C52.3255 186.6 52.2452 186.462 52.118 186.385L38.7161 178.652C38.5922 178.578 38.4274 178.578 38.3035 178.652L24.9034 186.384C24.7735 186.458 24.6907 186.602 24.6907 186.75V202.222C24.6907 202.37 24.771 202.511 24.8991 202.581L28.5712 204.702C30.5648 205.699 31.7828 204.524 31.7828 203.343V188.073C31.7828 187.855 31.9537 187.687 32.1723 187.687H33.8704C34.0822 187.687 34.2565 187.855 34.2565 188.073V203.351C34.2565 206.009 32.807 207.536 30.2863 207.536C29.5107 207.536 28.9 207.536 27.1951 206.697L23.6776 204.67C22.8081 204.167 22.2708 203.226 22.2708 202.223V186.751C22.2708 185.744 22.8081 184.804 23.6768 184.307L37.0992 176.564C37.9482 176.084 39.0757 176.084 39.9188 176.564L53.3241 184.311C54.1885 184.81 54.7292 185.747 54.7292 186.754V202.227C54.7292 203.23 54.1885 204.167 53.3232 204.67L39.9179 212.413C39.4883 212.661 39.0014 212.788 38.5051 212.788" fill="#21A366"/>
<path d="M42.6478 202.134C36.7814 202.134 35.5514 199.441 35.5514 197.182C35.5514 196.968 35.7248 196.796 35.9401 196.796H37.6723C37.8637 196.796 38.0251 196.935 38.055 197.124C38.3164 198.889 39.0954 199.779 42.6427 199.779C45.4683 199.779 46.6701 199.141 46.6701 197.642C46.6701 196.779 46.3276 196.138 41.938 195.709C38.266 195.347 35.9973 194.538 35.9973 191.601C35.9973 188.896 38.2796 187.285 42.102 187.285C46.3951 187.285 48.5228 188.775 48.791 191.977C48.8013 192.088 48.7611 192.195 48.6868 192.276C48.6133 192.353 48.5091 192.4 48.4015 192.4H46.6599C46.4788 192.4 46.3208 192.272 46.284 192.097C45.8646 190.241 44.8507 189.648 42.0952 189.648C39.0108 189.648 38.652 190.721 38.652 191.527C38.652 192.503 39.0749 192.788 43.2364 193.339C47.3577 193.886 49.3146 194.658 49.3146 197.555C49.3146 200.474 46.8777 202.149 42.629 202.149" fill="#21A366"/>
<path d="M107.672 177.042C106.407 177.06 105.154 177.265 103.938 177.662L103.854 177.693C103.09 177.549 102.312 177.472 101.539 177.457C99.94 177.434 98.5698 177.868 97.4673 178.589C96.3747 178.179 94.1108 177.462 91.729 177.62C90.0737 177.727 88.265 178.292 86.9266 179.869C85.6003 181.44 84.9032 183.869 85.0661 187.174C85.112 188.082 85.3527 189.562 85.7531 191.488C86.1483 193.409 86.7047 195.656 87.3973 197.71C88.09 199.758 88.8436 201.599 90.0153 202.847C90.5997 203.471 91.4072 204.002 92.3543 203.951C93.0168 203.918 93.613 203.593 94.1302 203.116C94.385 203.484 94.6571 203.64 94.9007 203.786C95.2147 203.973 95.5111 204.099 95.8245 204.181C96.3863 204.336 97.3458 204.537 98.4669 204.321C98.8478 204.248 99.2496 204.107 99.6512 203.911C99.6698 204.403 99.6883 204.889 99.7059 205.381C99.7711 206.934 99.8164 208.369 100.239 209.627C100.309 209.833 100.5 210.886 101.234 211.82C101.975 212.754 103.405 213.327 105.04 212.933C106.188 212.657 107.652 212.159 108.619 210.62C109.576 209.103 110 206.928 110.068 203.399C110.088 203.205 110.115 203.048 110.139 202.895L110.367 202.917L110.395 202.917C111.623 202.97 112.956 202.77 114.071 202.19C115.052 201.681 115.797 201.168 116.337 200.258C116.47 200.033 116.621 199.758 116.657 199.289C116.697 198.826 116.449 198.094 116.045 197.757C115.238 197.081 114.731 197.341 114.186 197.473C113.653 197.605 113.106 197.676 112.562 197.697C114.114 194.772 115.222 191.662 115.85 188.915C116.224 187.289 116.429 185.794 116.439 184.488C116.454 183.182 116.349 182.028 115.639 181.03C113.411 177.917 110.299 177.063 107.896 177.046C107.822 177.047 107.749 177.047 107.673 177.047L107.672 177.042ZM107.613 178.004C109.884 177.97 112.793 178.659 114.892 181.602C115.367 182.262 115.51 183.228 115.499 184.424C115.488 185.62 115.295 187.044 114.936 188.611C114.247 191.65 112.923 195.183 111.059 198.363C111.124 198.416 111.197 198.461 111.271 198.491C111.664 198.671 112.559 198.818 114.346 198.406C114.796 198.297 115.125 198.227 115.469 198.512C115.64 198.669 115.73 198.904 115.72 199.15C115.701 199.331 115.644 199.507 115.543 199.655C115.201 200.229 114.523 200.779 113.65 201.234C112.88 201.635 111.768 201.846 110.79 201.863C110.293 201.871 109.838 201.832 109.449 201.699L109.428 201.694C109.286 203.282 108.958 206.425 108.742 207.855C108.568 209.009 108.259 209.932 107.665 210.62C107.069 211.314 106.23 211.728 105.093 212.003C103.686 212.344 102.662 211.991 101.999 211.379C101.335 210.766 101.028 209.948 100.846 209.45C100.718 209.105 100.652 208.66 100.586 208.062C100.52 207.465 100.475 206.738 100.438 205.912C100.391 204.653 100.368 203.393 100.379 202.127C99.7951 202.728 99.0661 203.123 98.2821 203.28C97.3468 203.46 96.5146 203.288 96.0169 203.155C95.7726 203.086 95.5333 202.988 95.3111 202.854C95.0777 202.72 94.8595 202.569 94.7107 202.264C94.6245 202.089 94.5981 201.885 94.6338 201.691C94.6745 201.492 94.7794 201.322 94.9232 201.192C95.1914 200.948 95.5465 200.814 96.0796 200.688C97.0533 200.459 97.3961 200.307 97.6016 200.123C97.7757 199.97 97.9765 199.653 98.322 199.188C98.3219 199.171 98.3218 199.147 98.3166 199.129C97.6873 199.11 97.0715 198.931 96.514 198.599C96.3148 198.834 95.2767 200.058 94.0201 201.752C93.4938 202.456 92.9082 202.864 92.2843 202.897C91.6654 202.928 91.1007 202.587 90.6226 202.078C89.6654 201.056 88.8938 199.296 88.2228 197.306C87.5518 195.317 87.0068 193.1 86.6117 191.215C86.2217 189.323 85.9869 187.801 85.9509 187.069C85.794 183.946 86.4459 181.84 87.572 180.504C88.698 179.168 90.2478 178.663 91.7618 178.557C94.4769 178.375 97.0646 179.411 97.585 179.632C98.5867 178.871 99.8815 178.397 101.502 178.417C102.27 178.426 103.032 178.533 103.78 178.735L103.808 178.717C104.135 178.593 104.468 178.48 104.806 178.397C105.727 178.151 106.668 178.024 107.61 178.003L107.613 178.004ZM107.824 179.004L107.624 179.005C106.851 179.019 106.072 179.124 105.317 179.308C107.009 180.127 108.29 181.392 109.196 182.666C109.825 183.541 110.343 184.505 110.739 185.535C110.895 185.934 110.998 186.266 111.052 186.524C111.084 186.653 111.101 186.763 111.111 186.875C111.112 186.933 111.117 186.993 111.091 187.092C111.091 187.097 111.086 187.11 111.086 187.115C111.136 188.428 110.843 189.318 110.81 190.573C110.789 191.482 111.006 192.548 111.064 193.713C111.117 194.807 111.002 196.01 110.366 197.196C110.419 197.267 110.467 197.336 110.52 197.413C112.206 194.439 113.418 191.158 114.057 188.359C114.399 186.851 114.577 185.486 114.588 184.409C114.599 183.33 114.416 182.546 114.181 182.219C112.347 179.655 109.883 179.009 107.823 179.003L107.824 179.004ZM101.33 179.42C99.7319 179.434 98.5848 179.973 97.7164 180.78C96.8188 181.616 96.2213 182.75 95.8354 183.917C95.3702 185.297 95.2128 186.633 95.1531 187.542L95.1743 187.53C95.6558 187.229 96.2886 186.921 96.9708 186.748C97.648 186.568 98.3836 186.512 99.0456 186.797C99.7147 187.074 100.263 187.745 100.469 188.758C101.446 193.641 100.204 195.464 99.7503 196.836C99.5778 197.335 99.4266 197.84 99.3071 198.356C99.365 198.343 99.4238 198.325 99.4817 198.319C99.8099 198.29 100.064 198.405 100.213 198.474C100.681 198.688 101 199.132 101.177 199.641C101.22 199.776 101.252 199.915 101.274 200.068C101.29 200.127 101.302 200.191 101.302 200.256C101.258 202.125 101.271 203.995 101.344 205.863C101.38 206.672 101.431 207.381 101.492 207.943C101.552 208.499 101.633 208.927 101.688 209.073C101.864 209.552 102.121 210.178 102.584 210.603C103.042 211.03 103.699 211.308 104.9 211.021C105.941 210.764 106.58 210.42 107.006 209.926C107.434 209.426 107.683 208.74 107.842 207.69C108.084 206.113 108.554 201.54 108.609 200.684C108.581 200.033 108.662 199.535 108.851 199.153C109.039 198.765 109.335 198.524 109.595 198.393C109.721 198.329 109.842 198.288 109.943 198.251C109.836 198.089 109.725 197.925 109.612 197.767C109.24 197.27 108.929 196.716 108.699 196.125C108.592 195.878 108.474 195.632 108.346 195.399C108.165 195.043 107.935 194.592 107.694 194.083C107.213 193.077 106.689 191.85 106.413 190.655C106.138 189.461 106.095 188.226 106.779 187.355C107.385 186.578 108.457 186.252 110.061 186.426C110.013 186.268 109.987 186.133 109.905 185.928C109.536 184.981 109.055 184.092 108.479 183.285C107.109 181.365 104.893 179.463 101.489 179.415L101.33 179.42ZM92.3316 179.539C92.1618 179.54 91.987 179.546 91.8183 179.559C90.4476 179.655 89.1578 180.098 88.2358 181.187C87.315 182.282 86.7155 184.06 86.8604 187.007C86.8904 187.569 87.1142 189.127 87.498 190.982C87.8838 192.839 88.4276 195.023 89.078 196.953C89.7264 198.877 90.5088 200.555 91.2535 201.348C91.6253 201.739 91.9483 201.902 92.2399 201.889C92.5316 201.87 92.8854 201.68 93.3168 201.105C94.1006 200.047 94.912 199.022 95.754 198.023C94.5298 196.851 93.9238 195.074 94.1544 193.302C94.2864 192.194 94.3029 191.155 94.2777 190.335C94.2588 189.539 94.2075 189.012 94.206 188.678C94.2059 188.666 94.2059 188.66 94.2058 188.648L94.2058 188.642L94.2007 188.632C94.1926 186.903 94.461 185.192 94.982 183.566C95.3579 182.443 95.9147 181.311 96.7561 180.386C95.9242 180.085 94.4442 179.636 92.846 179.555C92.6762 179.543 92.5013 179.538 92.3326 179.539L92.3316 179.539ZM109.17 187.382C108.25 187.404 107.737 187.671 107.465 188.011C107.085 188.5 107.052 189.355 107.296 190.409C107.538 191.462 108.037 192.638 108.502 193.616C108.732 194.106 108.957 194.545 109.137 194.901C109.325 195.264 109.458 195.515 109.539 195.737C109.614 195.936 109.7 196.111 109.785 196.275C110.136 195.441 110.196 194.626 110.155 193.771C110.102 192.717 109.875 191.639 109.907 190.55C109.938 189.272 110.162 188.438 110.174 187.454C109.844 187.409 109.506 187.38 109.172 187.382L109.17 187.382ZM98.0127 187.612C97.7321 187.613 97.4518 187.655 97.1767 187.727C96.6315 187.877 96.1091 188.101 95.6176 188.408C95.4544 188.508 95.2963 188.622 95.1486 188.752L95.1162 188.78C95.1284 189.004 95.1674 189.53 95.1874 190.315C95.2076 191.17 95.1965 192.259 95.0546 193.439C94.7383 196.007 96.4314 198.121 98.4064 198.117C98.5208 197.589 98.7074 197.054 98.8958 196.491C99.438 194.847 100.513 193.648 99.5803 188.976C99.4294 188.215 99.1311 187.906 98.7217 187.732C98.4936 187.645 98.2566 187.605 98.0127 187.613L98.0127 187.612ZM108.745 187.866L108.814 187.865C108.898 187.87 108.983 187.877 109.057 187.899C109.126 187.917 109.19 187.94 109.243 187.98C109.296 188.015 109.333 188.073 109.345 188.143L109.345 188.155C109.345 188.226 109.329 188.296 109.298 188.361C109.256 188.443 109.209 188.519 109.151 188.584C109.014 188.754 108.829 188.868 108.628 188.902C108.432 188.934 108.237 188.876 108.072 188.753C108.007 188.699 107.944 188.641 107.896 188.577C107.848 188.525 107.821 188.455 107.81 188.384C107.805 188.315 107.82 188.245 107.862 188.191C107.91 188.137 107.963 188.091 108.021 188.056C108.151 187.973 108.326 187.914 108.528 187.882C108.601 187.872 108.675 187.865 108.745 187.859L108.745 187.866ZM98.1464 188.167C98.2155 188.167 98.2958 188.172 98.3701 188.183C98.5817 188.218 98.7619 188.276 98.9046 188.368C98.9739 188.404 99.0382 188.462 99.0852 188.526C99.1384 188.597 99.1642 188.683 99.1606 188.778C99.1448 188.865 99.1126 188.948 99.0601 189.012C99.0025 189.089 98.9398 189.153 98.8658 189.207C98.6917 189.348 98.4754 189.408 98.2578 189.379C98.0391 189.34 97.8383 189.224 97.69 189.043C97.6256 188.967 97.5724 188.885 97.5293 188.798C97.4811 188.716 97.4604 188.623 97.4701 188.528C97.4907 188.37 97.6123 188.281 97.7289 188.234C97.8619 188.185 98.0041 188.169 98.1464 188.174L98.1464 188.167ZM110.475 199.125L110.47 199.125C110.276 199.208 110.112 199.239 109.974 199.311C109.832 199.37 109.72 199.488 109.653 199.633C109.564 199.804 109.497 200.11 109.52 200.629C109.578 200.677 109.647 200.711 109.723 200.735C109.951 200.811 110.342 200.862 110.776 200.853C111.639 200.837 112.702 200.61 113.267 200.314C113.726 200.078 114.159 199.759 114.538 199.389C112.651 199.825 111.587 199.718 110.928 199.423C110.769 199.348 110.615 199.248 110.476 199.125L110.475 199.125ZM99.5921 199.317L99.5647 199.317C99.4915 199.323 99.39 199.354 99.1848 199.601C98.7159 200.188 98.554 200.558 98.1694 200.901C97.7797 201.248 97.2774 201.433 96.2671 201.666C95.9503 201.738 95.7647 201.82 95.643 201.885C95.6798 201.92 95.6798 201.933 95.7379 201.961C95.8877 202.054 96.0772 202.13 96.2319 202.175C96.6664 202.29 97.3755 202.428 98.122 202.284C98.8623 202.14 99.6329 201.742 100.291 200.715C100.407 200.539 100.415 200.275 100.319 199.994C100.223 199.72 100.015 199.474 99.8721 199.411C99.7814 199.363 99.6857 199.335 99.5911 199.318L99.5921 199.317Z" fill="url(#paint3_linear_423_35)"/>
<defs>
<linearGradient id="paint0_linear_423_35" x1="102.168" y1="126.47" x2="102.316" y2="158.08" gradientUnits="userSpaceOnUse">
<stop stop-color="#BF16DB" stop-opacity="0.78"/>
<stop offset="1" stop-color="#0076FF" stop-opacity="0.67"/>
</linearGradient>
<linearGradient id="paint1_linear_423_35" x1="34.596" y1="69.0776" x2="34.7421" y2="100.305" gradientUnits="userSpaceOnUse">
<stop stop-color="#16ACDB" stop-opacity="0.78"/>
<stop offset="1" stop-color="#0076FF" stop-opacity="0.67"/>
</linearGradient>
<linearGradient id="paint2_linear_423_35" x1="103.998" y1="67.0713" x2="104.167" y2="103.063" gradientUnits="userSpaceOnUse">
<stop stop-color="#1657FF"/>
<stop offset="1" stop-color="#3183FF"/>
</linearGradient>
<linearGradient id="paint3_linear_423_35" x1="100.779" y1="177.074" x2="100.947" y2="213.073" gradientUnits="userSpaceOnUse">
<stop stop-color="#16A0DB" stop-opacity="0.78"/>
<stop offset="1" stop-color="#0076FF" stop-opacity="0.67"/>
</linearGradient>
</defs>
</svg>
