<svg xmlns="http://www.w3.org/2000/svg" width="393" height="348" fill="none"><g filter="url(#a)"><g clip-path="url(#b)"><path fill="#000" d="M47.147 237.676 362.834 69.892 325.688 0 10 167.784l37.147 69.892Z"/><path fill="#1A4D5D" fill-opacity=".247" d="M47.147 237.676 362.834 69.892 325.688 0 10 167.784l37.147 69.892Z"/><mask id="d" width="353" height="238" x="10" y="0" maskUnits="userSpaceOnUse" style="mask-type:luminance"><path fill="#fff" d="M47.147 237.676 362.834 69.892 325.688 0 10 167.784l37.147 69.892Z"/></mask><g filter="url(#c)" mask="url(#d)"><path fill="#16DB65" d="M45.032 212.749 268.58 93.937l-25.19-47.395L19.842 165.354l25.19 47.395Z"/></g><path fill="gray" d="M47.147 237.676 362.834 69.892 325.688 0 10 167.784l37.147 69.892Z" style="mix-blend-mode:overlay"/></g></g><defs><filter id="a" width="392.835" height="347.676" x="0" y="0" color-interpolation-filters="sRGB" filterUnits="userSpaceOnUse"><feFlood flood-opacity="0" result="BackgroundImageFix"/><feColorMatrix in="SourceAlpha" result="hardAlpha" values="0 0 0 0 0 0 0 0 0 0 0 0 0 0 0 0 0 0 127 0"/><feOffset dx="10" dy="90"/><feGaussianBlur stdDeviation="10"/><feComposite in2="hardAlpha" operator="out"/><feColorMatrix values="0 0 0 0 0.385713 0 0 0 0 0.812028 0 0 0 0 0.428345 0 0 0 0.47 0"/><feBlend in2="BackgroundImageFix" result="effect1_dropShadow_531_396"/><feBlend in="SourceGraphic" in2="effect1_dropShadow_531_396" result="shape"/></filter><filter id="c" width="748.737" height="666.207" x="-230.158" y="-203.458" color-interpolation-filters="sRGB" filterUnits="userSpaceOnUse"><feFlood flood-opacity="0" result="BackgroundImageFix"/><feBlend in="SourceGraphic" in2="BackgroundImageFix" result="shape"/><feGaussianBlur result="effect1_foregroundBlur_531_396" stdDeviation="125"/></filter><clipPath id="b"><rect width="357.506" height="79.15" x="362.835" y="69.892" fill="#fff" rx="39.575" transform="rotate(152.01 362.835 69.892)"/></clipPath></defs></svg>