<svg width="99" height="94" viewBox="0 0 99 94" fill="none" xmlns="http://www.w3.org/2000/svg">
<path d="M81.6545 14.5618C80.0229 14.5694 78.7007 15.9806 78.7088 17.7059C78.7168 19.4311 80.0521 20.8299 81.6837 20.8223C83.3153 20.8146 84.6375 19.4034 84.6294 17.6782C84.6213 15.9529 83.286 14.5541 81.6545 14.5618ZM73.4105 23.9518L72.7563 23.7838C67.8875 22.5035 65.0849 20.312 65.073 17.7642C65.0611 15.2163 67.8441 12.9987 72.6996 11.6729L73.3523 11.4988L73.5391 12.1834C74.0391 13.9744 74.679 15.7197 75.4493 17.4074L75.5908 17.715L75.4522 18.0293C74.6987 19.7175 74.0742 21.4688 73.591 23.2709L73.4105 23.9518ZM72.4053 13.2735C68.7147 14.3876 66.4541 16.0829 66.4619 17.7577C66.4697 19.4325 68.7471 21.1 72.447 22.186C72.8941 20.6583 73.4328 19.1707 74.0629 17.7221C73.4182 16.2795 72.8657 14.797 72.4053 13.2735V13.2735ZM89.9858 23.8743L89.799 23.1896C89.299 21.3987 88.6591 19.6533 87.8889 17.9711L87.7474 17.6581L87.8859 17.3438C88.6394 15.6555 89.2639 13.9043 89.7472 12.1021L89.9276 11.4212L90.5819 11.5893C95.4506 12.8695 98.2532 15.061 98.2651 17.6089C98.277 20.1567 95.494 22.3744 90.6385 23.7001L89.9858 23.8743ZM89.2752 17.6509C89.9472 19.1669 90.505 20.656 90.9329 22.0996C94.6286 20.98 96.8841 19.2902 96.8762 17.6154C96.8684 15.9406 94.591 14.2731 90.8912 13.187C90.444 14.7082 89.9054 16.2024 89.2752 17.6509ZM72.3938 13.2681L72.207 12.5834C70.8161 7.4941 71.2149 3.83654 73.3001 2.55228C75.3469 1.29123 78.644 2.75542 82.1135 6.48702L82.5858 6.99373L82.1183 7.50485C80.8986 8.85854 79.7872 10.3148 78.7893 11.8616L78.6018 12.1422L78.2773 12.1722C76.5116 12.3286 74.7621 12.634 73.0465 13.0884L72.3938 13.2681ZM74.9738 3.5623C74.6014 3.56404 74.2719 3.64565 73.9968 3.81804C72.6285 4.66461 72.3994 7.57883 73.3627 11.5042C74.836 11.1485 76.3254 10.8959 77.8329 10.7463C78.6908 9.43922 79.6362 8.1899 80.6514 7.01375C78.4856 4.80173 76.4373 3.55436 74.9738 3.5612L74.9738 3.5623ZM88.3764 33.2728C88.3712 33.2728 88.3712 33.2728 88.3764 33.2728C86.4046 33.282 83.8632 31.7287 81.2246 28.8849L80.7523 28.3782L81.2198 27.8671C82.4396 26.5134 83.5509 25.0571 84.5488 23.5103L84.7311 23.2298L85.0556 23.1943C86.8214 23.0434 88.5709 22.738 90.2916 22.2781L90.9443 22.1039L91.1311 22.7885C92.522 27.8779 92.1232 31.5299 90.038 32.8131C89.5312 33.1237 88.9594 33.281 88.3764 33.2717L88.3764 33.2728ZM82.6857 28.3582C84.8515 30.5702 86.8998 31.8176 88.3633 31.8108L88.3685 31.8107C88.7357 31.809 89.0652 31.7219 89.3403 31.555C90.7086 30.7085 90.944 27.7942 89.9744 23.8688C88.5011 24.2245 87.0055 24.4772 85.5042 24.6213C84.6463 25.9338 83.7009 27.1777 82.6857 28.3593L82.6857 28.3582ZM90.9026 13.1815L90.2483 13.0079C88.5233 12.5707 86.771 12.2817 85.0039 12.1408L84.6791 12.1138L84.4942 11.8349C83.4819 10.2975 82.3569 8.85172 81.1246 7.50949L80.6523 7.00278L81.1198 6.49167C84.5543 2.72777 87.8375 1.2328 89.8961 2.47464C91.9932 3.73824 92.4262 7.39301 91.083 12.4951L90.9026 13.1815ZM85.4401 10.7107C87.0185 10.8579 88.5216 11.0966 89.9172 11.4268C90.85 7.49252 90.5874 4.5795 89.2112 3.74687C87.8402 2.9197 85.2749 4.21059 82.5869 7.00579C83.613 8.17788 84.5648 9.41284 85.4401 10.7118L85.4401 10.7107ZM75.113 33.3348C74.5291 33.3485 73.9507 33.1977 73.442 32.8918C71.3449 31.6282 70.9119 27.9789 72.2552 22.8779L72.4356 22.1916L73.0898 22.3596C74.6913 22.781 76.4539 23.0689 78.329 23.2268L78.6538 23.2593L78.8387 23.5381C79.8511 25.0755 80.976 26.5214 82.2083 27.8636L82.6806 28.3703L82.2131 28.8814C79.6064 31.7497 77.0797 33.3267 75.113 33.3359L75.113 33.3348ZM73.4219 23.9463C72.4892 27.8805 72.7517 30.7936 74.1279 31.6262C75.4989 32.4424 78.0591 31.1625 80.7523 28.3673C79.7261 27.1952 78.7692 25.9602 77.899 24.6558C76.3912 24.5258 74.8985 24.2871 73.4219 23.9452L73.4219 23.9463ZM81.7025 24.8267C80.5625 24.832 79.3954 24.7859 78.2228 24.6883L77.898 24.6613L77.7079 24.377C77.0445 23.3743 76.4122 22.3441 75.8294 21.284C75.2405 20.2239 74.7012 19.1417 74.1992 18.0352L74.0577 17.7221L74.1963 17.4078C74.6879 16.2977 75.2181 15.2094 75.796 14.1439C76.3637 13.0959 76.9853 12.0478 77.6455 11.0334L77.8329 10.7473L78.1574 10.7173C80.4737 10.5003 82.8023 10.4894 85.1153 10.6848L85.4401 10.7118L85.6302 10.996C86.9632 13.0003 88.1401 15.1259 89.1389 17.3379L89.2804 17.6509L89.1419 17.9653C88.1637 20.1865 87.012 22.323 85.6927 24.3397L85.5052 24.6257L85.1807 24.6557C84.0143 24.7643 82.8424 24.8213 81.7025 24.8267V24.8267ZM78.659 23.2527C80.7021 23.4088 82.6895 23.3995 84.7363 23.2243C85.868 21.4542 86.8747 19.5926 87.7463 17.657C86.8619 15.7307 85.8377 13.8786 84.6791 12.1182C82.6578 11.962 80.6268 11.9715 78.607 12.1466C77.465 13.9167 76.4572 15.7783 75.5918 17.7139C76.4815 19.6401 77.5056 21.4922 78.659 23.2527Z" fill="url(#paint0_linear_505_34)"/>
<path d="M82.2351 93.5912C81.7449 93.5912 81.2588 93.4631 80.8292 93.2154L76.3534 90.5649C75.6845 90.1908 76.0108 90.0584 76.2312 89.9824C77.123 89.6706 77.3032 89.5997 78.2547 89.059C78.3547 89.0018 78.4854 89.0223 78.5879 89.0829L82.0267 91.1235C82.1506 91.191 82.3274 91.191 82.4419 91.1235L95.8497 83.3839C95.9736 83.313 96.0547 83.1695 96.0547 83.0218V67.5502C96.0547 67.3956 95.9744 67.2581 95.8471 67.1812L82.4453 59.4476C82.3214 59.3742 82.1566 59.3742 82.0327 59.4476L68.6325 67.1804C68.5027 67.2538 68.4199 67.3982 68.4199 67.546V83.0183C68.4199 83.1661 68.5001 83.3071 68.6283 83.3771L72.3003 85.498C74.294 86.4948 75.512 85.3203 75.512 84.139V68.8691C75.512 68.6513 75.6828 68.483 75.9015 68.483H77.5996C77.8114 68.483 77.9857 68.6504 77.9857 68.8691V84.1467C77.9857 86.8049 76.5361 88.3321 74.0155 88.3321C73.2399 88.3321 72.6292 88.3321 70.9243 87.4933L67.4068 85.4664C66.5373 84.9624 66 84.022 66 83.0192V67.5468C66 66.5398 66.5373 65.6002 67.406 65.1031L80.8283 57.36C81.6774 56.88 82.8049 56.88 83.6479 57.36L97.0532 65.1065C97.9176 65.6062 98.4583 66.5432 98.4583 67.5502V83.0226C98.4583 84.0263 97.9176 84.9624 97.0524 85.4664L83.6471 93.2086C83.2174 93.4571 82.7306 93.5844 82.2343 93.5844" fill="#21A366"/>
<path d="M86.377 82.9296C80.5106 82.9296 79.2806 80.2365 79.2806 77.978C79.2806 77.7636 79.454 77.592 79.6692 77.592H81.4015C81.5928 77.592 81.7542 77.7312 81.7841 77.92C82.0455 79.6847 82.8245 80.5747 86.3719 80.5747C89.1975 80.5747 90.3993 79.9366 90.3993 78.4376C90.3993 77.5749 90.0567 76.9342 85.6672 76.5046C81.9951 76.1424 79.7265 75.3335 79.7265 72.3969C79.7265 69.6918 82.0088 68.0808 85.8312 68.0808C90.1242 68.0808 92.252 69.5713 92.5202 72.7727C92.5304 72.8838 92.4903 72.9906 92.416 73.0717C92.3425 73.1486 92.2383 73.1956 92.1307 73.1956H90.389C90.2079 73.1956 90.0499 73.0683 90.0132 72.8932C89.5938 71.0371 88.5799 70.4434 85.8243 70.4434C82.74 70.4434 82.3812 71.5171 82.3812 72.3226C82.3812 73.2989 82.804 73.5842 86.9655 74.1351C91.0869 74.6818 93.0438 75.454 93.0438 78.3505C93.0438 81.27 90.6068 82.945 86.3582 82.945" fill="#21A366"/>
<path d="M3 58L5.80414 89.806L18.4286 94L31.053 89.806L33.8571 58H3ZM28.1601 64.4286L27.7744 68.2291L18.4851 72.1981H27.4453L26.4167 83.9791L18.5263 86.2857L10.587 83.9393L10.0727 78.0006H14.0019L14.259 81.0786L18.4851 82.147L22.881 80.9101L23.178 75.9601L9.79886 75.9203L9.50957 72.1994L19.0406 68.2304H9.165L8.69829 64.4299L28.1601 64.4286Z" fill="url(#paint1_linear_505_34)"/>
<path d="M0 0H36V36H0V0ZM33.0525 27.4163C32.7892 25.7693 31.716 24.3923 28.5469 23.1041C27.4455 22.5889 26.2148 22.2255 25.8514 21.393C25.7164 20.9003 25.6928 20.6314 25.7805 20.3377C26.0089 19.3646 27.1519 19.0777 28.0541 19.3477C28.6403 19.5289 29.1791 19.9744 29.5189 20.6955C31.0714 19.6819 31.0714 19.6819 32.1502 19.008C31.7464 18.3814 31.5473 18.1057 31.2716 17.8425C30.3278 16.7816 29.0689 16.2427 27.0236 16.29L25.9627 16.425C24.9491 16.6714 23.9828 17.2103 23.3966 17.9314C21.6911 19.8653 22.1839 23.2402 24.2516 24.6409C26.2969 26.1697 29.2905 26.5039 29.6775 27.9461C30.0352 29.7045 28.3714 30.267 26.7244 30.0611C25.5116 29.7911 24.8378 29.1825 24.093 28.0575L21.3503 29.6336C21.6608 30.3547 22.0241 30.6652 22.563 31.2975C25.1707 33.9289 31.698 33.7939 32.8691 29.7911C32.9096 29.6561 33.2269 28.7303 32.9805 27.3184L33.0525 27.4163ZM19.5761 16.5465H16.2068C16.2068 19.4524 16.1888 22.3414 16.1888 25.254C16.1888 27.1001 16.2821 28.7989 15.984 29.3209C15.4856 30.3525 14.2144 30.2231 13.6339 30.042C13.0421 29.7495 12.7373 29.3445 12.3919 28.7584C12.2918 28.5997 12.222 28.4659 12.1984 28.4659L9.46238 30.1534C9.91913 31.0972 10.5874 31.9117 11.4491 32.427C12.7328 33.1942 14.4551 33.4406 16.2596 33.0367C17.4319 32.697 18.4455 31.9995 18.972 30.9218C19.7393 29.5268 19.575 27.8167 19.5694 25.8997C19.5874 22.8172 19.5694 19.7359 19.5694 16.6297L19.5761 16.5465Z" fill="url(#paint2_linear_505_34)"/>
<defs>
<linearGradient id="paint0_linear_505_34" x1="81.596" y1="2.07764" x2="81.7421" y2="33.3049" gradientUnits="userSpaceOnUse">
<stop stop-color="#16ACDB" stop-opacity="0.78"/>
<stop offset="1" stop-color="#0076FF" stop-opacity="0.67"/>
</linearGradient>
<linearGradient id="paint1_linear_505_34" x1="18.4286" y1="58" x2="18.4286" y2="94" gradientUnits="userSpaceOnUse">
<stop stop-color="#167CDB" stop-opacity="0.78"/>
<stop offset="1" stop-color="#00B2FF" stop-opacity="0.67"/>
</linearGradient>
<linearGradient id="paint2_linear_505_34" x1="18" y1="0" x2="18" y2="36" gradientUnits="userSpaceOnUse">
<stop stop-color="#FFD643"/>
<stop offset="1" stop-color="#FF9900" stop-opacity="0.67"/>
</linearGradient>
</defs>
</svg>
