<svg width="36" height="36" viewBox="0 0 36 36" fill="none" xmlns="http://www.w3.org/2000/svg">
<g clip-path="url(#clip0_706_21)">
<path d="M27.5625 0H8.4375C3.7776 0 0 3.7776 0 8.4375V27.5625C0 32.2224 3.7776 36 8.4375 36H27.5625C32.2224 36 36 32.2224 36 27.5625V8.4375C36 3.7776 32.2224 0 27.5625 0Z" fill="#5A45FE"/>
<path fill-rule="evenodd" clip-rule="evenodd" d="M6.55552 22.5969L12.5803 8.90395C13.5976 6.59573 15.5537 5.34375 18.0183 5.34375C20.4829 5.34375 22.4391 6.59573 23.4564 8.90395L29.4813 22.5969C29.7551 23.262 29.9898 24.1227 29.9898 24.866C29.9898 28.2697 27.6033 30.6562 24.1996 30.6562C23.0404 30.6562 22.1193 30.3604 21.1875 30.0608C20.2326 29.754 19.2658 29.4434 18.0183 29.4434C16.7853 29.4434 15.7942 29.7571 14.8203 30.0652C13.8786 30.3632 12.9524 30.6562 11.837 30.6562C8.43342 30.6562 6.04688 28.2697 6.04688 24.866C6.04688 24.1227 6.28172 23.262 6.55552 22.5969ZM18.0184 11.2906L12.0718 24.7486C13.8324 23.9269 15.8667 23.5357 18.0184 23.5357C20.0919 23.5357 22.2045 23.9269 23.8868 24.7486L18.0184 11.2904V11.2906Z" fill="white"/>
</g>
<defs>
<clipPath id="clip0_706_21">
<rect width="36" height="36" fill="white"/>
</clipPath>
</defs>
</svg>
