<svg width="39" height="28" viewBox="0 0 39 28" fill="none" xmlns="http://www.w3.org/2000/svg">
<path d="M37.7671 10.6539C36.8987 10.0494 34.9086 9.82272 33.3528 10.125C33.1721 8.61372 32.3398 7.29152 30.8925 6.12029L30.0604 5.51579L29.4813 6.38476C28.7578 7.5182 28.396 9.10503 28.5044 10.6163C28.5406 11.1451 28.7215 12.0896 29.2642 12.9208C28.7578 13.2231 27.7085 13.6009 26.3336 13.6009H0.173945L0.101639 13.9031C-0.151733 15.4142 -0.151733 20.1368 2.81522 23.7636C5.05851 26.5215 8.38729 27.9194 12.7653 27.9194C22.2449 27.9194 29.2642 23.3479 32.5569 15.0742C33.8594 15.112 36.6455 15.0742 38.0566 12.2406C38.0928 12.165 38.1651 12.0139 38.4183 11.4473L38.5631 11.1451L37.7671 10.6539ZM21.0871 0H17.1072V3.77799H21.0871V0ZM21.0871 4.53362H17.1072V8.31161H21.0871V4.53347V4.53362ZM16.3834 4.53362H12.4036V8.31161H16.3834V4.53347V4.53362ZM11.6798 4.53362H7.69978V8.31161H11.6798V4.53347V4.53362ZM6.97612 9.06724H2.99613V12.8452H6.97597V9.06709L6.97612 9.06724ZM11.6798 9.06724H7.69978V12.8452H11.6798V9.06724ZM16.3834 9.06724H12.4036V12.8452H16.3834V9.06724ZM21.0872 9.06724H17.1071V12.8452H21.0872V9.06724ZM25.7909 9.06724H21.8107V12.8452H25.7909V9.06724Z" fill="url(#paint0_linear_508_4)"/>
<defs>
<linearGradient id="paint0_linear_508_4" x1="19.2815" y1="0" x2="19.2815" y2="27.9194" gradientUnits="userSpaceOnUse">
<stop offset="0.506672" stop-color="#3082E2"/>
<stop offset="1" stop-color="#1B83D1" stop-opacity="0.54"/>
</linearGradient>
</defs>
</svg>
