<svg width="36" height="36" viewBox="0 0 36 36" fill="none" xmlns="http://www.w3.org/2000/svg">
<path fill-rule="evenodd" clip-rule="evenodd" d="M9.88312 7.72316C9.58512 7.72222 9.28825 7.76003 9 7.83566V7.87504H9.04275C9.2492 8.18668 9.47938 8.48193 9.73125 8.75816C9.9045 9.10241 10.0552 9.44554 10.2274 9.78979L10.2701 9.74591C10.4299 9.61905 10.555 9.45379 10.6337 9.26552C10.7124 9.07726 10.7421 8.87214 10.7201 8.66929C10.6259 8.52401 10.5395 8.3738 10.4614 8.21929C10.332 8.00441 10.0519 7.89641 9.87975 7.72429" fill="#5D87A1"/>
<path fill-rule="evenodd" clip-rule="evenodd" d="M31.2525 26.4972C29.8334 26.3976 28.4094 26.6032 27.0765 27.1002C26.7536 27.2296 26.2384 27.2296 26.1934 27.638C26.3666 27.8101 26.3869 28.088 26.5387 28.3276C26.8334 28.8265 27.2121 29.2707 27.6581 29.6405C28.1081 29.9847 28.5581 30.3279 29.0362 30.6294C29.8744 31.148 30.8228 31.4484 31.6395 31.9647C32.1143 32.2662 32.5868 32.6532 33.0615 32.9772C33.2978 33.1494 33.4474 33.4272 33.7489 33.5397V33.4745C33.6603 33.2354 33.5507 33.0046 33.4215 32.7849C33.2066 32.5711 32.9906 32.3765 32.7746 32.1616C32.1436 31.3272 31.3886 30.5942 30.5359 29.9881C29.8463 29.5134 28.3388 28.8631 28.0609 28.0756L28.017 28.0317C28.5216 27.9602 29.0189 27.8443 29.5031 27.6852C30.2344 27.4917 30.9015 27.5356 31.6541 27.3477C31.9995 27.2611 32.6239 27.0462 32.6239 27.0462V26.7087C32.2391 26.3262 31.9635 25.8144 31.5585 25.4532C30.4567 24.4914 29.2825 23.6158 28.0463 22.8342C27.3859 22.4079 26.5343 22.1334 25.8311 21.77C25.5769 21.6417 25.1561 21.5787 25.002 21.365C24.6523 20.852 24.3596 20.3023 24.129 19.7259C23.4996 18.5141 22.9175 17.2783 22.3841 16.0212C22.0698 15.1919 21.7073 14.3817 21.2985 13.5946C19.3256 10.2404 16.4779 7.48565 13.0601 5.62512C12.1977 5.20769 11.2809 4.91381 10.3365 4.75212C9.80325 4.72962 9.27225 4.68799 8.74012 4.66774C8.39662 4.4427 8.06989 4.19305 7.7625 3.92074C6.54525 3.15012 3.41775 1.49412 2.52225 3.68674C1.9485 5.07162 3.375 6.43287 3.86437 7.13599C4.27702 7.63176 4.64059 8.16639 4.95 8.73237C5.09962 9.09462 5.14237 9.47824 5.2875 9.85737C5.59978 10.8306 5.97058 11.7841 6.39787 12.7126C6.62641 13.1715 6.88967 13.6123 7.18537 14.0311C7.3575 14.2662 7.6545 14.3686 7.71862 14.7567C7.48269 15.2639 7.31765 15.801 7.22812 16.3531C6.85625 17.5275 6.71939 18.7636 6.82536 19.9909C6.93134 21.2182 7.27807 22.4126 7.84575 23.5059C8.18325 24.038 8.9955 25.2091 10.0811 24.7614C11.0385 24.3789 10.8259 23.165 11.1026 22.1019C11.1656 21.8442 11.124 21.6755 11.2511 21.5056V21.7126C11.2511 21.7126 11.7945 22.9062 12.0645 23.5126C12.7988 24.6252 13.7109 25.6096 14.7645 26.4264C15.1812 26.7902 15.517 27.2375 15.75 27.7392V28.1251H16.2304C16.2204 27.9511 16.1721 27.7815 16.0891 27.6283C16.0061 27.475 15.8903 27.342 15.75 27.2386C15.3561 26.8332 14.9953 26.3968 14.6711 25.9336C13.7905 24.6795 13.0139 23.3554 12.3491 21.9747C12.0116 21.2997 11.727 20.5595 11.457 19.8856C11.3332 19.6257 11.3332 19.2331 11.1251 19.0981C10.7408 19.5528 10.4073 20.0481 10.1306 20.5752C9.79469 21.6407 9.59917 22.7454 9.549 23.8614C9.46687 23.8839 9.50737 23.8614 9.46687 23.9041C8.80425 23.7297 8.57587 23.0131 8.32612 22.4056C7.68095 20.532 7.61586 18.5073 8.13937 16.5961C8.28337 16.1405 8.90775 14.705 8.658 14.2696C8.53312 13.8545 8.118 13.6171 7.89075 13.2897C7.60064 12.8493 7.35099 12.3836 7.14487 11.8981C6.651 10.6876 6.40125 9.33762 5.8635 8.11812C5.56582 7.53161 5.21922 6.97125 4.82737 6.44299C4.39393 5.9153 4.01159 5.34762 3.6855 4.74762C3.582 4.50799 3.43687 4.11649 3.60225 3.85549C3.61341 3.78299 3.64789 3.7161 3.70046 3.66495C3.75304 3.6138 3.82084 3.58116 3.89362 3.57199C4.16137 3.33349 4.92975 3.63724 5.19862 3.76774C5.92127 4.05223 6.60961 4.41715 7.25062 4.85562C7.54087 5.07387 8.22487 5.62624 8.22487 5.62624H8.42737C9.11587 5.77587 9.88987 5.66787 10.5379 5.86249C11.6289 6.2262 12.6702 6.72508 13.6372 7.34749C16.4876 9.16454 18.8049 11.7054 20.3524 14.7106C20.6111 15.2045 20.7202 15.6579 20.9565 16.1731C21.4065 17.2306 21.969 18.3106 22.419 19.3389C22.816 20.3562 23.3294 21.3241 23.949 22.2234C24.2708 22.6734 25.5634 22.9119 26.145 23.1481C26.6501 23.3229 27.1458 23.5238 27.63 23.75C28.3624 24.2 29.0925 24.7186 29.7821 25.2125C30.1252 25.4712 31.2019 26.009 31.2671 26.4399" fill="#00758F"/>
</svg>
