<svg width="36" height="36" viewBox="0 0 36 36" fill="none" xmlns="http://www.w3.org/2000/svg">
<g clip-path="url(#clip0_706_16)">
<path d="M27.5625 0H8.4375C3.7776 0 0 3.7776 0 8.4375V27.5625C0 32.2224 3.7776 36 8.4375 36H27.5625C32.2224 36 36 32.2224 36 27.5625V8.4375C36 3.7776 32.2224 0 27.5625 0Z" fill="#242938"/>
<path d="M20.6336 2.53125C20.4148 2.53125 20.2116 2.57934 20.024 2.64361C20.4227 2.91628 20.6415 3.27727 20.7509 3.68634C20.7588 3.74245 20.7744 3.78253 20.7821 3.83864C20.79 3.88688 20.7979 3.93497 20.7979 3.98306C20.8291 4.689 20.618 4.77717 20.4695 5.19427C20.2428 5.73173 20.3054 6.30914 20.5789 6.77447C20.6024 6.83058 20.6336 6.8947 20.6727 6.95095C20.3757 4.92159 22.025 4.61672 22.3298 3.98306C22.3532 3.42956 21.9077 3.06056 21.556 2.80392C21.2199 2.59537 20.915 2.53125 20.6336 2.53125ZM23.1193 2.98842C23.088 3.17292 23.1114 3.12483 23.1037 3.22102C23.0958 3.28528 23.0958 3.36544 23.088 3.42956C23.0734 3.49476 23.0551 3.55909 23.0333 3.62222C23.0176 3.68634 22.9942 3.75047 22.9708 3.81459C22.9395 3.87886 22.9161 3.93497 22.8847 3.99909C22.8614 4.03116 22.8457 4.06322 22.8223 4.09542L22.7753 4.16756C22.7362 4.22381 22.6972 4.27992 22.6581 4.32787C22.6112 4.37611 22.5721 4.43222 22.5174 4.4723V4.48045C22.4705 4.52053 22.4236 4.56862 22.3689 4.6087C22.2048 4.73709 22.0172 4.83328 21.8452 4.95366C21.7905 4.99373 21.7358 5.0258 21.6889 5.07389C21.6342 5.11411 21.5873 5.15405 21.5404 5.20228C21.4857 5.25038 21.4466 5.29847 21.3997 5.35472C21.3607 5.40281 21.3137 5.45892 21.2825 5.51503C21.2434 5.57128 21.2043 5.62753 21.1731 5.6835C21.1417 5.74777 21.1184 5.80388 21.087 5.868C21.0637 5.93227 21.0402 5.98838 21.0246 6.0525C21.0011 6.12478 20.9855 6.18891 20.9699 6.25303C20.962 6.28509 20.962 6.32531 20.9541 6.35738C20.9464 6.38944 20.9464 6.4215 20.9385 6.45356C20.9385 6.51769 20.9308 6.58997 20.9308 6.65409C20.9308 6.70219 20.9308 6.75042 20.9385 6.79852C20.9385 6.86264 20.9464 6.92677 20.962 6.99905C20.9699 7.06317 20.9855 7.1273 21.0011 7.19156C21.0246 7.25569 21.0402 7.31981 21.0637 7.38408C21.0793 7.42416 21.1028 7.46423 21.1184 7.4963L19.3206 6.78248C19.0204 6.6948 18.7181 6.61457 18.4139 6.54187L17.9214 6.4215C17.4512 6.32525 16.9764 6.25297 16.4988 6.20494C16.4832 6.20494 16.4755 6.19692 16.4597 6.19692C15.9949 6.14885 15.5279 6.12472 15.0607 6.12464C14.7167 6.12464 14.3729 6.14067 14.0368 6.16486C13.56 6.19692 13.0832 6.26105 12.6063 6.34134C12.489 6.35738 12.3719 6.38142 12.2546 6.40547C12.0123 6.45356 11.7779 6.50967 11.5511 6.56578L11.1995 6.66211C11.0821 6.7102 10.9727 6.76645 10.8634 6.81455L10.6054 6.93478C10.5898 6.9428 10.5742 6.9428 10.5663 6.95081C10.4881 6.99103 10.4178 7.02309 10.3475 7.06317C10.3286 7.06971 10.3102 7.07775 10.2926 7.08722C10.2068 7.1273 10.1208 7.17539 10.0505 7.21561C9.99563 7.23952 9.94092 7.27172 9.89409 7.29577C9.87061 7.3118 9.83925 7.32783 9.82378 7.33584C9.75347 7.37606 9.68316 7.416 9.62044 7.45622C9.55013 7.4963 9.48769 7.53638 9.43284 7.57645C9.37814 7.61667 9.32344 7.64873 9.27661 7.68881C9.26873 7.69683 9.261 7.69683 9.25313 7.70484C9.2063 7.73691 9.15159 7.77698 9.10463 7.8172L9.08902 7.83323L8.97173 7.92942C8.95627 7.93744 8.94052 7.95347 8.92491 7.96148C8.88581 7.99355 8.84672 8.03377 8.80762 8.06583C8.79975 8.08186 8.78414 8.08973 8.77641 8.09789C8.72944 8.14598 8.68261 8.18606 8.63578 8.2343C8.62777 8.2343 8.62777 8.24231 8.62003 8.25033C8.57306 8.29041 8.52623 8.3385 8.47941 8.38673C8.47153 8.39461 8.47153 8.40263 8.46366 8.40263C8.42456 8.4427 8.38561 8.48278 8.34652 8.53102C8.33091 8.54705 8.30742 8.56308 8.29167 8.57911C8.25272 8.6272 8.20589 8.67544 8.15892 8.72353C8.15105 8.73956 8.13544 8.74758 8.12756 8.76361C8.06512 8.82773 8.01028 8.892 7.94784 8.95612L7.92436 8.98017C7.7992 9.11658 7.66645 9.25298 7.52569 9.37322C7.38506 9.50161 7.23656 9.62184 7.08806 9.72619C6.93665 9.83513 6.78014 9.93682 6.61908 10.0309C6.45973 10.1206 6.29529 10.201 6.12661 10.2715C5.9605 10.344 5.79094 10.4083 5.61853 10.4642C5.29031 10.5363 4.95422 10.6726 4.66509 10.6966C4.60237 10.6966 4.53206 10.7127 4.46962 10.7208C4.39931 10.7369 4.33673 10.7529 4.27416 10.7689C4.21158 10.7928 4.149 10.817 4.08656 10.8411C4.02398 10.8651 3.96141 10.8973 3.89897 10.9294C3.84413 10.9695 3.78169 11.0015 3.72698 11.0416C3.67131 11.0828 3.61906 11.1284 3.57075 11.178C3.51591 11.2181 3.4612 11.2742 3.41438 11.3223C3.36741 11.3785 3.32058 11.4266 3.28148 11.4827C3.24239 11.547 3.19556 11.6031 3.1642 11.6672C3.12511 11.7235 3.08602 11.7876 3.0548 11.8517C3.02358 11.9239 2.99222 11.9881 2.96887 12.0603C2.94539 12.1244 2.92191 12.1967 2.89856 12.2688C2.88281 12.333 2.8672 12.3972 2.85947 12.4613C2.85947 12.4694 2.85159 12.4774 2.85159 12.4854C2.83598 12.5577 2.83598 12.6539 2.82811 12.702C2.82023 12.7582 2.8125 12.8063 2.8125 12.8624C2.8125 12.8945 2.8125 12.9345 2.82037 12.9668C2.82811 13.0229 2.83584 13.071 2.85159 13.119C2.8672 13.1673 2.88295 13.2154 2.90644 13.2635V13.2715C2.92978 13.3196 2.961 13.3677 2.99222 13.4159C3.02358 13.464 3.0548 13.5121 3.09389 13.5602C3.13298 13.6004 3.17995 13.6485 3.22678 13.6886C3.27252 13.7355 3.3222 13.7785 3.37528 13.817C3.56288 13.9853 3.60984 14.0415 3.852 14.1698C3.89123 14.194 3.93019 14.21 3.97716 14.2341C3.98503 14.2341 3.99277 14.2421 4.00064 14.2421C4.00064 14.2581 4.00064 14.2661 4.00837 14.2822C4.01625 14.3463 4.03186 14.4105 4.04747 14.4747C4.06308 14.5468 4.08656 14.6111 4.11005 14.6672C4.13353 14.7153 4.14914 14.7634 4.17263 14.8116C4.18036 14.8276 4.18809 14.8437 4.19597 14.8517C4.22733 14.9158 4.25855 14.9719 4.28977 15.0282L4.40705 15.1966C4.44614 15.2447 4.49311 15.3008 4.53994 15.3489C4.58691 15.3972 4.63373 15.4372 4.68844 15.4853C4.68844 15.4853 4.69631 15.4934 4.70405 15.4934C4.75102 15.5334 4.79784 15.5737 4.84467 15.6057C4.89952 15.6458 4.95422 15.6779 5.0168 15.7099C5.07429 15.744 5.13438 15.7736 5.19652 15.7982C5.24334 15.8223 5.29805 15.8383 5.35289 15.8543C5.36062 15.8624 5.36836 15.8624 5.38411 15.8704C5.41533 15.8784 5.45442 15.8864 5.48578 15.8944C5.4623 16.3275 5.45442 16.7366 5.517 16.881C5.58731 17.0415 5.93128 16.5521 6.27525 15.9906C6.22828 16.5441 6.19706 17.1938 6.27525 17.3863C6.36103 17.5868 6.83016 16.9612 7.23656 16.2714C12.7783 14.9559 17.8355 18.8864 18.367 24.437C18.2654 23.5706 17.2259 23.0894 16.749 23.2097C16.5146 23.8032 16.1159 24.5652 15.4749 25.0384C15.5298 24.5091 15.5063 23.9636 15.3969 23.4343C15.2249 24.1722 14.8888 24.8621 14.4276 25.4555C13.6851 25.5118 12.9426 25.1428 12.5516 24.5893C12.5204 24.5652 12.5127 24.5171 12.4892 24.4851C12.4657 24.4288 12.4422 24.3727 12.4266 24.3166C12.4038 24.2627 12.3881 24.2061 12.3798 24.1481C12.3719 24.092 12.3719 24.0359 12.3719 23.9716V23.8514C12.3798 23.7952 12.3954 23.739 12.411 23.6829C12.4265 23.6268 12.4422 23.5706 12.4657 23.5145C12.4969 23.4584 12.5204 23.4023 12.5595 23.346C12.6924 22.961 12.6924 22.6482 12.4501 22.4637C12.4033 22.4323 12.3535 22.4055 12.3016 22.3836C12.2702 22.3754 12.2313 22.3594 12.1999 22.3514C12.1764 22.3433 12.1608 22.3353 12.1375 22.3273C12.0826 22.3113 12.0279 22.2952 11.9732 22.2872C11.92 22.2714 11.8647 22.2633 11.8091 22.2632C11.7522 22.2539 11.6948 22.2485 11.6371 22.2472C11.598 22.2472 11.559 22.2552 11.5199 22.2552C11.4574 22.2552 11.4027 22.2632 11.348 22.2792C11.2932 22.2872 11.2385 22.2952 11.1838 22.3113C11.1291 22.3273 11.0744 22.3435 11.0197 22.3675C10.965 22.3916 10.9181 22.4156 10.8634 22.4397C10.8165 22.4637 10.7695 22.4958 10.7148 22.5198C8.89369 23.739 9.98016 26.5946 11.2229 27.4207C10.7539 27.5091 10.2772 27.6133 10.1443 27.7176L10.1287 27.7336C10.4648 27.9422 10.8165 28.1187 11.1839 28.271C11.6025 28.4103 12.0247 28.5387 12.4501 28.656V28.664C13.0972 28.8003 13.7597 28.8489 14.4198 28.8084C17.8824 28.5598 20.7197 25.8567 21.2356 22.2952C21.2513 22.3675 21.2669 22.4317 21.2825 22.5038C21.306 22.6482 21.3372 22.8007 21.3529 22.953V22.9611C21.3685 23.0333 21.3763 23.1054 21.3841 23.1697V23.2017C21.392 23.2739 21.3997 23.3461 21.3997 23.4103C21.4076 23.4984 21.4154 23.5868 21.4154 23.6749V23.8033C21.4154 23.8434 21.4232 23.8915 21.4232 23.9316C21.4232 23.9798 21.4154 24.0279 21.4154 24.076V24.1883C21.4154 24.2445 21.4076 24.2925 21.4076 24.3488C21.4076 24.3809 21.4076 24.4129 21.3997 24.453C21.3997 24.5091 21.3919 24.5654 21.3919 24.6295C21.384 24.6535 21.384 24.6776 21.384 24.7016C21.3763 24.7659 21.3684 24.822 21.3607 24.8861C21.3607 24.9102 21.3607 24.9342 21.3528 24.9584C21.3449 25.0386 21.3293 25.1107 21.3216 25.191V25.207C21.306 25.2792 21.2902 25.3595 21.2746 25.4316V25.4557L21.2278 25.6722C21.2278 25.6802 21.2199 25.6963 21.2199 25.7043C21.2054 25.7774 21.1871 25.8497 21.1652 25.921V25.945C21.1417 26.0252 21.1182 26.0973 21.1026 26.1696C21.0949 26.1776 21.0949 26.1856 21.0949 26.1856L21.0244 26.4263C20.9932 26.5064 20.9697 26.5787 20.9385 26.6588C20.9073 26.739 20.8838 26.8193 20.8526 26.8914C20.8212 26.9717 20.79 27.0439 20.7588 27.124H20.7509C20.7195 27.1963 20.6883 27.2765 20.6492 27.3486C20.6429 27.3679 20.635 27.3867 20.6257 27.4049C20.618 27.4129 20.618 27.4209 20.6101 27.4289C20.1021 28.4797 19.3518 29.402 18.4139 30.124C18.3513 30.1641 18.2887 30.2122 18.2263 30.2604C18.2107 30.2763 18.1872 30.2844 18.1716 30.3005C18.1167 30.3405 18.062 30.3806 17.9996 30.4207L18.0229 30.4689H18.0308L18.3592 30.4207H18.3669C18.5701 30.3886 18.7734 30.3486 18.9766 30.3085C19.0348 30.2989 19.0922 30.2855 19.1486 30.2684C19.1876 30.2603 19.2189 30.2524 19.258 30.2442C19.3127 30.2362 19.3674 30.2202 19.4221 30.2122C19.469 30.1961 19.5159 30.1881 19.5628 30.1721C20.3445 29.9796 21.1026 29.7149 21.8295 29.402C20.5868 31.1427 18.9219 32.5464 16.9757 33.4688C17.8746 33.4046 18.7734 33.2522 19.641 32.9955C22.791 32.041 25.4408 29.8672 27.0274 26.9395C26.7069 28.7924 25.9878 30.5571 24.9248 32.0971C25.6843 31.5827 26.3843 30.9855 27.0118 30.3165C28.7626 28.4396 29.9116 26.0572 30.3024 23.4986C30.5692 24.7689 30.6456 26.0718 30.5291 27.3646C36.1725 19.2874 30.9981 10.9133 28.833 8.70764C28.8252 8.69161 28.8174 8.68345 28.8174 8.66742C28.8096 8.67558 28.8096 8.67558 28.8096 8.68345C28.8096 8.67544 28.8096 8.67544 28.8017 8.66742C28.8017 8.76375 28.7938 8.86008 28.7861 8.95627C28.7644 9.13599 28.7384 9.31516 28.7079 9.49359C28.6688 9.67008 28.622 9.84656 28.575 10.023C28.5194 10.1966 28.4569 10.3678 28.3874 10.5363C28.3156 10.7024 28.2374 10.8657 28.153 11.0257C28.0669 11.1781 27.9731 11.3385 27.8716 11.4829C27.7711 11.6319 27.6642 11.7764 27.5511 11.916C27.4338 12.0604 27.3088 12.1888 27.1838 12.3171C27.1056 12.3893 27.0352 12.4535 26.9571 12.5176C26.8945 12.5738 26.8398 12.6219 26.7773 12.6779C26.6366 12.7904 26.4959 12.8945 26.3396 12.9908C26.1911 13.0871 26.0347 13.1835 25.8784 13.2636C25.7158 13.3418 25.5517 13.4167 25.386 13.4882C25.2196 13.5527 25.05 13.6089 24.878 13.6567C24.7052 13.7043 24.5305 13.7444 24.3543 13.7769C24.1744 13.8091 23.9947 13.8251 23.8227 13.8412C23.6977 13.8492 23.5725 13.8572 23.4475 13.8572C23.2678 13.8572 23.088 13.8412 22.916 13.825C22.7362 13.809 22.5565 13.7849 22.3845 13.7448C22.2047 13.7128 22.0328 13.6647 21.8609 13.6084H21.853C22.025 13.5924 22.197 13.5764 22.3689 13.5443C22.5453 13.5127 22.7201 13.4725 22.8926 13.4239C23.0646 13.3762 23.2341 13.32 23.4006 13.2555C23.5725 13.1913 23.7367 13.1112 23.893 13.0309C24.0571 12.9507 24.2056 12.8625 24.362 12.7662C24.5105 12.662 24.659 12.5577 24.7998 12.4455C24.94 12.3335 25.0731 12.213 25.1983 12.0845C25.3312 11.9641 25.4485 11.8278 25.5658 11.6914C25.6801 11.5509 25.7896 11.4064 25.894 11.2583C25.9096 11.2343 25.9253 11.202 25.941 11.1781C26.0194 11.0515 26.095 10.923 26.1676 10.793C26.2536 10.6338 26.3319 10.4705 26.4021 10.3037C26.4727 10.1357 26.5353 9.96444 26.5897 9.79045C26.6444 9.62198 26.6835 9.4455 26.7225 9.26902C26.7539 9.08452 26.7851 8.90803 26.8007 8.73169C26.8163 8.54719 26.832 8.36269 26.832 8.18606C26.832 8.05781 26.8242 7.92956 26.8163 7.80117C26.8007 7.61667 26.7773 7.44019 26.7539 7.2637C26.723 7.08289 26.6839 6.9036 26.6366 6.72638C26.5819 6.55791 26.5272 6.38142 26.4646 6.21309C26.4021 6.04448 26.324 5.87616 26.2458 5.7157C26.1598 5.55539 26.0738 5.3948 25.98 5.2425C25.8803 5.09227 25.7761 4.94511 25.6674 4.80122C25.5502 4.66481 25.4329 4.52855 25.3079 4.39214C25.2453 4.32802 25.175 4.25573 25.1047 4.19175C24.7549 3.91302 24.3923 3.65071 24.0182 3.40566C23.9678 3.37568 23.9156 3.34891 23.8618 3.3255C23.6039 3.15689 23.3616 3.06872 23.1193 2.98856V2.98842Z" fill="#E0234E"/>
</g>
<defs>
<clipPath id="clip0_706_16">
<rect width="36" height="36" fill="white"/>
</clipPath>
</defs>
</svg>
