<svg width="390" height="98" viewBox="0 0 390 98" fill="none" xmlns="http://www.w3.org/2000/svg">
<g filter="url(#filter0_d_713_19)">
<rect x="7" y="0.0180664" width="376" height="82.804" rx="41.402" fill="#1D1E18"/>
<rect x="7.25" y="0.268066" width="375.5" height="82.304" rx="41.152" stroke="url(#paint0_linear_713_19)" stroke-width="0.5"/>
</g>
<g filter="url(#filter1_dd_713_19)">
<path d="M141.608 47.804L137.576 37.794C137.436 37.4673 137.301 37.0753 137.17 36.618C137.114 36.842 137.053 37.0567 136.988 37.262C136.923 37.458 136.853 37.64 136.778 37.808L132.746 47.804H141.608ZM145.99 55H144.884C144.753 55 144.646 54.9673 144.562 54.902C144.478 54.8273 144.413 54.734 144.366 54.622L142.042 48.868H132.312L129.988 54.622C129.951 54.7247 129.885 54.8133 129.792 54.888C129.699 54.9627 129.587 55 129.456 55H128.364L136.47 35.19H137.884L145.99 55ZM154.398 45.872C155.266 45.872 156.045 45.7507 156.736 45.508C157.426 45.2653 158.01 44.9293 158.486 44.5C158.971 44.0707 159.34 43.5667 159.592 42.988C159.853 42.4 159.984 41.7607 159.984 41.07C159.984 39.5487 159.517 38.3773 158.584 37.556C157.65 36.7347 156.255 36.324 154.398 36.324H150.716V45.872H154.398ZM154.398 35.19C156.722 35.19 158.472 35.6987 159.648 36.716C160.833 37.7333 161.426 39.1847 161.426 41.07C161.426 41.938 161.262 42.736 160.936 43.464C160.609 44.192 160.142 44.822 159.536 45.354C158.929 45.8767 158.192 46.2873 157.324 46.586C156.456 46.8753 155.48 47.02 154.398 47.02H150.716V55H149.274V35.19H154.398ZM176.283 53.782V55H165.461V35.19H166.903V53.782H176.283ZM181.067 55H179.625V35.19H181.067V55ZM201.22 51.668C201.313 51.668 201.393 51.7007 201.458 51.766L202.018 52.368C201.607 52.8067 201.159 53.2033 200.674 53.558C200.198 53.9033 199.671 54.202 199.092 54.454C198.523 54.6967 197.893 54.8833 197.202 55.014C196.521 55.154 195.769 55.224 194.948 55.224C193.576 55.224 192.316 54.986 191.168 54.51C190.029 54.0247 189.049 53.3433 188.228 52.466C187.407 51.5793 186.767 50.5107 186.31 49.26C185.862 48.0093 185.638 46.6187 185.638 45.088C185.638 43.5853 185.871 42.2133 186.338 40.972C186.805 39.7307 187.458 38.6667 188.298 37.78C189.138 36.884 190.146 36.1933 191.322 35.708C192.498 35.2133 193.795 34.966 195.214 34.966C196.567 34.966 197.767 35.176 198.812 35.596C199.857 36.016 200.809 36.6087 201.668 37.374L201.234 38.004C201.159 38.116 201.043 38.172 200.884 38.172C200.772 38.172 200.59 38.0693 200.338 37.864C200.086 37.6587 199.736 37.4347 199.288 37.192C198.84 36.94 198.28 36.7113 197.608 36.506C196.945 36.3007 196.147 36.198 195.214 36.198C194.019 36.198 192.923 36.4033 191.924 36.814C190.935 37.2247 190.081 37.8127 189.362 38.578C188.653 39.3433 188.097 40.2767 187.696 41.378C187.295 42.4793 187.094 43.716 187.094 45.088C187.094 46.488 187.295 47.7387 187.696 48.84C188.107 49.9413 188.667 50.8747 189.376 51.64C190.085 52.396 190.921 52.9793 191.882 53.39C192.853 53.7913 193.898 53.992 195.018 53.992C195.727 53.992 196.357 53.9453 196.908 53.852C197.468 53.7587 197.981 53.6187 198.448 53.432C198.915 53.2453 199.349 53.0167 199.75 52.746C200.151 52.4753 200.548 52.158 200.94 51.794C200.987 51.7567 201.033 51.7287 201.08 51.71C201.127 51.682 201.173 51.668 201.22 51.668ZM216.53 47.804L212.498 37.794C212.358 37.4673 212.223 37.0753 212.092 36.618C212.036 36.842 211.975 37.0567 211.91 37.262C211.845 37.458 211.775 37.64 211.7 37.808L207.668 47.804H216.53ZM220.912 55H219.806C219.675 55 219.568 54.9673 219.484 54.902C219.4 54.8273 219.335 54.734 219.288 54.622L216.964 48.868H207.234L204.91 54.622C204.873 54.7247 204.807 54.8133 204.714 54.888C204.621 54.9627 204.509 55 204.378 55H203.286L211.392 35.19H212.806L220.912 55ZM235.107 36.408H228.149V55H226.707V36.408H219.707V35.19H235.107V36.408ZM239.884 55H238.442V35.19H239.884V55ZM260.806 35.19L252.63 55H251.356L243.18 35.19H244.314C244.445 35.19 244.552 35.2273 244.636 35.302C244.72 35.3673 244.786 35.456 244.832 35.568L251.58 52.004C251.655 52.2093 251.73 52.4287 251.804 52.662C251.879 52.8953 251.949 53.1333 252.014 53.376C252.07 53.1333 252.131 52.8953 252.196 52.662C252.262 52.4287 252.336 52.2093 252.42 52.004L259.154 35.568C259.192 35.4653 259.257 35.3767 259.35 35.302C259.444 35.2273 259.556 35.19 259.686 35.19H260.806ZM281.251 45.088C281.251 46.6187 281.022 48.0093 280.565 49.26C280.107 50.5013 279.463 51.5653 278.633 52.452C277.802 53.3293 276.803 54.0107 275.637 54.496C274.479 54.972 273.201 55.21 271.801 55.21C270.401 55.21 269.122 54.972 267.965 54.496C266.807 54.0107 265.813 53.3293 264.983 52.452C264.152 51.5653 263.508 50.5013 263.051 49.26C262.593 48.0093 262.365 46.6187 262.365 45.088C262.365 43.5667 262.593 42.1853 263.051 40.944C263.508 39.6933 264.152 38.6293 264.983 37.752C265.813 36.8653 266.807 36.1793 267.965 35.694C269.122 35.2087 270.401 34.966 271.801 34.966C273.201 34.966 274.479 35.2087 275.637 35.694C276.803 36.17 277.802 36.8513 278.633 37.738C279.463 38.6247 280.107 39.6933 280.565 40.944C281.022 42.1853 281.251 43.5667 281.251 45.088ZM279.767 45.088C279.767 43.7067 279.575 42.4653 279.193 41.364C278.81 40.2627 278.269 39.3293 277.569 38.564C276.869 37.7987 276.029 37.2153 275.049 36.814C274.069 36.4033 272.986 36.198 271.801 36.198C270.625 36.198 269.547 36.4033 268.567 36.814C267.587 37.2153 266.742 37.7987 266.033 38.564C265.333 39.3293 264.787 40.2627 264.395 41.364C264.012 42.4653 263.821 43.7067 263.821 45.088C263.821 46.4787 264.012 47.7247 264.395 48.826C264.787 49.918 265.333 50.8467 266.033 51.612C266.742 52.3773 267.587 52.9607 268.567 53.362C269.547 53.7633 270.625 53.964 271.801 53.964C272.986 53.964 274.069 53.7633 275.049 53.362C276.029 52.9607 276.869 52.3773 277.569 51.612C278.269 50.8467 278.81 49.918 279.193 48.826C279.575 47.7247 279.767 46.4787 279.767 45.088ZM295.419 37.598C295.335 37.7567 295.214 37.836 295.055 37.836C294.934 37.836 294.775 37.752 294.579 37.584C294.392 37.4067 294.136 37.2153 293.809 37.01C293.482 36.7953 293.072 36.5993 292.577 36.422C292.092 36.2447 291.49 36.156 290.771 36.156C290.052 36.156 289.418 36.2587 288.867 36.464C288.326 36.6693 287.868 36.9493 287.495 37.304C287.131 37.6587 286.851 38.0693 286.655 38.536C286.468 39.0027 286.375 39.4927 286.375 40.006C286.375 40.678 286.515 41.2333 286.795 41.672C287.084 42.1107 287.462 42.484 287.929 42.792C288.396 43.1 288.923 43.3613 289.511 43.576C290.108 43.7813 290.72 43.9867 291.345 44.192C291.97 44.3973 292.577 44.626 293.165 44.878C293.762 45.1207 294.294 45.4287 294.761 45.802C295.228 46.1753 295.601 46.6373 295.881 47.188C296.17 47.7293 296.315 48.406 296.315 49.218C296.315 50.0487 296.17 50.8327 295.881 51.57C295.601 52.298 295.19 52.9327 294.649 53.474C294.108 54.0153 293.445 54.4447 292.661 54.762C291.877 55.07 290.981 55.224 289.973 55.224C288.666 55.224 287.542 54.9953 286.599 54.538C285.656 54.0713 284.83 53.4367 284.121 52.634L284.513 52.018C284.625 51.878 284.756 51.808 284.905 51.808C284.989 51.808 285.096 51.864 285.227 51.976C285.358 52.088 285.516 52.228 285.703 52.396C285.89 52.5547 286.114 52.732 286.375 52.928C286.636 53.1147 286.94 53.292 287.285 53.46C287.63 53.6187 288.027 53.754 288.475 53.866C288.923 53.978 289.432 54.034 290.001 54.034C290.785 54.034 291.485 53.9173 292.101 53.684C292.717 53.4413 293.235 53.1147 293.655 52.704C294.084 52.2933 294.411 51.808 294.635 51.248C294.859 50.6787 294.971 50.072 294.971 49.428C294.971 48.728 294.826 48.154 294.537 47.706C294.257 47.2487 293.884 46.8707 293.417 46.572C292.95 46.264 292.418 46.0073 291.821 45.802C291.233 45.5967 290.626 45.396 290.001 45.2C289.376 45.004 288.764 44.7847 288.167 44.542C287.579 44.2993 287.052 43.9913 286.585 43.618C286.118 43.2353 285.74 42.764 285.451 42.204C285.171 41.6347 285.031 40.9253 285.031 40.076C285.031 39.4133 285.157 38.774 285.409 38.158C285.661 37.542 286.03 37.0007 286.515 36.534C287 36.058 287.598 35.68 288.307 35.4C289.026 35.1107 289.842 34.966 290.757 34.966C291.784 34.966 292.703 35.1293 293.515 35.456C294.336 35.7827 295.083 36.282 295.755 36.954L295.419 37.598Z" fill="white"/>
</g>
<path d="M76.454 17.543H52.5558C49.9161 17.543 47.7762 19.6828 47.7762 22.3225V60.5588C47.7762 63.1985 49.9161 65.3384 52.5558 65.3384H76.454C79.0937 65.3384 81.2337 63.1985 81.2337 60.5588V22.3225C81.2337 19.6828 79.0937 17.543 76.454 17.543Z" stroke="#0CD28B" stroke-linecap="round" stroke-linejoin="round"/>
<path d="M64.5049 55.7793H64.5257" stroke="#0CD28B" stroke-width="2" stroke-linecap="round" stroke-linejoin="round"/>
<defs>
<filter id="filter0_d_713_19" x="0" y="0.0180664" width="390" height="97.804" filterUnits="userSpaceOnUse" color-interpolation-filters="sRGB">
<feFlood flood-opacity="0" result="BackgroundImageFix"/>
<feColorMatrix in="SourceAlpha" type="matrix" values="0 0 0 0 0 0 0 0 0 0 0 0 0 0 0 0 0 0 127 0" result="hardAlpha"/>
<feMorphology radius="1" operator="dilate" in="SourceAlpha" result="effect1_dropShadow_713_19"/>
<feOffset dy="8"/>
<feGaussianBlur stdDeviation="3"/>
<feComposite in2="hardAlpha" operator="out"/>
<feColorMatrix type="matrix" values="0 0 0 0 0 0 0 0 0 0 0 0 0 0 0 0 0 0 0.79 0"/>
<feBlend mode="normal" in2="BackgroundImageFix" result="effect1_dropShadow_713_19"/>
<feBlend mode="normal" in="SourceGraphic" in2="effect1_dropShadow_713_19" result="shape"/>
</filter>
<filter id="filter1_dd_713_19" x="122.319" y="28.9211" width="180.041" height="32.3481" filterUnits="userSpaceOnUse" color-interpolation-filters="sRGB">
<feFlood flood-opacity="0" result="BackgroundImageFix"/>
<feColorMatrix in="SourceAlpha" type="matrix" values="0 0 0 0 0 0 0 0 0 0 0 0 0 0 0 0 0 0 127 0" result="hardAlpha"/>
<feOffset/>
<feGaussianBlur stdDeviation="1.51125"/>
<feColorMatrix type="matrix" values="0 0 0 0 0.262745 0 0 0 0 0.694118 0 0 0 0 0.541176 0 0 0 0.3 0"/>
<feBlend mode="normal" in2="BackgroundImageFix" result="effect1_dropShadow_713_19"/>
<feColorMatrix in="SourceAlpha" type="matrix" values="0 0 0 0 0 0 0 0 0 0 0 0 0 0 0 0 0 0 127 0" result="hardAlpha"/>
<feOffset/>
<feGaussianBlur stdDeviation="3.0225"/>
<feColorMatrix type="matrix" values="0 0 0 0 0.262745 0 0 0 0 0.694118 0 0 0 0 0.541176 0 0 0 1 0"/>
<feBlend mode="normal" in2="effect1_dropShadow_713_19" result="effect2_dropShadow_713_19"/>
<feBlend mode="normal" in="SourceGraphic" in2="effect2_dropShadow_713_19" result="shape"/>
</filter>
<linearGradient id="paint0_linear_713_19" x1="195" y1="0.0180664" x2="195" y2="82.8221" gradientUnits="userSpaceOnUse">
<stop stop-color="#30D95F"/>
<stop offset="1" stop-color="#2976C6"/>
</linearGradient>
</defs>
</svg>
