<svg width="390" height="98" viewBox="0 0 390 98" fill="none" xmlns="http://www.w3.org/2000/svg">
<g filter="url(#filter0_d_638_6)">
<rect x="7" y="0.0179443" width="376" height="82.804" rx="41.402" fill="#1D1E18"/>
<rect x="7.25" y="0.267944" width="375.5" height="82.304" rx="41.152" stroke="url(#paint0_linear_638_6)" stroke-width="0.5"/>
</g>
<path d="M152.15 46.575L148.55 37.6375C148.425 37.3458 148.304 36.9958 148.188 36.5875C148.138 36.7875 148.083 36.9792 148.025 37.1625C147.967 37.3375 147.904 37.5 147.838 37.65L144.238 46.575H152.15ZM156.063 53H155.075C154.958 53 154.863 52.9708 154.788 52.9125C154.713 52.8458 154.654 52.7625 154.613 52.6625L152.538 47.525H143.85L141.775 52.6625C141.742 52.7542 141.683 52.8333 141.6 52.9C141.517 52.9667 141.417 53 141.3 53H140.325L147.563 35.3125H148.825L156.063 53ZM163.569 44.85C164.344 44.85 165.04 44.7417 165.657 44.525C166.274 44.3083 166.794 44.0083 167.219 43.625C167.653 43.2417 167.982 42.7917 168.207 42.275C168.44 41.75 168.557 41.1792 168.557 40.5625C168.557 39.2042 168.14 38.1583 167.307 37.425C166.474 36.6917 165.228 36.325 163.569 36.325H160.282V44.85H163.569ZM163.569 35.3125C165.644 35.3125 167.207 35.7667 168.257 36.675C169.315 37.5833 169.844 38.8792 169.844 40.5625C169.844 41.3375 169.699 42.05 169.407 42.7C169.115 43.35 168.699 43.9125 168.157 44.3875C167.615 44.8542 166.957 45.2208 166.182 45.4875C165.407 45.7458 164.536 45.875 163.569 45.875H160.282V53H158.994V35.3125H163.569ZM183.11 51.9125V53H173.447V35.3125H174.735V51.9125H183.11ZM187.381 53H186.094V35.3125H187.381V53ZM205.375 50.025C205.458 50.025 205.529 50.0542 205.588 50.1125L206.088 50.65C205.721 51.0417 205.321 51.3958 204.888 51.7125C204.463 52.0208 203.992 52.2875 203.475 52.5125C202.967 52.7292 202.404 52.8958 201.788 53.0125C201.179 53.1375 200.508 53.2 199.775 53.2C198.55 53.2 197.425 52.9875 196.4 52.5625C195.383 52.1292 194.508 51.5208 193.775 50.7375C193.042 49.9458 192.471 48.9917 192.063 47.875C191.663 46.7583 191.463 45.5167 191.463 44.15C191.463 42.8083 191.671 41.5833 192.088 40.475C192.504 39.3667 193.088 38.4167 193.838 37.625C194.588 36.825 195.488 36.2083 196.538 35.775C197.588 35.3333 198.746 35.1125 200.013 35.1125C201.221 35.1125 202.292 35.3 203.225 35.675C204.158 36.05 205.008 36.5792 205.775 37.2625L205.388 37.825C205.321 37.925 205.217 37.975 205.075 37.975C204.975 37.975 204.813 37.8833 204.588 37.7C204.363 37.5167 204.05 37.3167 203.65 37.1C203.25 36.875 202.75 36.6708 202.15 36.4875C201.558 36.3042 200.846 36.2125 200.013 36.2125C198.946 36.2125 197.967 36.3958 197.075 36.7625C196.192 37.1292 195.429 37.6542 194.788 38.3375C194.154 39.0208 193.658 39.8542 193.3 40.8375C192.942 41.8208 192.763 42.925 192.763 44.15C192.763 45.4 192.942 46.5167 193.3 47.5C193.667 48.4833 194.167 49.3167 194.8 50C195.433 50.675 196.179 51.1958 197.038 51.5625C197.904 51.9208 198.838 52.1 199.838 52.1C200.471 52.1 201.033 52.0583 201.525 51.975C202.025 51.8917 202.483 51.7667 202.9 51.6C203.317 51.4333 203.704 51.2292 204.062 50.9875C204.421 50.7458 204.775 50.4625 205.125 50.1375C205.167 50.1042 205.208 50.0792 205.25 50.0625C205.292 50.0375 205.333 50.025 205.375 50.025ZM219.045 46.575L215.445 37.6375C215.32 37.3458 215.199 36.9958 215.082 36.5875C215.032 36.7875 214.978 36.9792 214.92 37.1625C214.861 37.3375 214.799 37.5 214.732 37.65L211.132 46.575H219.045ZM222.957 53H221.97C221.853 53 221.757 52.9708 221.682 52.9125C221.607 52.8458 221.549 52.7625 221.507 52.6625L219.432 47.525H210.745L208.67 52.6625C208.636 52.7542 208.578 52.8333 208.495 52.9C208.411 52.9667 208.311 53 208.195 53H207.22L214.457 35.3125H215.72L222.957 53ZM235.631 36.4H229.419V53H228.131V36.4H221.881V35.3125H235.631V36.4ZM239.896 53H238.609V35.3125H239.896V53ZM258.577 35.3125L251.277 53H250.14L242.84 35.3125H243.852C243.969 35.3125 244.065 35.3458 244.14 35.4125C244.215 35.4708 244.273 35.55 244.315 35.65L250.34 50.325C250.406 50.5083 250.473 50.7042 250.54 50.9125C250.606 51.1208 250.669 51.3333 250.727 51.55C250.777 51.3333 250.831 51.1208 250.89 50.9125C250.948 50.7042 251.015 50.5083 251.09 50.325L257.102 35.65C257.135 35.5583 257.194 35.4792 257.277 35.4125C257.36 35.3458 257.46 35.3125 257.577 35.3125H258.577ZM276.831 44.15C276.831 45.5167 276.627 46.7583 276.218 47.875C275.81 48.9833 275.235 49.9333 274.493 50.725C273.752 51.5083 272.86 52.1167 271.818 52.55C270.785 52.975 269.643 53.1875 268.393 53.1875C267.143 53.1875 266.002 52.975 264.968 52.55C263.935 52.1167 263.048 51.5083 262.306 50.725C261.564 49.9333 260.989 48.9833 260.581 47.875C260.173 46.7583 259.968 45.5167 259.968 44.15C259.968 42.7917 260.173 41.5583 260.581 40.45C260.989 39.3333 261.564 38.3833 262.306 37.6C263.048 36.8083 263.935 36.1958 264.968 35.7625C266.002 35.3292 267.143 35.1125 268.393 35.1125C269.643 35.1125 270.785 35.3292 271.818 35.7625C272.86 36.1875 273.752 36.7958 274.493 37.5875C275.235 38.3792 275.81 39.3333 276.218 40.45C276.627 41.5583 276.831 42.7917 276.831 44.15ZM275.506 44.15C275.506 42.9167 275.335 41.8083 274.993 40.825C274.652 39.8417 274.168 39.0083 273.543 38.325C272.918 37.6417 272.168 37.1208 271.293 36.7625C270.418 36.3958 269.452 36.2125 268.393 36.2125C267.343 36.2125 266.381 36.3958 265.506 36.7625C264.631 37.1208 263.877 37.6417 263.243 38.325C262.618 39.0083 262.131 39.8417 261.781 40.825C261.439 41.8083 261.268 42.9167 261.268 44.15C261.268 45.3917 261.439 46.5042 261.781 47.4875C262.131 48.4625 262.618 49.2917 263.243 49.975C263.877 50.6583 264.631 51.1792 265.506 51.5375C266.381 51.8958 267.343 52.075 268.393 52.075C269.452 52.075 270.418 51.8958 271.293 51.5375C272.168 51.1792 272.918 50.6583 273.543 49.975C274.168 49.2917 274.652 48.4625 274.993 47.4875C275.335 46.5042 275.506 45.3917 275.506 44.15ZM289.481 37.4625C289.406 37.6042 289.298 37.675 289.156 37.675C289.048 37.675 288.906 37.6 288.731 37.45C288.565 37.2917 288.335 37.1208 288.044 36.9375C287.752 36.7458 287.385 36.5708 286.944 36.4125C286.51 36.2542 285.973 36.175 285.331 36.175C284.69 36.175 284.123 36.2667 283.631 36.45C283.148 36.6333 282.74 36.8833 282.406 37.2C282.081 37.5167 281.831 37.8833 281.656 38.3C281.49 38.7167 281.406 39.1542 281.406 39.6125C281.406 40.2125 281.531 40.7083 281.781 41.1C282.04 41.4917 282.377 41.825 282.794 42.1C283.21 42.375 283.681 42.6083 284.206 42.8C284.74 42.9833 285.285 43.1667 285.844 43.35C286.402 43.5333 286.944 43.7375 287.469 43.9625C288.002 44.1792 288.477 44.4542 288.894 44.7875C289.31 45.1208 289.644 45.5333 289.894 46.025C290.152 46.5083 290.281 47.1125 290.281 47.8375C290.281 48.5792 290.152 49.2792 289.894 49.9375C289.644 50.5875 289.277 51.1542 288.794 51.6375C288.31 52.1208 287.719 52.5042 287.019 52.7875C286.319 53.0625 285.519 53.2 284.619 53.2C283.452 53.2 282.448 52.9958 281.606 52.5875C280.765 52.1708 280.027 51.6042 279.394 50.8875L279.744 50.3375C279.844 50.2125 279.96 50.15 280.094 50.15C280.169 50.15 280.265 50.2 280.381 50.3C280.498 50.4 280.64 50.525 280.806 50.675C280.973 50.8167 281.173 50.975 281.406 51.15C281.64 51.3167 281.91 51.475 282.219 51.625C282.527 51.7667 282.881 51.8875 283.281 51.9875C283.681 52.0875 284.135 52.1375 284.644 52.1375C285.344 52.1375 285.969 52.0333 286.519 51.825C287.069 51.6083 287.531 51.3167 287.906 50.95C288.29 50.5833 288.581 50.15 288.781 49.65C288.981 49.1417 289.081 48.6 289.081 48.025C289.081 47.4 288.952 46.8875 288.694 46.4875C288.444 46.0792 288.11 45.7417 287.694 45.475C287.277 45.2 286.802 44.9708 286.269 44.7875C285.744 44.6042 285.202 44.425 284.644 44.25C284.085 44.075 283.54 43.8792 283.006 43.6625C282.481 43.4458 282.01 43.1708 281.594 42.8375C281.177 42.4958 280.84 42.075 280.581 41.575C280.331 41.0667 280.206 40.4333 280.206 39.675C280.206 39.0833 280.319 38.5125 280.544 37.9625C280.769 37.4125 281.098 36.9292 281.531 36.5125C281.965 36.0875 282.498 35.75 283.131 35.5C283.773 35.2417 284.502 35.1125 285.319 35.1125C286.235 35.1125 287.056 35.2583 287.781 35.55C288.515 35.8417 289.181 36.2875 289.781 36.8875L289.481 37.4625Z" fill="white"/>
<path d="M76.454 17.5428H52.5558C49.916 17.5428 47.7761 19.6827 47.7761 22.3224V60.5587C47.7761 63.1984 49.916 65.3383 52.5558 65.3383H76.454C79.0937 65.3383 81.2336 63.1984 81.2336 60.5587V22.3224C81.2336 19.6827 79.0937 17.5428 76.454 17.5428Z" stroke="#0CD28B" stroke-linecap="round" stroke-linejoin="round"/>
<path d="M64.5049 55.7792H64.5256" stroke="#0CD28B" stroke-width="2" stroke-linecap="round" stroke-linejoin="round"/>
<defs>
<filter id="filter0_d_638_6" x="0" y="0.0179443" width="390" height="97.804" filterUnits="userSpaceOnUse" color-interpolation-filters="sRGB">
<feFlood flood-opacity="0" result="BackgroundImageFix"/>
<feColorMatrix in="SourceAlpha" type="matrix" values="0 0 0 0 0 0 0 0 0 0 0 0 0 0 0 0 0 0 127 0" result="hardAlpha"/>
<feMorphology radius="1" operator="dilate" in="SourceAlpha" result="effect1_dropShadow_638_6"/>
<feOffset dy="8"/>
<feGaussianBlur stdDeviation="3"/>
<feComposite in2="hardAlpha" operator="out"/>
<feColorMatrix type="matrix" values="0 0 0 0 0 0 0 0 0 0 0 0 0 0 0 0 0 0 0.79 0"/>
<feBlend mode="normal" in2="BackgroundImageFix" result="effect1_dropShadow_638_6"/>
<feBlend mode="normal" in="SourceGraphic" in2="effect1_dropShadow_638_6" result="shape"/>
</filter>
<linearGradient id="paint0_linear_638_6" x1="195" y1="0.0179443" x2="195" y2="82.822" gradientUnits="userSpaceOnUse">
<stop stop-color="#30D95F"/>
<stop offset="1" stop-color="#2976C6"/>
</linearGradient>
</defs>
</svg>
