<svg width="390" height="98" viewBox="0 0 390 98" fill="none" xmlns="http://www.w3.org/2000/svg">
<g filter="url(#filter0_d_713_18)">
<rect x="7" y="0.0179443" width="376" height="82.804" rx="41.402" fill="#1D1E18"/>
<rect x="7.25" y="0.267944" width="375.5" height="82.304" rx="41.152" stroke="url(#paint0_linear_713_18)" stroke-width="0.5"/>
</g>
<g filter="url(#filter1_dd_713_18)">
<path d="M141.608 48.804L137.576 38.794C137.436 38.4673 137.301 38.0753 137.17 37.618C137.114 37.842 137.053 38.0567 136.988 38.262C136.923 38.458 136.853 38.64 136.778 38.808L132.746 48.804H141.608ZM145.99 56H144.884C144.753 56 144.646 55.9673 144.562 55.902C144.478 55.8273 144.413 55.734 144.366 55.622L142.042 49.868H132.312L129.988 55.622C129.951 55.7247 129.885 55.8133 129.792 55.888C129.699 55.9627 129.587 56 129.456 56H128.364L136.47 36.19H137.884L145.99 56ZM154.398 46.872C155.266 46.872 156.045 46.7507 156.736 46.508C157.426 46.2653 158.01 45.9293 158.486 45.5C158.971 45.0707 159.34 44.5667 159.592 43.988C159.853 43.4 159.984 42.7607 159.984 42.07C159.984 40.5487 159.517 39.3773 158.584 38.556C157.65 37.7347 156.255 37.324 154.398 37.324H150.716V46.872H154.398ZM154.398 36.19C156.722 36.19 158.472 36.6987 159.648 37.716C160.833 38.7333 161.426 40.1847 161.426 42.07C161.426 42.938 161.262 43.736 160.936 44.464C160.609 45.192 160.142 45.822 159.536 46.354C158.929 46.8767 158.192 47.2873 157.324 47.586C156.456 47.8753 155.48 48.02 154.398 48.02H150.716V56H149.274V36.19H154.398ZM176.283 54.782V56H165.461V36.19H166.903V54.782H176.283ZM181.067 56H179.625V36.19H181.067V56ZM201.22 52.668C201.313 52.668 201.393 52.7007 201.458 52.766L202.018 53.368C201.607 53.8067 201.159 54.2033 200.674 54.558C200.198 54.9033 199.671 55.202 199.092 55.454C198.523 55.6967 197.893 55.8833 197.202 56.014C196.521 56.154 195.769 56.224 194.948 56.224C193.576 56.224 192.316 55.986 191.168 55.51C190.029 55.0247 189.049 54.3433 188.228 53.466C187.407 52.5793 186.767 51.5107 186.31 50.26C185.862 49.0093 185.638 47.6187 185.638 46.088C185.638 44.5853 185.871 43.2133 186.338 41.972C186.805 40.7307 187.458 39.6667 188.298 38.78C189.138 37.884 190.146 37.1933 191.322 36.708C192.498 36.2133 193.795 35.966 195.214 35.966C196.567 35.966 197.767 36.176 198.812 36.596C199.857 37.016 200.809 37.6087 201.668 38.374L201.234 39.004C201.159 39.116 201.043 39.172 200.884 39.172C200.772 39.172 200.59 39.0693 200.338 38.864C200.086 38.6587 199.736 38.4347 199.288 38.192C198.84 37.94 198.28 37.7113 197.608 37.506C196.945 37.3007 196.147 37.198 195.214 37.198C194.019 37.198 192.923 37.4033 191.924 37.814C190.935 38.2247 190.081 38.8127 189.362 39.578C188.653 40.3433 188.097 41.2767 187.696 42.378C187.295 43.4793 187.094 44.716 187.094 46.088C187.094 47.488 187.295 48.7387 187.696 49.84C188.107 50.9413 188.667 51.8747 189.376 52.64C190.085 53.396 190.921 53.9793 191.882 54.39C192.853 54.7913 193.898 54.992 195.018 54.992C195.727 54.992 196.357 54.9453 196.908 54.852C197.468 54.7587 197.981 54.6187 198.448 54.432C198.915 54.2453 199.349 54.0167 199.75 53.746C200.151 53.4753 200.548 53.158 200.94 52.794C200.987 52.7567 201.033 52.7287 201.08 52.71C201.127 52.682 201.173 52.668 201.22 52.668ZM216.53 48.804L212.498 38.794C212.358 38.4673 212.223 38.0753 212.092 37.618C212.036 37.842 211.975 38.0567 211.91 38.262C211.845 38.458 211.775 38.64 211.7 38.808L207.668 48.804H216.53ZM220.912 56H219.806C219.675 56 219.568 55.9673 219.484 55.902C219.4 55.8273 219.335 55.734 219.288 55.622L216.964 49.868H207.234L204.91 55.622C204.873 55.7247 204.807 55.8133 204.714 55.888C204.621 55.9627 204.509 56 204.378 56H203.286L211.392 36.19H212.806L220.912 56ZM235.107 37.408H228.149V56H226.707V37.408H219.707V36.19H235.107V37.408ZM239.884 56H238.442V36.19H239.884V56ZM260.806 36.19L252.63 56H251.356L243.18 36.19H244.314C244.445 36.19 244.552 36.2273 244.636 36.302C244.72 36.3673 244.786 36.456 244.832 36.568L251.58 53.004C251.655 53.2093 251.73 53.4287 251.804 53.662C251.879 53.8953 251.949 54.1333 252.014 54.376C252.07 54.1333 252.131 53.8953 252.196 53.662C252.262 53.4287 252.336 53.2093 252.42 53.004L259.154 36.568C259.192 36.4653 259.257 36.3767 259.35 36.302C259.444 36.2273 259.556 36.19 259.686 36.19H260.806ZM281.251 46.088C281.251 47.6187 281.022 49.0093 280.565 50.26C280.107 51.5013 279.463 52.5653 278.633 53.452C277.802 54.3293 276.803 55.0107 275.637 55.496C274.479 55.972 273.201 56.21 271.801 56.21C270.401 56.21 269.122 55.972 267.965 55.496C266.807 55.0107 265.813 54.3293 264.983 53.452C264.152 52.5653 263.508 51.5013 263.051 50.26C262.593 49.0093 262.365 47.6187 262.365 46.088C262.365 44.5667 262.593 43.1853 263.051 41.944C263.508 40.6933 264.152 39.6293 264.983 38.752C265.813 37.8653 266.807 37.1793 267.965 36.694C269.122 36.2087 270.401 35.966 271.801 35.966C273.201 35.966 274.479 36.2087 275.637 36.694C276.803 37.17 277.802 37.8513 278.633 38.738C279.463 39.6247 280.107 40.6933 280.565 41.944C281.022 43.1853 281.251 44.5667 281.251 46.088ZM279.767 46.088C279.767 44.7067 279.575 43.4653 279.193 42.364C278.81 41.2627 278.269 40.3293 277.569 39.564C276.869 38.7987 276.029 38.2153 275.049 37.814C274.069 37.4033 272.986 37.198 271.801 37.198C270.625 37.198 269.547 37.4033 268.567 37.814C267.587 38.2153 266.742 38.7987 266.033 39.564C265.333 40.3293 264.787 41.2627 264.395 42.364C264.012 43.4653 263.821 44.7067 263.821 46.088C263.821 47.4787 264.012 48.7247 264.395 49.826C264.787 50.918 265.333 51.8467 266.033 52.612C266.742 53.3773 267.587 53.9607 268.567 54.362C269.547 54.7633 270.625 54.964 271.801 54.964C272.986 54.964 274.069 54.7633 275.049 54.362C276.029 53.9607 276.869 53.3773 277.569 52.612C278.269 51.8467 278.81 50.918 279.193 49.826C279.575 48.7247 279.767 47.4787 279.767 46.088ZM295.419 38.598C295.335 38.7567 295.214 38.836 295.055 38.836C294.934 38.836 294.775 38.752 294.579 38.584C294.392 38.4067 294.136 38.2153 293.809 38.01C293.482 37.7953 293.072 37.5993 292.577 37.422C292.092 37.2447 291.49 37.156 290.771 37.156C290.052 37.156 289.418 37.2587 288.867 37.464C288.326 37.6693 287.868 37.9493 287.495 38.304C287.131 38.6587 286.851 39.0693 286.655 39.536C286.468 40.0027 286.375 40.4927 286.375 41.006C286.375 41.678 286.515 42.2333 286.795 42.672C287.084 43.1107 287.462 43.484 287.929 43.792C288.396 44.1 288.923 44.3613 289.511 44.576C290.108 44.7813 290.72 44.9867 291.345 45.192C291.97 45.3973 292.577 45.626 293.165 45.878C293.762 46.1207 294.294 46.4287 294.761 46.802C295.228 47.1753 295.601 47.6373 295.881 48.188C296.17 48.7293 296.315 49.406 296.315 50.218C296.315 51.0487 296.17 51.8327 295.881 52.57C295.601 53.298 295.19 53.9327 294.649 54.474C294.108 55.0153 293.445 55.4447 292.661 55.762C291.877 56.07 290.981 56.224 289.973 56.224C288.666 56.224 287.542 55.9953 286.599 55.538C285.656 55.0713 284.83 54.4367 284.121 53.634L284.513 53.018C284.625 52.878 284.756 52.808 284.905 52.808C284.989 52.808 285.096 52.864 285.227 52.976C285.358 53.088 285.516 53.228 285.703 53.396C285.89 53.5547 286.114 53.732 286.375 53.928C286.636 54.1147 286.94 54.292 287.285 54.46C287.63 54.6187 288.027 54.754 288.475 54.866C288.923 54.978 289.432 55.034 290.001 55.034C290.785 55.034 291.485 54.9173 292.101 54.684C292.717 54.4413 293.235 54.1147 293.655 53.704C294.084 53.2933 294.411 52.808 294.635 52.248C294.859 51.6787 294.971 51.072 294.971 50.428C294.971 49.728 294.826 49.154 294.537 48.706C294.257 48.2487 293.884 47.8707 293.417 47.572C292.95 47.264 292.418 47.0073 291.821 46.802C291.233 46.5967 290.626 46.396 290.001 46.2C289.376 46.004 288.764 45.7847 288.167 45.542C287.579 45.2993 287.052 44.9913 286.585 44.618C286.118 44.2353 285.74 43.764 285.451 43.204C285.171 42.6347 285.031 41.9253 285.031 41.076C285.031 40.4133 285.157 39.774 285.409 39.158C285.661 38.542 286.03 38.0007 286.515 37.534C287 37.058 287.598 36.68 288.307 36.4C289.026 36.1107 289.842 35.966 290.757 35.966C291.784 35.966 292.703 36.1293 293.515 36.456C294.336 36.7827 295.083 37.282 295.755 37.954L295.419 38.598Z" fill="white"/>
</g>
<path d="M76.454 17.5428H52.5558C49.916 17.5428 47.7761 19.6827 47.7761 22.3224V60.5587C47.7761 63.1984 49.916 65.3383 52.5558 65.3383H76.454C79.0937 65.3383 81.2336 63.1984 81.2336 60.5587V22.3224C81.2336 19.6827 79.0937 17.5428 76.454 17.5428Z" stroke="#0CD28B" stroke-linecap="round" stroke-linejoin="round"/>
<path d="M64.5049 55.7792H64.5256" stroke="#0CD28B" stroke-width="2" stroke-linecap="round" stroke-linejoin="round"/>
<defs>
<filter id="filter0_d_713_18" x="0" y="0.0179443" width="390" height="97.804" filterUnits="userSpaceOnUse" color-interpolation-filters="sRGB">
<feFlood flood-opacity="0" result="BackgroundImageFix"/>
<feColorMatrix in="SourceAlpha" type="matrix" values="0 0 0 0 0 0 0 0 0 0 0 0 0 0 0 0 0 0 127 0" result="hardAlpha"/>
<feMorphology radius="1" operator="dilate" in="SourceAlpha" result="effect1_dropShadow_713_18"/>
<feOffset dy="8"/>
<feGaussianBlur stdDeviation="3"/>
<feComposite in2="hardAlpha" operator="out"/>
<feColorMatrix type="matrix" values="0 0 0 0 0 0 0 0 0 0 0 0 0 0 0 0 0 0 0.79 0"/>
<feBlend mode="normal" in2="BackgroundImageFix" result="effect1_dropShadow_713_18"/>
<feBlend mode="normal" in="SourceGraphic" in2="effect1_dropShadow_713_18" result="shape"/>
</filter>
<filter id="filter1_dd_713_18" x="122.319" y="29.921" width="180.041" height="32.348" filterUnits="userSpaceOnUse" color-interpolation-filters="sRGB">
<feFlood flood-opacity="0" result="BackgroundImageFix"/>
<feColorMatrix in="SourceAlpha" type="matrix" values="0 0 0 0 0 0 0 0 0 0 0 0 0 0 0 0 0 0 127 0" result="hardAlpha"/>
<feOffset/>
<feGaussianBlur stdDeviation="1.51125"/>
<feColorMatrix type="matrix" values="0 0 0 0 0.278431 0 0 0 0 0.423529 0 0 0 0 1 0 0 0 1 0"/>
<feBlend mode="normal" in2="BackgroundImageFix" result="effect1_dropShadow_713_18"/>
<feColorMatrix in="SourceAlpha" type="matrix" values="0 0 0 0 0 0 0 0 0 0 0 0 0 0 0 0 0 0 127 0" result="hardAlpha"/>
<feOffset/>
<feGaussianBlur stdDeviation="3.0225"/>
<feColorMatrix type="matrix" values="0 0 0 0 0.278431 0 0 0 0 0.423529 0 0 0 0 1 0 0 0 1 0"/>
<feBlend mode="normal" in2="effect1_dropShadow_713_18" result="effect2_dropShadow_713_18"/>
<feBlend mode="normal" in="SourceGraphic" in2="effect2_dropShadow_713_18" result="shape"/>
</filter>
<linearGradient id="paint0_linear_713_18" x1="195" y1="0.0179443" x2="195" y2="82.822" gradientUnits="userSpaceOnUse">
<stop stop-color="#30D95F"/>
<stop offset="1" stop-color="#2976C6"/>
</linearGradient>
</defs>
</svg>
