<svg width="26" height="18" viewBox="0 0 26 18" fill="none" xmlns="http://www.w3.org/2000/svg">
<path fill-rule="evenodd" clip-rule="evenodd" d="M0.138916 2.27826C0.138916 1.17369 1.03435 0.278259 2.13892 0.278259H23.8334C24.9379 0.278259 25.8334 1.17369 25.8334 2.27826V15.7217C25.8334 16.8263 24.9379 17.7217 23.8334 17.7217H2.13892C1.03435 17.7217 0.138916 16.8263 0.138916 15.7217V2.27826Z" fill="#229E45"/>
<path fill-rule="evenodd" clip-rule="evenodd" d="M13.0423 16.1228L25.1468 9.01091L12.9701 1.87726L0.825439 9.02545L13.0423 16.1228Z" fill="#F8E509"/>
<path fill-rule="evenodd" clip-rule="evenodd" d="M18.3177 9C18.3177 11.5547 16.0253 13.6262 13.1949 13.6262C12.1835 13.6247 11.1952 13.3519 10.3551 12.8421C9.5149 12.3323 8.86057 11.6086 8.47479 10.7622C8.08902 9.91592 7.98911 8.98506 8.18769 8.08735C8.38628 7.18964 8.87445 6.36538 9.59049 5.71876C10.3065 5.07215 11.2183 4.63221 12.2105 4.45457C13.2027 4.27693 14.2308 4.36955 15.1649 4.72074C16.099 5.07193 16.8971 5.66591 17.4582 6.42759C18.0194 7.18928 18.3185 8.08447 18.3177 9Z" fill="#2B49A3"/>
<path fill-rule="evenodd" clip-rule="evenodd" d="M11.5127 11.7728L11.3521 11.6892L11.1915 11.7619L11.2277 11.5983L11.0992 11.4748L11.2799 11.4566L11.3682 11.3112L11.4445 11.4639L11.6211 11.4929L11.4886 11.602M14.9413 12.5577L14.7847 12.4741L14.6242 12.5468L14.6563 12.3833L14.5318 12.2634L14.7125 12.2452L14.7968 12.0962L14.8771 12.2488L15.0537 12.2779L14.9172 12.3906M13.4639 11.3003L13.3274 11.2277L13.1869 11.2931L13.219 11.1513L13.1066 11.046L13.2672 11.0314L13.3394 10.9006L13.4037 11.0351L13.5602 11.0605L13.4398 11.1586M16.9326 10.8497L16.7961 10.777L16.6556 10.8425L16.6877 10.7007L16.5793 10.599L16.7359 10.5844L16.8082 10.4572L16.8724 10.5881L17.025 10.6135L16.9086 10.708M13.4037 9.9085L13.2431 9.82855L13.0825 9.90123L13.1146 9.73406L12.9902 9.61414L13.1708 9.59597L13.2551 9.44697L13.3354 9.5996L13.5121 9.62867L13.3756 9.74496M9.17613 8.47304L9.01554 8.3931L8.85495 8.46578L8.8951 8.29861L8.76261 8.17869L8.94729 8.16052L9.02759 8.01152L9.10788 8.16415L9.28453 8.19322L9.15205 8.30588M9.68601 10.3846L9.52542 10.301L9.36483 10.3737L9.40096 10.2101L9.27249 10.0902L9.45315 10.0684L9.53746 9.92303L9.61776 10.0757L9.79441 10.1047L9.66192 10.2174M14.9614 7.77167L14.8169 7.69899L14.6723 7.7644L14.7045 7.61904L14.592 7.51002L14.7526 7.49185L14.8289 7.36102L14.8972 7.49912L15.0578 7.52456L14.9373 7.62268M14.6683 9.01452L14.5599 8.95637L14.4435 9.00725L14.4676 8.89096L14.3793 8.80738L14.5077 8.79284L14.568 8.69109L14.6201 8.80011L14.7406 8.81828L14.6523 8.89823M8.94328 10.7298L8.83488 10.6753L8.72648 10.7225L8.75057 10.6135L8.66626 10.5336L8.7867 10.519L8.84291 10.4209L8.8951 10.5227L9.01554 10.5445L8.9232 10.6171M16.9607 11.1731L16.8724 11.1332L16.7841 11.1695L16.8042 11.0859L16.7359 11.0278L16.8323 11.0169L16.8805 10.9442L16.9206 11.0169L17.021 11.0351L16.9447 11.0896" fill="#FFFFEF"/>
<path fill-rule="evenodd" clip-rule="evenodd" d="M8.94328 10.7298L8.83488 10.6753L8.72648 10.7226L8.75057 10.6135L8.66626 10.5336L8.7867 10.519L8.84291 10.4209L8.8951 10.5227L9.01554 10.5445L8.9232 10.6172" fill="#FFFFEF"/>
<path fill-rule="evenodd" clip-rule="evenodd" d="M8.94328 10.7298L8.83488 10.6753L8.72648 10.7225L8.75057 10.6135L8.66626 10.5336L8.7867 10.519L8.84291 10.4209L8.8951 10.5227L9.01554 10.5445L8.9232 10.6172M10.6214 10.7262L10.5171 10.6753L10.4087 10.7225L10.4328 10.6135L10.3484 10.5336L10.4689 10.519L10.5251 10.4209L10.5773 10.5227L10.6977 10.5408L10.6054 10.6172M10.4127 11.2349L10.3083 11.1804L10.1999 11.2313L10.224 11.1223L10.1397 11.0387L10.2601 11.0242L10.3163 10.9261L10.3685 11.0278L10.489 11.0496L10.3966 11.1223M13.9055 10.3155L13.8011 10.2574L13.6887 10.3083L13.7128 10.1992L13.6325 10.1157L13.753 10.1048L13.8092 10.0066L13.8573 10.1084L13.9778 10.1266L13.8895 10.2029M12.8818 10.3119L12.7734 10.2574L12.665 10.3083L12.689 10.1992L12.6088 10.1157L12.7292 10.1048L12.7854 10.003L12.8336 10.1084L12.954 10.1266L12.8657 10.2029M10.1035 9.9921L10.0353 9.95576L9.96704 9.98483L9.9831 9.91579L9.93091 9.86491L10.0072 9.85764L10.0393 9.79586L10.0714 9.86127L10.1477 9.87218L10.0915 9.91942M16.8283 11.5693L16.7239 11.5148L16.6155 11.5656L16.6396 11.4566L16.5553 11.373L16.6757 11.3585L16.7319 11.2604L16.7841 11.3621L16.9045 11.3839L16.8122 11.4566M15.9771 11.6747L15.8888 11.6238L15.7965 11.6674L15.8165 11.5729L15.7483 11.5075L15.8487 11.4966L15.8968 11.413L15.937 11.5002L16.0374 11.5148L15.9611 11.5802M16.3786 11.6638L16.2983 11.6202L16.214 11.6565L16.2301 11.5729L16.1658 11.5111L16.2582 11.5002L16.3023 11.4276L16.3425 11.5002L16.4348 11.5184L16.3666 11.5765M17.5349 10.748L17.4546 10.7116L17.3743 10.748L17.3943 10.6644L17.3301 10.6026L17.4224 10.5917L17.4626 10.519L17.5027 10.5954L17.587 10.6099L17.5228 10.668M15.9651 12.1871L15.8647 12.1362L15.7563 12.1798L15.7804 12.0781L15.7001 12.0054L15.8206 11.9945L15.8727 11.9036L15.9209 11.9981L16.0414 12.0163L15.949 12.0853M15.9731 12.6014L15.8768 12.5505L15.7804 12.5977L15.8045 12.496L15.7282 12.4233L15.8366 12.4087L15.8848 12.3179L15.929 12.4124L16.0374 12.4306L15.9571 12.5032M15.1943 11.6638L15.118 11.6202L15.0377 11.6565L15.0537 11.5765L14.9935 11.5148L15.0818 11.5075L15.122 11.4348L15.1621 11.5075L15.2505 11.522L15.1862 11.5802M14.4716 11.6638L14.3913 11.6202L14.311 11.6565L14.3311 11.5765L14.2668 11.5148L14.3592 11.5075L14.3993 11.4348L14.4395 11.5075L14.5238 11.522L14.4596 11.5802M13.2391 10.6862L13.1588 10.6462L13.0785 10.6826L13.0986 10.599L13.0343 10.5408L13.1226 10.5299L13.1628 10.4573L13.2029 10.5299L13.2913 10.5481L13.227 10.6026M13.3756 12.674L13.3113 12.6413L13.2391 12.674L13.2551 12.6014L13.2029 12.5505L13.2792 12.5432L13.3153 12.4814L13.3475 12.5468L13.4237 12.5577L13.3675 12.605M11.5127 9.45789L11.3521 9.37431L11.1915 9.44699L11.2277 9.28346L11.0992 9.16354L11.2799 9.14173L11.3682 8.99637L11.4445 9.149L11.6211 9.17807L11.4886 9.29073" fill="#FFFFEF"/>
<path fill-rule="evenodd" clip-rule="evenodd" d="M17.9804 10.6644C18.0799 10.4308 18.1578 10.1901 18.2133 9.94485C15.4913 7.78258 12.4602 6.6742 8.63007 6.90314C8.49116 7.14644 8.37694 7.40066 8.28882 7.66266C12.8255 7.27018 16.1577 9.08721 17.9804 10.6644Z" fill="white"/>
<path d="M16.7601 9.45061L16.8524 9.49785C16.8386 9.52253 16.8344 9.55069 16.8404 9.5778C16.8498 9.6041 16.8699 9.62618 16.8966 9.63958C16.9247 9.65775 16.9528 9.66866 16.9769 9.66502C17.0009 9.66502 17.017 9.65412 17.0291 9.63958C17.0361 9.62994 17.0389 9.6183 17.0371 9.60688C17.0338 9.59345 17.0269 9.58097 17.017 9.57054C17.009 9.55963 16.9889 9.5342 16.9568 9.50512C16.9238 9.47428 16.899 9.43698 16.8845 9.3961C16.8745 9.36516 16.8771 9.332 16.8918 9.30264C16.9066 9.27329 16.9325 9.24971 16.9648 9.2362C16.994 9.22517 17.0263 9.22263 17.0572 9.22893C17.0949 9.2368 17.1304 9.25165 17.1615 9.27254C17.2177 9.30888 17.2539 9.34522 17.2659 9.38883C17.2715 9.40923 17.2722 9.43046 17.268 9.45113C17.2639 9.47179 17.255 9.49143 17.2418 9.50876L17.1455 9.45425C17.1575 9.43244 17.1615 9.41064 17.1535 9.39247C17.1495 9.3743 17.1334 9.35613 17.1053 9.34159C17.0847 9.32658 17.0595 9.31769 17.0331 9.31615C17.0258 9.31593 17.0186 9.3175 17.0122 9.3207C17.0059 9.32391 17.0006 9.32861 16.9969 9.33432C16.9889 9.34522 16.9889 9.35613 16.9929 9.37066C16.9969 9.3852 17.017 9.41427 17.0572 9.45061C17.0973 9.48695 17.1214 9.51966 17.1374 9.54146C17.1518 9.56528 17.1583 9.59232 17.1561 9.61938C17.154 9.64643 17.1433 9.67236 17.1254 9.69409C17.1066 9.7188 17.08 9.7378 17.0491 9.74861C17.019 9.76115 16.9854 9.76496 16.9528 9.75951C16.9166 9.75224 16.8805 9.7377 16.8404 9.71226C16.7801 9.67592 16.744 9.63595 16.732 9.59234C16.7189 9.54289 16.7275 9.49078 16.756 9.44698L16.7601 9.45061ZM16.2944 9.17442L16.3947 9.22167C16.3823 9.24676 16.3795 9.2749 16.3867 9.30162C16.397 9.32656 16.4169 9.34724 16.4429 9.35976C16.475 9.37793 16.4991 9.3852 16.5232 9.38157C16.5473 9.38157 16.5633 9.37066 16.5754 9.35249C16.5815 9.34385 16.5843 9.33364 16.5834 9.32342C16.5834 9.31252 16.5754 9.29798 16.5633 9.28708C16.5428 9.26461 16.5213 9.24279 16.4991 9.22167C16.4549 9.18169 16.4268 9.14899 16.4188 9.11991C16.4122 9.10121 16.4103 9.08144 16.4131 9.06197C16.4158 9.04251 16.4233 9.02384 16.4349 9.00726C16.4501 8.98483 16.4725 8.9671 16.4991 8.95638C16.5267 8.94487 16.5574 8.94107 16.5874 8.94548C16.6246 8.95114 16.6601 8.9635 16.6918 8.98182C16.752 9.01816 16.7882 9.0545 16.8002 9.09447C16.8075 9.1149 16.8099 9.13652 16.8071 9.15784C16.8043 9.17917 16.7965 9.1997 16.7842 9.21803L16.6838 9.16716C16.6958 9.14172 16.6998 9.12355 16.6918 9.10538C16.6838 9.08721 16.6677 9.06904 16.6396 9.0545C16.6174 9.04007 16.5907 9.03243 16.5633 9.0327C16.5567 9.0331 16.5504 9.03497 16.5448 9.03814C16.5392 9.04131 16.5345 9.04568 16.5312 9.05087C16.5232 9.06177 16.5232 9.07267 16.5272 9.08721C16.5312 9.10174 16.5553 9.13082 16.5955 9.16716C16.6356 9.2035 16.6637 9.23257 16.6758 9.25437C16.6918 9.27716 16.7004 9.30364 16.7004 9.33069C16.7004 9.35773 16.6918 9.38421 16.6758 9.407C16.6585 9.43235 16.6333 9.45257 16.6035 9.46515C16.5734 9.4777 16.5397 9.4815 16.5071 9.47605C16.4658 9.46973 16.4263 9.45615 16.3907 9.43608C16.3388 9.41103 16.2988 9.36967 16.2783 9.31979C16.2628 9.27127 16.2685 9.2192 16.2944 9.17442ZM15.7243 9.03633L16.0173 8.60024L16.3706 8.80012L16.3225 8.8728L16.0655 8.72743L16.0013 8.82555L16.2422 8.96001L16.19 9.0327L15.9491 8.89824L15.8688 9.01816L16.1378 9.16352L16.0896 9.2362L15.7283 9.03633H15.7243ZM14.8932 8.41854L14.9374 8.34586L15.1542 8.44398L15.0538 8.62568C15.0217 8.63295 14.9815 8.63658 14.9333 8.63295C14.8871 8.62833 14.8422 8.61601 14.8009 8.59661C14.7523 8.57518 14.7108 8.54261 14.6804 8.50212C14.6528 8.46451 14.6388 8.42007 14.6403 8.37493C14.6423 8.32795 14.656 8.28199 14.6804 8.24047C14.7045 8.19677 14.7404 8.15927 14.7848 8.13145C14.8272 8.10489 14.8777 8.09092 14.9293 8.09147C14.9695 8.09147 15.0096 8.10238 15.0578 8.12782C15.122 8.15325 15.1622 8.18959 15.1823 8.22957C15.2031 8.26925 15.2074 8.31444 15.1943 8.35676L15.0859 8.32769C15.0925 8.30335 15.0897 8.27768 15.0779 8.25501C15.0658 8.2332 15.0458 8.21867 15.0136 8.20413C14.9949 8.19446 14.9742 8.18849 14.9527 8.18661C14.9313 8.18473 14.9096 8.18698 14.8892 8.19323C14.849 8.20413 14.8129 8.23684 14.7848 8.28771C14.7567 8.33859 14.7447 8.38583 14.7567 8.42581C14.7622 8.44477 14.7723 8.4624 14.7862 8.47746C14.8 8.49253 14.8174 8.50467 14.837 8.51303C14.8571 8.52393 14.8812 8.5312 14.9052 8.5312C14.9292 8.53448 14.9536 8.53448 14.9775 8.5312L15.0096 8.47305L14.8932 8.41854ZM11.2719 7.60814L11.3522 7.09938L11.5208 7.12481L11.565 7.48095L11.7215 7.15389L11.8902 7.17569L11.8099 7.67719L11.7015 7.66266L11.7697 7.26654L11.5931 7.64812L11.4847 7.63358L11.4405 7.22293L11.3763 7.62268L11.2719 7.60814ZM10.7058 7.54637L10.758 7.0376L11.1715 7.07394L11.1635 7.16116L10.8624 7.13572L10.8503 7.24474L11.1314 7.27018L11.1193 7.35739L10.8383 7.33196L10.8263 7.47005L11.1394 7.49549L11.1314 7.58271L10.7058 7.54637Z" fill="#309E3A"/>
<path d="M8.83091 7.23022C8.83091 7.17571 8.84296 7.13573 8.85901 7.09939C8.87309 7.07355 8.89212 7.05017 8.91522 7.03035C8.93581 7.01155 8.9604 6.99671 8.98749 6.98674C9.02763 6.97584 9.06778 6.96857 9.10793 6.96857C9.19224 6.96857 9.25648 6.99764 9.30867 7.04125C9.33351 7.06903 9.35199 7.10101 9.36302 7.13533C9.37405 7.16965 9.37741 7.20561 9.3729 7.24112C9.3729 7.32107 9.3448 7.38648 9.29261 7.43373C9.26579 7.45617 9.23406 7.47326 9.19948 7.4839C9.16491 7.49454 9.12824 7.4985 9.09187 7.49551C9.05599 7.49583 9.0204 7.48956 8.98728 7.47707C8.95415 7.46457 8.92417 7.44612 8.89916 7.42282C8.8492 7.3693 8.82467 7.30006 8.83091 7.23022Z" fill="#309E3A"/>
<path d="M8.94727 7.2302C8.94727 7.28471 8.95931 7.32832 8.98741 7.36102C9.01552 7.39009 9.05165 7.40826 9.09983 7.40826C9.12067 7.40959 9.14157 7.40668 9.16102 7.39977C9.18047 7.39285 9.19796 7.3821 9.21224 7.36829C9.24034 7.33922 9.25239 7.29561 9.2564 7.23383C9.2564 7.17569 9.24837 7.13208 9.21625 7.103C9.20318 7.08836 9.18667 7.07652 9.16792 7.06835C9.14918 7.06018 9.12866 7.05588 9.10786 7.05576C9.08674 7.05515 9.06573 7.05874 9.0463 7.06627C9.02688 7.07381 9.00952 7.0851 8.99544 7.09937C8.96333 7.12844 8.95128 7.17205 8.94727 7.2302Z" fill="#F7FFFF"/>
<path d="M9.49329 7.49186L9.50132 6.98309H9.7422C9.80242 6.98309 9.84257 6.99036 9.87067 7.00126C9.89878 7.00853 9.91885 7.0267 9.93491 7.04851C9.95097 7.07031 9.959 7.09938 9.959 7.13209C9.95931 7.16705 9.94496 7.20082 9.91885 7.22658C9.88917 7.25174 9.85098 7.26711 9.81045 7.27018L9.87067 7.31379C9.88673 7.32833 9.90681 7.3574 9.93089 7.39738L9.99915 7.49913H9.86264L9.78235 7.38284L9.72614 7.31016C9.71641 7.30016 9.70395 7.29264 9.69001 7.28835C9.67175 7.28353 9.65282 7.28109 9.6338 7.28109H9.60971V7.49186H9.49329Z" fill="#309E3A"/>
<path d="M9.61365 7.20114H9.69394C9.75015 7.20114 9.78628 7.20114 9.79833 7.19387C9.81037 7.19387 9.82241 7.18297 9.83044 7.1757C9.83847 7.16843 9.84249 7.15026 9.84249 7.13936C9.84249 7.11756 9.83847 7.10302 9.82643 7.09575C9.8184 7.08485 9.80234 7.07758 9.78628 7.07395H9.70599L9.61365 7.07031V7.1975V7.20114Z" fill="white"/>
<path d="M10.1356 7.00851L10.3444 7.01942C10.3886 7.01942 10.4247 7.02305 10.4488 7.03032C10.48 7.04058 10.5077 7.05813 10.5291 7.0812C10.5522 7.1066 10.5687 7.13642 10.5773 7.16841C10.5893 7.20112 10.5933 7.24109 10.5893 7.28834C10.5893 7.32543 10.5825 7.36226 10.5692 7.39736C10.5532 7.4337 10.5291 7.46277 10.501 7.48458C10.4776 7.50202 10.4501 7.51445 10.4207 7.52092C10.3966 7.52818 10.3605 7.52818 10.3203 7.52818L10.1075 7.51728L10.1356 7.00851Z" fill="#309E3A"/>
<path d="M10.2441 7.09937L10.224 7.43733H10.3766C10.3966 7.43733 10.4127 7.43006 10.4247 7.41916C10.4368 7.40826 10.4488 7.39372 10.4569 7.37192C10.4649 7.35012 10.4729 7.31741 10.4729 7.27743L10.4689 7.18658C10.4632 7.16742 10.4521 7.14991 10.4368 7.13571C10.4234 7.12357 10.4068 7.1148 10.3886 7.11027C10.3582 7.10415 10.3273 7.1005 10.2963 7.09937H10.2441Z" fill="white"/>
<path d="M12.8898 7.91705L13.0223 7.42282L13.1989 7.45916L13.3274 7.4955C13.3555 7.51004 13.3796 7.53184 13.3916 7.56455C13.4077 7.59362 13.4077 7.62633 13.3996 7.6663C13.3916 7.69538 13.3796 7.72081 13.3595 7.73898C13.3448 7.75494 13.3264 7.76777 13.3055 7.77656C13.2847 7.78536 13.262 7.7899 13.2391 7.78986C13.211 7.78986 13.1708 7.78259 13.1186 7.77169L13.0504 7.75352L13.0022 7.94249L12.8898 7.91705Z" fill="#309E3A"/>
<path d="M13.1065 7.53186L13.0743 7.66995L13.1346 7.68449C13.1747 7.69176 13.2068 7.69903 13.2229 7.69539C13.2385 7.69343 13.2531 7.68714 13.2646 7.67737C13.2761 7.66761 13.284 7.65486 13.2871 7.64088C13.2871 7.62271 13.2871 7.60818 13.2791 7.59364C13.2703 7.57887 13.2561 7.56731 13.2389 7.56093L13.1627 7.54276L13.1105 7.53186H13.1065Z" fill="white"/>
<path d="M13.4117 8.05877L13.6004 7.57907L13.8212 7.65175C13.8815 7.66992 13.9176 7.68809 13.9417 7.70263C13.9618 7.7208 13.9778 7.73897 13.9818 7.76804C13.9859 7.79711 13.9899 7.82255 13.9818 7.85163C13.9658 7.88797 13.9417 7.9134 13.9096 7.93158C13.8775 7.94611 13.8373 7.94974 13.7891 7.94248C13.8052 7.96065 13.8212 7.97882 13.8293 8.00062L13.8614 8.09874L13.8855 8.2114L13.761 8.17142L13.7209 8.0406C13.7136 8.01101 13.7042 7.98188 13.6928 7.95338C13.6875 7.94207 13.6792 7.9321 13.6687 7.92431C13.6607 7.9134 13.6446 7.90614 13.6165 7.89887L13.5964 7.8916L13.5161 8.09511L13.4117 8.05877Z" fill="#309E3A"/>
<path d="M13.6285 7.8153L13.7048 7.84074C13.757 7.85891 13.7891 7.86617 13.8052 7.86617C13.8172 7.86617 13.8293 7.86617 13.8413 7.85527C13.8534 7.848 13.8614 7.8371 13.8654 7.82257C13.8734 7.80803 13.8734 7.79349 13.8654 7.77896C13.8595 7.76487 13.848 7.75324 13.8333 7.74625L13.753 7.72081L13.6727 7.69537L13.6245 7.8153H13.6285Z" fill="white"/>
<path d="M14.0701 8.0406C14.0839 7.99805 14.1071 7.95848 14.1384 7.92431C14.1587 7.90238 14.1831 7.88392 14.2106 7.8698C14.2355 7.85707 14.2627 7.84846 14.2909 7.84436C14.3311 7.84436 14.3712 7.84436 14.4154 7.8589C14.4513 7.86693 14.4849 7.88178 14.5139 7.90246C14.543 7.92313 14.5669 7.94916 14.584 7.97882C14.6161 8.03697 14.6161 8.10601 14.592 8.18596C14.5722 8.25465 14.5231 8.31343 14.4555 8.34949C14.3953 8.3822 14.323 8.38584 14.2468 8.36403C14.211 8.35578 14.1775 8.34085 14.1485 8.3202C14.1194 8.29955 14.0955 8.27363 14.0781 8.24411C14.0621 8.21234 14.0531 8.178 14.0517 8.14308C14.0503 8.10815 14.0566 8.07333 14.0701 8.0406Z" fill="#309E3A"/>
<path d="M14.1825 8.06966C14.1665 8.12417 14.1625 8.17141 14.1825 8.20775C14.2026 8.24409 14.2307 8.26589 14.2749 8.28043C14.315 8.29133 14.3552 8.2877 14.3953 8.2659C14.4355 8.24772 14.4596 8.20775 14.4796 8.14961C14.4997 8.09509 14.4997 8.05149 14.4796 8.01514C14.4717 7.9979 14.4597 7.98245 14.4444 7.96989C14.4292 7.95733 14.411 7.94797 14.3913 7.94246C14.3716 7.93629 14.3506 7.93407 14.3298 7.93595C14.309 7.93783 14.2889 7.94378 14.2709 7.95337C14.2307 7.97517 14.2026 8.01151 14.1825 8.06966Z" fill="white"/>
<path d="M15.1661 8.74925L15.4231 8.29863L15.6359 8.39675C15.676 8.41417 15.7126 8.4375 15.7443 8.4658C15.7643 8.48397 15.7764 8.50577 15.7764 8.53484C15.7764 8.56392 15.7764 8.58935 15.7603 8.61479C15.7449 8.64747 15.7161 8.6735 15.68 8.68747C15.6399 8.69474 15.5997 8.69474 15.5556 8.68021C15.5716 8.70201 15.5797 8.72381 15.5877 8.74198C15.5957 8.76379 15.5997 8.7965 15.6037 8.84374L15.6118 8.96003L15.4913 8.90552L15.4753 8.77106C15.4734 8.74057 15.4693 8.71023 15.4632 8.68021C15.4605 8.66661 15.4535 8.65401 15.4432 8.64387L15.395 8.61843L15.3749 8.60752L15.2665 8.7965L15.1661 8.74925Z" fill="#309E3A"/>
<path d="M15.415 8.53484L15.4913 8.57118C15.5395 8.59298 15.5716 8.60752 15.5837 8.60752C15.5957 8.60752 15.6118 8.60752 15.6238 8.60025C15.6359 8.59662 15.6439 8.58572 15.6519 8.57118C15.6599 8.55664 15.664 8.54211 15.6599 8.52757C15.655 8.5131 15.6452 8.5004 15.6318 8.49123C15.6083 8.47817 15.5842 8.46605 15.5596 8.45489L15.4793 8.41855L15.415 8.53484Z" fill="white"/>
<path d="M17.2458 9.67957C17.2718 9.6422 17.3059 9.61005 17.3461 9.58508C17.3732 9.56943 17.4031 9.55835 17.4345 9.55238C17.4636 9.54699 17.4937 9.54699 17.5228 9.55238C17.5629 9.55965 17.5991 9.57418 17.6352 9.59599C17.6665 9.6136 17.6933 9.63692 17.714 9.66445C17.7348 9.69198 17.7489 9.72312 17.7557 9.75589C17.7677 9.81766 17.7476 9.88671 17.6994 9.95576C17.6591 10.0158 17.5942 10.0589 17.5188 10.0757C17.4828 10.0827 17.4457 10.0828 17.4097 10.0759C17.3737 10.069 17.3397 10.0553 17.31 10.0357C17.2788 10.0181 17.2519 9.99477 17.2312 9.96724C17.2104 9.93971 17.1963 9.90857 17.1896 9.87581C17.1775 9.8104 17.1976 9.74498 17.2458 9.67957Z" fill="#309E3A"/>
<path d="M17.3462 9.73771C17.306 9.78495 17.294 9.82856 17.302 9.86854C17.305 9.88694 17.3122 9.90457 17.3233 9.92023C17.3344 9.9359 17.349 9.94925 17.3663 9.95939C17.4064 9.98483 17.4466 9.9921 17.4867 9.98119C17.5269 9.97029 17.567 9.94485 17.6031 9.89398C17.6393 9.8431 17.6553 9.79949 17.6473 9.76315C17.6433 9.72681 17.6192 9.6941 17.5831 9.66866C17.5469 9.64323 17.5028 9.63959 17.4626 9.65049C17.4225 9.65776 17.3823 9.68683 17.3422 9.73771H17.3462Z" fill="white"/>
<path d="M12.2555 7.70993L12.3478 7.35379L12.6369 7.41557L12.6249 7.47371L12.4121 7.43011L12.392 7.51005L12.5887 7.55003L12.5727 7.61181L12.3759 7.5682L12.3518 7.66632L12.5727 7.71356L12.5566 7.77171L12.2555 7.70993Z" fill="#309E3A"/>
</svg>
