<svg width="390" height="100" viewBox="0 0 390 100" fill="none" xmlns="http://www.w3.org/2000/svg">
<g filter="url(#filter0_d_713_28)">
<rect x="7" width="376" height="84.7557" rx="42.3779" fill="#1D1E18"/>
<rect x="7.25" y="0.25" width="375.5" height="84.2557" rx="42.1279" stroke="url(#paint0_linear_713_28)" stroke-width="0.5"/>
</g>
<path d="M85.2205 32.207V27.4167C85.2205 26.1463 84.7159 24.9278 83.8175 24.0295C82.9192 23.1312 81.7008 22.6265 80.4303 22.6265H51.6888C50.4184 22.6265 49.1999 23.1312 48.3016 24.0295C47.4032 24.9278 46.8986 26.1463 46.8986 27.4167V44.1826C46.8986 45.453 47.4032 46.6715 48.3016 47.5698C49.1999 48.4681 50.4184 48.9728 51.6888 48.9728H70.8498" stroke="#0CD28B" stroke-linecap="round" stroke-linejoin="round"/>
<path d="M66.0595 58.5533V49.0686V56.6132" stroke="#0CD28B" stroke-width="2" stroke-linecap="round" stroke-linejoin="round"/>
<path d="M58.8742 58.5532H70.8498" stroke="#0CD28B" stroke-width="2" stroke-linecap="round" stroke-linejoin="round"/>
<path d="M90.0108 41.7874H85.2205C82.575 41.7874 80.4303 43.932 80.4303 46.5776V60.9483C80.4303 63.5939 82.575 65.7386 85.2205 65.7386H90.0108C92.6564 65.7386 94.801 63.5939 94.801 60.9483V46.5776C94.801 43.932 92.6564 41.7874 90.0108 41.7874Z" stroke="#0CD28B" stroke-linecap="round" stroke-linejoin="round"/>
<g filter="url(#filter1_dd_713_28)">
<path d="M123.544 38.598C123.46 38.7567 123.339 38.836 123.18 38.836C123.059 38.836 122.9 38.752 122.704 38.584C122.517 38.4067 122.261 38.2153 121.934 38.01C121.607 37.7953 121.197 37.5993 120.702 37.422C120.217 37.2447 119.615 37.156 118.896 37.156C118.177 37.156 117.543 37.2587 116.992 37.464C116.451 37.6693 115.993 37.9493 115.62 38.304C115.256 38.6587 114.976 39.0693 114.78 39.536C114.593 40.0027 114.5 40.4927 114.5 41.006C114.5 41.678 114.64 42.2333 114.92 42.672C115.209 43.1107 115.587 43.484 116.054 43.792C116.521 44.1 117.048 44.3613 117.636 44.576C118.233 44.7813 118.845 44.9867 119.47 45.192C120.095 45.3973 120.702 45.626 121.29 45.878C121.887 46.1207 122.419 46.4287 122.886 46.802C123.353 47.1753 123.726 47.6373 124.006 48.188C124.295 48.7293 124.44 49.406 124.44 50.218C124.44 51.0487 124.295 51.8327 124.006 52.57C123.726 53.298 123.315 53.9327 122.774 54.474C122.233 55.0153 121.57 55.4447 120.786 55.762C120.002 56.07 119.106 56.224 118.098 56.224C116.791 56.224 115.667 55.9953 114.724 55.538C113.781 55.0713 112.955 54.4367 112.246 53.634L112.638 53.018C112.75 52.878 112.881 52.808 113.03 52.808C113.114 52.808 113.221 52.864 113.352 52.976C113.483 53.088 113.641 53.228 113.828 53.396C114.015 53.5547 114.239 53.732 114.5 53.928C114.761 54.1147 115.065 54.292 115.41 54.46C115.755 54.6187 116.152 54.754 116.6 54.866C117.048 54.978 117.557 55.034 118.126 55.034C118.91 55.034 119.61 54.9173 120.226 54.684C120.842 54.4413 121.36 54.1147 121.78 53.704C122.209 53.2933 122.536 52.808 122.76 52.248C122.984 51.6787 123.096 51.072 123.096 50.428C123.096 49.728 122.951 49.154 122.662 48.706C122.382 48.2487 122.009 47.8707 121.542 47.572C121.075 47.264 120.543 47.0073 119.946 46.802C119.358 46.5967 118.751 46.396 118.126 46.2C117.501 46.004 116.889 45.7847 116.292 45.542C115.704 45.2993 115.177 44.9913 114.71 44.618C114.243 44.2353 113.865 43.764 113.576 43.204C113.296 42.6347 113.156 41.9253 113.156 41.076C113.156 40.4133 113.282 39.774 113.534 39.158C113.786 38.542 114.155 38.0007 114.64 37.534C115.125 37.058 115.723 36.68 116.432 36.4C117.151 36.1107 117.967 35.966 118.882 35.966C119.909 35.966 120.828 36.1293 121.64 36.456C122.461 36.7827 123.208 37.282 123.88 37.954L123.544 38.598ZM130.352 56H128.91V36.19H130.352V56ZM145.829 38.598C145.745 38.7567 145.624 38.836 145.465 38.836C145.344 38.836 145.185 38.752 144.989 38.584C144.802 38.4067 144.546 38.2153 144.219 38.01C143.892 37.7953 143.482 37.5993 142.987 37.422C142.502 37.2447 141.9 37.156 141.181 37.156C140.462 37.156 139.828 37.2587 139.277 37.464C138.736 37.6693 138.278 37.9493 137.905 38.304C137.541 38.6587 137.261 39.0693 137.065 39.536C136.878 40.0027 136.785 40.4927 136.785 41.006C136.785 41.678 136.925 42.2333 137.205 42.672C137.494 43.1107 137.872 43.484 138.339 43.792C138.806 44.1 139.333 44.3613 139.921 44.576C140.518 44.7813 141.13 44.9867 141.755 45.192C142.38 45.3973 142.987 45.626 143.575 45.878C144.172 46.1207 144.704 46.4287 145.171 46.802C145.638 47.1753 146.011 47.6373 146.291 48.188C146.58 48.7293 146.725 49.406 146.725 50.218C146.725 51.0487 146.58 51.8327 146.291 52.57C146.011 53.298 145.6 53.9327 145.059 54.474C144.518 55.0153 143.855 55.4447 143.071 55.762C142.287 56.07 141.391 56.224 140.383 56.224C139.076 56.224 137.952 55.9953 137.009 55.538C136.066 55.0713 135.24 54.4367 134.531 53.634L134.923 53.018C135.035 52.878 135.166 52.808 135.315 52.808C135.399 52.808 135.506 52.864 135.637 52.976C135.768 53.088 135.926 53.228 136.113 53.396C136.3 53.5547 136.524 53.732 136.785 53.928C137.046 54.1147 137.35 54.292 137.695 54.46C138.04 54.6187 138.437 54.754 138.885 54.866C139.333 54.978 139.842 55.034 140.411 55.034C141.195 55.034 141.895 54.9173 142.511 54.684C143.127 54.4413 143.645 54.1147 144.065 53.704C144.494 53.2933 144.821 52.808 145.045 52.248C145.269 51.6787 145.381 51.072 145.381 50.428C145.381 49.728 145.236 49.154 144.947 48.706C144.667 48.2487 144.294 47.8707 143.827 47.572C143.36 47.264 142.828 47.0073 142.231 46.802C141.643 46.5967 141.036 46.396 140.411 46.2C139.786 46.004 139.174 45.7847 138.577 45.542C137.989 45.2993 137.462 44.9913 136.995 44.618C136.528 44.2353 136.15 43.764 135.861 43.204C135.581 42.6347 135.441 41.9253 135.441 41.076C135.441 40.4133 135.567 39.774 135.819 39.158C136.071 38.542 136.44 38.0007 136.925 37.534C137.41 37.058 138.008 36.68 138.717 36.4C139.436 36.1107 140.252 35.966 141.167 35.966C142.194 35.966 143.113 36.1293 143.925 36.456C144.746 36.7827 145.493 37.282 146.165 37.954L145.829 38.598ZM164.076 37.408H157.118V56H155.676V37.408H148.676V36.19H164.076V37.408ZM179.31 54.81L179.282 56H167.41V36.19H179.282V37.38H168.852V45.388H177.532V46.55H168.852V54.81H179.31ZM203.225 36.19V56H201.979V39.116C201.979 38.8733 201.993 38.6167 202.021 38.346L194.223 52.192C194.092 52.4347 193.905 52.556 193.663 52.556H193.439C193.196 52.556 193.009 52.4347 192.879 52.192L184.871 38.318C184.899 38.598 184.913 38.864 184.913 39.116V56H183.653V36.19H184.647C184.777 36.19 184.88 36.204 184.955 36.232C185.029 36.26 185.104 36.3347 185.179 36.456L193.173 50.232C193.313 50.4933 193.434 50.7733 193.537 51.072C193.593 50.9227 193.653 50.778 193.719 50.638C193.784 50.4887 193.854 50.3487 193.929 50.218L201.699 36.456C201.773 36.3347 201.848 36.26 201.923 36.232C202.007 36.204 202.114 36.19 202.245 36.19H203.225ZM219.764 48.804L215.732 38.794C215.592 38.4673 215.457 38.0753 215.326 37.618C215.27 37.842 215.21 38.0567 215.144 38.262C215.079 38.458 215.009 38.64 214.934 38.808L210.902 48.804H219.764ZM224.146 56H223.04C222.91 56 222.802 55.9673 222.718 55.902C222.634 55.8273 222.569 55.734 222.522 55.622L220.198 49.868H210.468L208.144 55.622C208.107 55.7247 208.042 55.8133 207.948 55.888C207.855 55.9627 207.743 56 207.612 56H206.52L214.626 36.19H216.04L224.146 56ZM237.048 38.598C236.964 38.7567 236.843 38.836 236.684 38.836C236.563 38.836 236.404 38.752 236.208 38.584C236.021 38.4067 235.765 38.2153 235.438 38.01C235.111 37.7953 234.701 37.5993 234.206 37.422C233.721 37.2447 233.119 37.156 232.4 37.156C231.681 37.156 231.047 37.2587 230.496 37.464C229.955 37.6693 229.497 37.9493 229.124 38.304C228.76 38.6587 228.48 39.0693 228.284 39.536C228.097 40.0027 228.004 40.4927 228.004 41.006C228.004 41.678 228.144 42.2333 228.424 42.672C228.713 43.1107 229.091 43.484 229.558 43.792C230.025 44.1 230.552 44.3613 231.14 44.576C231.737 44.7813 232.349 44.9867 232.974 45.192C233.599 45.3973 234.206 45.626 234.794 45.878C235.391 46.1207 235.923 46.4287 236.39 46.802C236.857 47.1753 237.23 47.6373 237.51 48.188C237.799 48.7293 237.944 49.406 237.944 50.218C237.944 51.0487 237.799 51.8327 237.51 52.57C237.23 53.298 236.819 53.9327 236.278 54.474C235.737 55.0153 235.074 55.4447 234.29 55.762C233.506 56.07 232.61 56.224 231.602 56.224C230.295 56.224 229.171 55.9953 228.228 55.538C227.285 55.0713 226.459 54.4367 225.75 53.634L226.142 53.018C226.254 52.878 226.385 52.808 226.534 52.808C226.618 52.808 226.725 52.864 226.856 52.976C226.987 53.088 227.145 53.228 227.332 53.396C227.519 53.5547 227.743 53.732 228.004 53.928C228.265 54.1147 228.569 54.292 228.914 54.46C229.259 54.6187 229.656 54.754 230.104 54.866C230.552 54.978 231.061 55.034 231.63 55.034C232.414 55.034 233.114 54.9173 233.73 54.684C234.346 54.4413 234.864 54.1147 235.284 53.704C235.713 53.2933 236.04 52.808 236.264 52.248C236.488 51.6787 236.6 51.072 236.6 50.428C236.6 49.728 236.455 49.154 236.166 48.706C235.886 48.2487 235.513 47.8707 235.046 47.572C234.579 47.264 234.047 47.0073 233.45 46.802C232.862 46.5967 232.255 46.396 231.63 46.2C231.005 46.004 230.393 45.7847 229.796 45.542C229.208 45.2993 228.681 44.9913 228.214 44.618C227.747 44.2353 227.369 43.764 227.08 43.204C226.8 42.6347 226.66 41.9253 226.66 41.076C226.66 40.4133 226.786 39.774 227.038 39.158C227.29 38.542 227.659 38.0007 228.144 37.534C228.629 37.058 229.227 36.68 229.936 36.4C230.655 36.1107 231.471 35.966 232.386 35.966C233.413 35.966 234.332 36.1293 235.144 36.456C235.965 36.7827 236.712 37.282 237.384 37.954L237.048 38.598ZM274.265 36.19L268.035 56H266.747L260.895 38.808C260.82 38.5747 260.755 38.332 260.699 38.08C260.643 38.332 260.578 38.5747 260.503 38.808L254.637 56H253.363L247.119 36.19H248.309C248.58 36.19 248.752 36.316 248.827 36.568L253.825 52.85C253.928 53.2233 254.021 53.648 254.105 54.124C254.152 53.8813 254.198 53.6573 254.245 53.452C254.292 53.2373 254.348 53.0367 254.413 52.85L260.013 36.568C260.05 36.4653 260.116 36.3767 260.209 36.302C260.302 36.2273 260.414 36.19 260.545 36.19H260.937C261.068 36.19 261.175 36.2273 261.259 36.302C261.343 36.3673 261.408 36.456 261.455 36.568L267.055 52.85C267.12 53.0273 267.176 53.2233 267.223 53.438C267.279 53.6527 267.33 53.8767 267.377 54.11C267.424 53.8767 267.466 53.6573 267.503 53.452C267.55 53.2373 267.596 53.0367 267.643 52.85L272.641 36.568C272.669 36.4653 272.73 36.3767 272.823 36.302C272.926 36.2273 273.042 36.19 273.173 36.19H274.265ZM289.752 54.81L289.724 56H277.852V36.19H289.724V37.38H279.294V45.388H287.974V46.55H279.294V54.81H289.752ZM300.506 54.852C302.242 54.852 303.553 54.4787 304.44 53.732C305.336 52.976 305.784 51.9167 305.784 50.554C305.784 49.9287 305.663 49.3687 305.42 48.874C305.187 48.37 304.846 47.9453 304.398 47.6C303.95 47.2453 303.399 46.9747 302.746 46.788C302.093 46.6013 301.351 46.508 300.52 46.508H295.536V54.852H300.506ZM295.536 37.324V45.458H299.82C300.735 45.458 301.514 45.3413 302.158 45.108C302.811 44.8747 303.343 44.5667 303.754 44.184C304.174 43.8013 304.482 43.3673 304.678 42.882C304.874 42.3967 304.972 41.8973 304.972 41.384C304.972 40.0493 304.547 39.0413 303.698 38.36C302.858 37.6693 301.556 37.324 299.792 37.324H295.536ZM299.792 36.19C300.921 36.19 301.901 36.302 302.732 36.526C303.563 36.75 304.249 37.0813 304.79 37.52C305.331 37.9493 305.733 38.4767 305.994 39.102C306.255 39.7273 306.386 40.4367 306.386 41.23C306.386 41.7527 306.293 42.2567 306.106 42.742C305.929 43.2273 305.667 43.6753 305.322 44.086C304.986 44.4967 304.566 44.856 304.062 45.164C303.567 45.4627 302.998 45.6913 302.354 45.85C303.913 46.074 305.107 46.592 305.938 47.404C306.778 48.2067 307.198 49.266 307.198 50.582C307.198 51.422 307.049 52.178 306.75 52.85C306.451 53.522 306.017 54.0913 305.448 54.558C304.879 55.0247 304.179 55.384 303.348 55.636C302.517 55.8787 301.575 56 300.52 56H294.094V36.19H299.792Z" fill="white"/>
</g>
<g filter="url(#filter2_dd_713_28)">
<path d="M123.544 38.598C123.46 38.7567 123.339 38.836 123.18 38.836C123.059 38.836 122.9 38.752 122.704 38.584C122.517 38.4067 122.261 38.2153 121.934 38.01C121.607 37.7953 121.197 37.5993 120.702 37.422C120.217 37.2447 119.615 37.156 118.896 37.156C118.177 37.156 117.543 37.2587 116.992 37.464C116.451 37.6693 115.993 37.9493 115.62 38.304C115.256 38.6587 114.976 39.0693 114.78 39.536C114.593 40.0027 114.5 40.4927 114.5 41.006C114.5 41.678 114.64 42.2333 114.92 42.672C115.209 43.1107 115.587 43.484 116.054 43.792C116.521 44.1 117.048 44.3613 117.636 44.576C118.233 44.7813 118.845 44.9867 119.47 45.192C120.095 45.3973 120.702 45.626 121.29 45.878C121.887 46.1207 122.419 46.4287 122.886 46.802C123.353 47.1753 123.726 47.6373 124.006 48.188C124.295 48.7293 124.44 49.406 124.44 50.218C124.44 51.0487 124.295 51.8327 124.006 52.57C123.726 53.298 123.315 53.9327 122.774 54.474C122.233 55.0153 121.57 55.4447 120.786 55.762C120.002 56.07 119.106 56.224 118.098 56.224C116.791 56.224 115.667 55.9953 114.724 55.538C113.781 55.0713 112.955 54.4367 112.246 53.634L112.638 53.018C112.75 52.878 112.881 52.808 113.03 52.808C113.114 52.808 113.221 52.864 113.352 52.976C113.483 53.088 113.641 53.228 113.828 53.396C114.015 53.5547 114.239 53.732 114.5 53.928C114.761 54.1147 115.065 54.292 115.41 54.46C115.755 54.6187 116.152 54.754 116.6 54.866C117.048 54.978 117.557 55.034 118.126 55.034C118.91 55.034 119.61 54.9173 120.226 54.684C120.842 54.4413 121.36 54.1147 121.78 53.704C122.209 53.2933 122.536 52.808 122.76 52.248C122.984 51.6787 123.096 51.072 123.096 50.428C123.096 49.728 122.951 49.154 122.662 48.706C122.382 48.2487 122.009 47.8707 121.542 47.572C121.075 47.264 120.543 47.0073 119.946 46.802C119.358 46.5967 118.751 46.396 118.126 46.2C117.501 46.004 116.889 45.7847 116.292 45.542C115.704 45.2993 115.177 44.9913 114.71 44.618C114.243 44.2353 113.865 43.764 113.576 43.204C113.296 42.6347 113.156 41.9253 113.156 41.076C113.156 40.4133 113.282 39.774 113.534 39.158C113.786 38.542 114.155 38.0007 114.64 37.534C115.125 37.058 115.723 36.68 116.432 36.4C117.151 36.1107 117.967 35.966 118.882 35.966C119.909 35.966 120.828 36.1293 121.64 36.456C122.461 36.7827 123.208 37.282 123.88 37.954L123.544 38.598ZM130.352 56H128.91V36.19H130.352V56ZM145.829 38.598C145.745 38.7567 145.624 38.836 145.465 38.836C145.344 38.836 145.185 38.752 144.989 38.584C144.802 38.4067 144.546 38.2153 144.219 38.01C143.892 37.7953 143.482 37.5993 142.987 37.422C142.502 37.2447 141.9 37.156 141.181 37.156C140.462 37.156 139.828 37.2587 139.277 37.464C138.736 37.6693 138.278 37.9493 137.905 38.304C137.541 38.6587 137.261 39.0693 137.065 39.536C136.878 40.0027 136.785 40.4927 136.785 41.006C136.785 41.678 136.925 42.2333 137.205 42.672C137.494 43.1107 137.872 43.484 138.339 43.792C138.806 44.1 139.333 44.3613 139.921 44.576C140.518 44.7813 141.13 44.9867 141.755 45.192C142.38 45.3973 142.987 45.626 143.575 45.878C144.172 46.1207 144.704 46.4287 145.171 46.802C145.638 47.1753 146.011 47.6373 146.291 48.188C146.58 48.7293 146.725 49.406 146.725 50.218C146.725 51.0487 146.58 51.8327 146.291 52.57C146.011 53.298 145.6 53.9327 145.059 54.474C144.518 55.0153 143.855 55.4447 143.071 55.762C142.287 56.07 141.391 56.224 140.383 56.224C139.076 56.224 137.952 55.9953 137.009 55.538C136.066 55.0713 135.24 54.4367 134.531 53.634L134.923 53.018C135.035 52.878 135.166 52.808 135.315 52.808C135.399 52.808 135.506 52.864 135.637 52.976C135.768 53.088 135.926 53.228 136.113 53.396C136.3 53.5547 136.524 53.732 136.785 53.928C137.046 54.1147 137.35 54.292 137.695 54.46C138.04 54.6187 138.437 54.754 138.885 54.866C139.333 54.978 139.842 55.034 140.411 55.034C141.195 55.034 141.895 54.9173 142.511 54.684C143.127 54.4413 143.645 54.1147 144.065 53.704C144.494 53.2933 144.821 52.808 145.045 52.248C145.269 51.6787 145.381 51.072 145.381 50.428C145.381 49.728 145.236 49.154 144.947 48.706C144.667 48.2487 144.294 47.8707 143.827 47.572C143.36 47.264 142.828 47.0073 142.231 46.802C141.643 46.5967 141.036 46.396 140.411 46.2C139.786 46.004 139.174 45.7847 138.577 45.542C137.989 45.2993 137.462 44.9913 136.995 44.618C136.528 44.2353 136.15 43.764 135.861 43.204C135.581 42.6347 135.441 41.9253 135.441 41.076C135.441 40.4133 135.567 39.774 135.819 39.158C136.071 38.542 136.44 38.0007 136.925 37.534C137.41 37.058 138.008 36.68 138.717 36.4C139.436 36.1107 140.252 35.966 141.167 35.966C142.194 35.966 143.113 36.1293 143.925 36.456C144.746 36.7827 145.493 37.282 146.165 37.954L145.829 38.598ZM164.076 37.408H157.118V56H155.676V37.408H148.676V36.19H164.076V37.408ZM179.31 54.81L179.282 56H167.41V36.19H179.282V37.38H168.852V45.388H177.532V46.55H168.852V54.81H179.31ZM203.225 36.19V56H201.979V39.116C201.979 38.8733 201.993 38.6167 202.021 38.346L194.223 52.192C194.092 52.4347 193.905 52.556 193.663 52.556H193.439C193.196 52.556 193.009 52.4347 192.879 52.192L184.871 38.318C184.899 38.598 184.913 38.864 184.913 39.116V56H183.653V36.19H184.647C184.777 36.19 184.88 36.204 184.955 36.232C185.029 36.26 185.104 36.3347 185.179 36.456L193.173 50.232C193.313 50.4933 193.434 50.7733 193.537 51.072C193.593 50.9227 193.653 50.778 193.719 50.638C193.784 50.4887 193.854 50.3487 193.929 50.218L201.699 36.456C201.773 36.3347 201.848 36.26 201.923 36.232C202.007 36.204 202.114 36.19 202.245 36.19H203.225ZM219.764 48.804L215.732 38.794C215.592 38.4673 215.457 38.0753 215.326 37.618C215.27 37.842 215.21 38.0567 215.144 38.262C215.079 38.458 215.009 38.64 214.934 38.808L210.902 48.804H219.764ZM224.146 56H223.04C222.91 56 222.802 55.9673 222.718 55.902C222.634 55.8273 222.569 55.734 222.522 55.622L220.198 49.868H210.468L208.144 55.622C208.107 55.7247 208.042 55.8133 207.948 55.888C207.855 55.9627 207.743 56 207.612 56H206.52L214.626 36.19H216.04L224.146 56ZM237.048 38.598C236.964 38.7567 236.843 38.836 236.684 38.836C236.563 38.836 236.404 38.752 236.208 38.584C236.021 38.4067 235.765 38.2153 235.438 38.01C235.111 37.7953 234.701 37.5993 234.206 37.422C233.721 37.2447 233.119 37.156 232.4 37.156C231.681 37.156 231.047 37.2587 230.496 37.464C229.955 37.6693 229.497 37.9493 229.124 38.304C228.76 38.6587 228.48 39.0693 228.284 39.536C228.097 40.0027 228.004 40.4927 228.004 41.006C228.004 41.678 228.144 42.2333 228.424 42.672C228.713 43.1107 229.091 43.484 229.558 43.792C230.025 44.1 230.552 44.3613 231.14 44.576C231.737 44.7813 232.349 44.9867 232.974 45.192C233.599 45.3973 234.206 45.626 234.794 45.878C235.391 46.1207 235.923 46.4287 236.39 46.802C236.857 47.1753 237.23 47.6373 237.51 48.188C237.799 48.7293 237.944 49.406 237.944 50.218C237.944 51.0487 237.799 51.8327 237.51 52.57C237.23 53.298 236.819 53.9327 236.278 54.474C235.737 55.0153 235.074 55.4447 234.29 55.762C233.506 56.07 232.61 56.224 231.602 56.224C230.295 56.224 229.171 55.9953 228.228 55.538C227.285 55.0713 226.459 54.4367 225.75 53.634L226.142 53.018C226.254 52.878 226.385 52.808 226.534 52.808C226.618 52.808 226.725 52.864 226.856 52.976C226.987 53.088 227.145 53.228 227.332 53.396C227.519 53.5547 227.743 53.732 228.004 53.928C228.265 54.1147 228.569 54.292 228.914 54.46C229.259 54.6187 229.656 54.754 230.104 54.866C230.552 54.978 231.061 55.034 231.63 55.034C232.414 55.034 233.114 54.9173 233.73 54.684C234.346 54.4413 234.864 54.1147 235.284 53.704C235.713 53.2933 236.04 52.808 236.264 52.248C236.488 51.6787 236.6 51.072 236.6 50.428C236.6 49.728 236.455 49.154 236.166 48.706C235.886 48.2487 235.513 47.8707 235.046 47.572C234.579 47.264 234.047 47.0073 233.45 46.802C232.862 46.5967 232.255 46.396 231.63 46.2C231.005 46.004 230.393 45.7847 229.796 45.542C229.208 45.2993 228.681 44.9913 228.214 44.618C227.747 44.2353 227.369 43.764 227.08 43.204C226.8 42.6347 226.66 41.9253 226.66 41.076C226.66 40.4133 226.786 39.774 227.038 39.158C227.29 38.542 227.659 38.0007 228.144 37.534C228.629 37.058 229.227 36.68 229.936 36.4C230.655 36.1107 231.471 35.966 232.386 35.966C233.413 35.966 234.332 36.1293 235.144 36.456C235.965 36.7827 236.712 37.282 237.384 37.954L237.048 38.598ZM274.265 36.19L268.035 56H266.747L260.895 38.808C260.82 38.5747 260.755 38.332 260.699 38.08C260.643 38.332 260.578 38.5747 260.503 38.808L254.637 56H253.363L247.119 36.19H248.309C248.58 36.19 248.752 36.316 248.827 36.568L253.825 52.85C253.928 53.2233 254.021 53.648 254.105 54.124C254.152 53.8813 254.198 53.6573 254.245 53.452C254.292 53.2373 254.348 53.0367 254.413 52.85L260.013 36.568C260.05 36.4653 260.116 36.3767 260.209 36.302C260.302 36.2273 260.414 36.19 260.545 36.19H260.937C261.068 36.19 261.175 36.2273 261.259 36.302C261.343 36.3673 261.408 36.456 261.455 36.568L267.055 52.85C267.12 53.0273 267.176 53.2233 267.223 53.438C267.279 53.6527 267.33 53.8767 267.377 54.11C267.424 53.8767 267.466 53.6573 267.503 53.452C267.55 53.2373 267.596 53.0367 267.643 52.85L272.641 36.568C272.669 36.4653 272.73 36.3767 272.823 36.302C272.926 36.2273 273.042 36.19 273.173 36.19H274.265ZM289.752 54.81L289.724 56H277.852V36.19H289.724V37.38H279.294V45.388H287.974V46.55H279.294V54.81H289.752ZM300.506 54.852C302.242 54.852 303.553 54.4787 304.44 53.732C305.336 52.976 305.784 51.9167 305.784 50.554C305.784 49.9287 305.663 49.3687 305.42 48.874C305.187 48.37 304.846 47.9453 304.398 47.6C303.95 47.2453 303.399 46.9747 302.746 46.788C302.093 46.6013 301.351 46.508 300.52 46.508H295.536V54.852H300.506ZM295.536 37.324V45.458H299.82C300.735 45.458 301.514 45.3413 302.158 45.108C302.811 44.8747 303.343 44.5667 303.754 44.184C304.174 43.8013 304.482 43.3673 304.678 42.882C304.874 42.3967 304.972 41.8973 304.972 41.384C304.972 40.0493 304.547 39.0413 303.698 38.36C302.858 37.6693 301.556 37.324 299.792 37.324H295.536ZM299.792 36.19C300.921 36.19 301.901 36.302 302.732 36.526C303.563 36.75 304.249 37.0813 304.79 37.52C305.331 37.9493 305.733 38.4767 305.994 39.102C306.255 39.7273 306.386 40.4367 306.386 41.23C306.386 41.7527 306.293 42.2567 306.106 42.742C305.929 43.2273 305.667 43.6753 305.322 44.086C304.986 44.4967 304.566 44.856 304.062 45.164C303.567 45.4627 302.998 45.6913 302.354 45.85C303.913 46.074 305.107 46.592 305.938 47.404C306.778 48.2067 307.198 49.266 307.198 50.582C307.198 51.422 307.049 52.178 306.75 52.85C306.451 53.522 306.017 54.0913 305.448 54.558C304.879 55.0247 304.179 55.384 303.348 55.636C302.517 55.8787 301.575 56 300.52 56H294.094V36.19H299.792Z" fill="white"/>
</g>
<defs>
<filter id="filter0_d_713_28" x="0" y="0" width="390" height="99.7559" filterUnits="userSpaceOnUse" color-interpolation-filters="sRGB">
<feFlood flood-opacity="0" result="BackgroundImageFix"/>
<feColorMatrix in="SourceAlpha" type="matrix" values="0 0 0 0 0 0 0 0 0 0 0 0 0 0 0 0 0 0 127 0" result="hardAlpha"/>
<feMorphology radius="1" operator="dilate" in="SourceAlpha" result="effect1_dropShadow_713_28"/>
<feOffset dy="8"/>
<feGaussianBlur stdDeviation="3"/>
<feComposite in2="hardAlpha" operator="out"/>
<feColorMatrix type="matrix" values="0 0 0 0 0 0 0 0 0 0 0 0 0 0 0 0 0 0 0.79 0"/>
<feBlend mode="normal" in2="BackgroundImageFix" result="effect1_dropShadow_713_28"/>
<feBlend mode="normal" in="SourceGraphic" in2="effect1_dropShadow_713_28" result="shape"/>
</filter>
<filter id="filter1_dd_713_28" x="106.201" y="29.9211" width="207.042" height="32.3481" filterUnits="userSpaceOnUse" color-interpolation-filters="sRGB">
<feFlood flood-opacity="0" result="BackgroundImageFix"/>
<feColorMatrix in="SourceAlpha" type="matrix" values="0 0 0 0 0 0 0 0 0 0 0 0 0 0 0 0 0 0 127 0" result="hardAlpha"/>
<feOffset/>
<feGaussianBlur stdDeviation="1.51125"/>
<feColorMatrix type="matrix" values="0 0 0 0 0.278431 0 0 0 0 0.423529 0 0 0 0 1 0 0 0 1 0"/>
<feBlend mode="normal" in2="BackgroundImageFix" result="effect1_dropShadow_713_28"/>
<feColorMatrix in="SourceAlpha" type="matrix" values="0 0 0 0 0 0 0 0 0 0 0 0 0 0 0 0 0 0 127 0" result="hardAlpha"/>
<feOffset/>
<feGaussianBlur stdDeviation="3.0225"/>
<feColorMatrix type="matrix" values="0 0 0 0 0.278431 0 0 0 0 0.423529 0 0 0 0 1 0 0 0 1 0"/>
<feBlend mode="normal" in2="effect1_dropShadow_713_28" result="effect2_dropShadow_713_28"/>
<feBlend mode="normal" in="SourceGraphic" in2="effect2_dropShadow_713_28" result="shape"/>
</filter>
<filter id="filter2_dd_713_28" x="106.201" y="29.9211" width="207.042" height="32.3481" filterUnits="userSpaceOnUse" color-interpolation-filters="sRGB">
<feFlood flood-opacity="0" result="BackgroundImageFix"/>
<feColorMatrix in="SourceAlpha" type="matrix" values="0 0 0 0 0 0 0 0 0 0 0 0 0 0 0 0 0 0 127 0" result="hardAlpha"/>
<feOffset/>
<feGaussianBlur stdDeviation="1.51125"/>
<feColorMatrix type="matrix" values="0 0 0 0 0.278431 0 0 0 0 0.423529 0 0 0 0 1 0 0 0 1 0"/>
<feBlend mode="normal" in2="BackgroundImageFix" result="effect1_dropShadow_713_28"/>
<feColorMatrix in="SourceAlpha" type="matrix" values="0 0 0 0 0 0 0 0 0 0 0 0 0 0 0 0 0 0 127 0" result="hardAlpha"/>
<feOffset/>
<feGaussianBlur stdDeviation="3.0225"/>
<feColorMatrix type="matrix" values="0 0 0 0 0.278431 0 0 0 0 0.423529 0 0 0 0 1 0 0 0 1 0"/>
<feBlend mode="normal" in2="effect1_dropShadow_713_28" result="effect2_dropShadow_713_28"/>
<feBlend mode="normal" in="SourceGraphic" in2="effect2_dropShadow_713_28" result="shape"/>
</filter>
<linearGradient id="paint0_linear_713_28" x1="195" y1="0" x2="195" y2="84.7557" gradientUnits="userSpaceOnUse">
<stop stop-color="#30D95F"/>
<stop offset="1" stop-color="#2976C6"/>
</linearGradient>
</defs>
</svg>
