<svg width="46" height="46" viewBox="0 0 46 46" fill="none" xmlns="http://www.w3.org/2000/svg">
<path d="M34.5 15.3334V11.5C34.5 10.4834 34.0961 9.50833 33.3772 8.78944C32.6583 8.07055 31.6833 7.66669 30.6667 7.66669H7.66666C6.65 7.66669 5.67497 8.07055 4.95609 8.78944C4.2372 9.50833 3.83333 10.4834 3.83333 11.5V24.9167C3.83333 25.9334 4.2372 26.9084 4.95609 27.6273C5.67497 28.3462 6.65 28.75 7.66666 28.75H23" stroke="#0CD28B" stroke-linecap="round" stroke-linejoin="round"/>
<path d="M19.1667 36.4167V28.8267V34.8642" stroke="#0CD28B" stroke-width="2" stroke-linecap="round" stroke-linejoin="round"/>
<path d="M13.4167 36.4167H23" stroke="#0CD28B" stroke-width="2" stroke-linecap="round" stroke-linejoin="round"/>
<path d="M38.3333 23H34.5C32.3829 23 30.6667 24.7162 30.6667 26.8333V38.3333C30.6667 40.4504 32.3829 42.1667 34.5 42.1667H38.3333C40.4504 42.1667 42.1667 40.4504 42.1667 38.3333V26.8333C42.1667 24.7162 40.4504 23 38.3333 23Z" stroke="#0CD28B" stroke-linecap="round" stroke-linejoin="round"/>
</svg>
