<svg width="390" height="100" viewBox="0 0 390 100" fill="none" xmlns="http://www.w3.org/2000/svg">
<g filter="url(#filter0_d_638_13)">
<rect x="7" width="376" height="84.7557" rx="42.3779" fill="#1D1E18"/>
<rect x="7.25" y="0.25" width="375.5" height="84.2557" rx="42.1279" stroke="url(#paint0_linear_638_13)" stroke-width="0.5"/>
</g>
<path d="M141.2 38.4625C141.125 38.6042 141.017 38.675 140.875 38.675C140.767 38.675 140.625 38.6 140.45 38.45C140.283 38.2917 140.054 38.1208 139.763 37.9375C139.471 37.7458 139.104 37.5708 138.663 37.4125C138.229 37.2542 137.692 37.175 137.05 37.175C136.408 37.175 135.842 37.2667 135.35 37.45C134.867 37.6333 134.458 37.8833 134.125 38.2C133.8 38.5167 133.55 38.8833 133.375 39.3C133.208 39.7167 133.125 40.1542 133.125 40.6125C133.125 41.2125 133.25 41.7083 133.5 42.1C133.758 42.4917 134.096 42.825 134.513 43.1C134.929 43.375 135.4 43.6083 135.925 43.8C136.458 43.9833 137.004 44.1667 137.563 44.35C138.121 44.5333 138.663 44.7375 139.188 44.9625C139.721 45.1792 140.196 45.4542 140.613 45.7875C141.029 46.1208 141.363 46.5333 141.613 47.025C141.871 47.5083 142 48.1125 142 48.8375C142 49.5792 141.871 50.2792 141.613 50.9375C141.363 51.5875 140.996 52.1542 140.513 52.6375C140.029 53.1208 139.438 53.5042 138.738 53.7875C138.038 54.0625 137.238 54.2 136.338 54.2C135.171 54.2 134.167 53.9958 133.325 53.5875C132.483 53.1708 131.746 52.6042 131.113 51.8875L131.463 51.3375C131.563 51.2125 131.679 51.15 131.813 51.15C131.888 51.15 131.983 51.2 132.1 51.3C132.217 51.4 132.358 51.525 132.525 51.675C132.692 51.8167 132.892 51.975 133.125 52.15C133.358 52.3167 133.629 52.475 133.938 52.625C134.246 52.7667 134.6 52.8875 135 52.9875C135.4 53.0875 135.854 53.1375 136.363 53.1375C137.063 53.1375 137.688 53.0333 138.238 52.825C138.788 52.6083 139.25 52.3167 139.625 51.95C140.008 51.5833 140.3 51.15 140.5 50.65C140.7 50.1417 140.8 49.6 140.8 49.025C140.8 48.4 140.671 47.8875 140.413 47.4875C140.163 47.0792 139.829 46.7417 139.413 46.475C138.996 46.2 138.521 45.9708 137.988 45.7875C137.463 45.6042 136.921 45.425 136.363 45.25C135.804 45.075 135.258 44.8792 134.725 44.6625C134.2 44.4458 133.729 44.1708 133.313 43.8375C132.896 43.4958 132.558 43.075 132.3 42.575C132.05 42.0667 131.925 41.4333 131.925 40.675C131.925 40.0833 132.038 39.5125 132.263 38.9625C132.488 38.4125 132.817 37.9292 133.25 37.5125C133.683 37.0875 134.217 36.75 134.85 36.5C135.492 36.2417 136.221 36.1125 137.038 36.1125C137.954 36.1125 138.775 36.2583 139.5 36.55C140.233 36.8417 140.9 37.2875 141.5 37.8875L141.2 38.4625ZM147.279 54H145.991V36.3125H147.279V54ZM161.097 38.4625C161.022 38.6042 160.914 38.675 160.772 38.675C160.664 38.675 160.522 38.6 160.347 38.45C160.181 38.2917 159.952 38.1208 159.66 37.9375C159.368 37.7458 159.002 37.5708 158.56 37.4125C158.127 37.2542 157.589 37.175 156.947 37.175C156.306 37.175 155.739 37.2667 155.247 37.45C154.764 37.6333 154.356 37.8833 154.022 38.2C153.697 38.5167 153.447 38.8833 153.272 39.3C153.106 39.7167 153.022 40.1542 153.022 40.6125C153.022 41.2125 153.147 41.7083 153.397 42.1C153.656 42.4917 153.993 42.825 154.41 43.1C154.827 43.375 155.297 43.6083 155.822 43.8C156.356 43.9833 156.902 44.1667 157.46 44.35C158.018 44.5333 158.56 44.7375 159.085 44.9625C159.618 45.1792 160.093 45.4542 160.51 45.7875C160.927 46.1208 161.26 46.5333 161.51 47.025C161.768 47.5083 161.897 48.1125 161.897 48.8375C161.897 49.5792 161.768 50.2792 161.51 50.9375C161.26 51.5875 160.893 52.1542 160.41 52.6375C159.927 53.1208 159.335 53.5042 158.635 53.7875C157.935 54.0625 157.135 54.2 156.235 54.2C155.068 54.2 154.064 53.9958 153.222 53.5875C152.381 53.1708 151.643 52.6042 151.01 51.8875L151.36 51.3375C151.46 51.2125 151.577 51.15 151.71 51.15C151.785 51.15 151.881 51.2 151.997 51.3C152.114 51.4 152.256 51.525 152.422 51.675C152.589 51.8167 152.789 51.975 153.022 52.15C153.256 52.3167 153.527 52.475 153.835 52.625C154.143 52.7667 154.497 52.8875 154.897 52.9875C155.297 53.0875 155.752 53.1375 156.26 53.1375C156.96 53.1375 157.585 53.0333 158.135 52.825C158.685 52.6083 159.147 52.3167 159.522 51.95C159.906 51.5833 160.197 51.15 160.397 50.65C160.597 50.1417 160.697 49.6 160.697 49.025C160.697 48.4 160.568 47.8875 160.31 47.4875C160.06 47.0792 159.727 46.7417 159.31 46.475C158.893 46.2 158.418 45.9708 157.885 45.7875C157.36 45.6042 156.818 45.425 156.26 45.25C155.702 45.075 155.156 44.8792 154.622 44.6625C154.097 44.4458 153.627 44.1708 153.21 43.8375C152.793 43.4958 152.456 43.075 152.197 42.575C151.947 42.0667 151.822 41.4333 151.822 40.675C151.822 40.0833 151.935 39.5125 152.16 38.9625C152.385 38.4125 152.714 37.9292 153.147 37.5125C153.581 37.0875 154.114 36.75 154.747 36.5C155.389 36.2417 156.118 36.1125 156.935 36.1125C157.852 36.1125 158.672 36.2583 159.397 36.55C160.131 36.8417 160.797 37.2875 161.397 37.8875L161.097 38.4625ZM177.389 37.4H171.176V54H169.889V37.4H163.639V36.3125H177.389V37.4ZM190.991 52.9375L190.966 54H180.366V36.3125H190.966V37.375H181.654V44.525H189.404V45.5625H181.654V52.9375H190.991ZM212.343 36.3125V54H211.231V38.925C211.231 38.7083 211.243 38.4792 211.268 38.2375L204.306 50.6C204.189 50.8167 204.023 50.925 203.806 50.925H203.606C203.389 50.925 203.223 50.8167 203.106 50.6L195.956 38.2125C195.981 38.4625 195.993 38.7 195.993 38.925V54H194.868V36.3125H195.756C195.873 36.3125 195.964 36.325 196.031 36.35C196.098 36.375 196.164 36.4417 196.231 36.55L203.368 48.85C203.493 49.0833 203.602 49.3333 203.693 49.6C203.743 49.4667 203.798 49.3375 203.856 49.2125C203.914 49.0792 203.977 48.9542 204.043 48.8375L210.981 36.55C211.048 36.4417 211.114 36.375 211.181 36.35C211.256 36.325 211.352 36.3125 211.468 36.3125H212.343ZM227.111 47.575L223.511 38.6375C223.386 38.3458 223.265 37.9958 223.148 37.5875C223.098 37.7875 223.044 37.9792 222.986 38.1625C222.928 38.3375 222.865 38.5 222.798 38.65L219.198 47.575H227.111ZM231.023 54H230.036C229.919 54 229.823 53.9708 229.748 53.9125C229.673 53.8458 229.615 53.7625 229.573 53.6625L227.498 48.525H218.811L216.736 53.6625C216.703 53.7542 216.644 53.8333 216.561 53.9C216.478 53.9667 216.378 54 216.261 54H215.286L222.523 36.3125H223.786L231.023 54ZM242.543 38.4625C242.468 38.6042 242.359 38.675 242.218 38.675C242.109 38.675 241.968 38.6 241.793 38.45C241.626 38.2917 241.397 38.1208 241.105 37.9375C240.814 37.7458 240.447 37.5708 240.005 37.4125C239.572 37.2542 239.034 37.175 238.393 37.175C237.751 37.175 237.184 37.2667 236.693 37.45C236.209 37.6333 235.801 37.8833 235.468 38.2C235.143 38.5167 234.893 38.8833 234.718 39.3C234.551 39.7167 234.468 40.1542 234.468 40.6125C234.468 41.2125 234.593 41.7083 234.843 42.1C235.101 42.4917 235.439 42.825 235.855 43.1C236.272 43.375 236.743 43.6083 237.268 43.8C237.801 43.9833 238.347 44.1667 238.905 44.35C239.464 44.5333 240.005 44.7375 240.53 44.9625C241.064 45.1792 241.539 45.4542 241.955 45.7875C242.372 46.1208 242.705 46.5333 242.955 47.025C243.214 47.5083 243.343 48.1125 243.343 48.8375C243.343 49.5792 243.214 50.2792 242.955 50.9375C242.705 51.5875 242.339 52.1542 241.855 52.6375C241.372 53.1208 240.78 53.5042 240.08 53.7875C239.38 54.0625 238.58 54.2 237.68 54.2C236.514 54.2 235.509 53.9958 234.668 53.5875C233.826 53.1708 233.089 52.6042 232.455 51.8875L232.805 51.3375C232.905 51.2125 233.022 51.15 233.155 51.15C233.23 51.15 233.326 51.2 233.443 51.3C233.559 51.4 233.701 51.525 233.868 51.675C234.034 51.8167 234.234 51.975 234.468 52.15C234.701 52.3167 234.972 52.475 235.28 52.625C235.589 52.7667 235.943 52.8875 236.343 52.9875C236.743 53.0875 237.197 53.1375 237.705 53.1375C238.405 53.1375 239.03 53.0333 239.58 52.825C240.13 52.6083 240.593 52.3167 240.968 51.95C241.351 51.5833 241.643 51.15 241.843 50.65C242.043 50.1417 242.143 49.6 242.143 49.025C242.143 48.4 242.014 47.8875 241.755 47.4875C241.505 47.0792 241.172 46.7417 240.755 46.475C240.339 46.2 239.864 45.9708 239.33 45.7875C238.805 45.6042 238.264 45.425 237.705 45.25C237.147 45.075 236.601 44.8792 236.068 44.6625C235.543 44.4458 235.072 44.1708 234.655 43.8375C234.239 43.4958 233.901 43.075 233.643 42.575C233.393 42.0667 233.268 41.4333 233.268 40.675C233.268 40.0833 233.38 39.5125 233.605 38.9625C233.83 38.4125 234.159 37.9292 234.593 37.5125C235.026 37.0875 235.559 36.75 236.193 36.5C236.834 36.2417 237.564 36.1125 238.38 36.1125C239.297 36.1125 240.118 36.2583 240.843 36.55C241.576 36.8417 242.243 37.2875 242.843 37.8875L242.543 38.4625ZM275.772 36.3125L270.21 54H269.06L263.835 38.65C263.768 38.4417 263.71 38.225 263.66 38C263.61 38.225 263.551 38.4417 263.485 38.65L258.247 54H257.11L251.535 36.3125H252.597C252.839 36.3125 252.993 36.425 253.06 36.65L257.522 51.1875C257.614 51.5208 257.697 51.9 257.772 52.325C257.814 52.1083 257.856 51.9083 257.897 51.725C257.939 51.5333 257.989 51.3542 258.047 51.1875L263.047 36.65C263.081 36.5583 263.139 36.4792 263.222 36.4125C263.306 36.3458 263.406 36.3125 263.522 36.3125H263.872C263.989 36.3125 264.085 36.3458 264.16 36.4125C264.235 36.4708 264.293 36.55 264.335 36.65L269.335 51.1875C269.393 51.3458 269.443 51.5208 269.485 51.7125C269.535 51.9042 269.581 52.1042 269.622 52.3125C269.664 52.1042 269.701 51.9083 269.735 51.725C269.776 51.5333 269.818 51.3542 269.86 51.1875L274.322 36.65C274.347 36.5583 274.401 36.4792 274.485 36.4125C274.576 36.3458 274.681 36.3125 274.797 36.3125H275.772ZM289.6 52.9375L289.575 54H278.975V36.3125H289.575V37.375H280.262V44.525H288.012V45.5625H280.262V52.9375H289.6ZM299.202 52.975C300.752 52.975 301.923 52.6417 302.714 51.975C303.514 51.3 303.914 50.3542 303.914 49.1375C303.914 48.5792 303.806 48.0792 303.589 47.6375C303.381 47.1875 303.077 46.8083 302.677 46.5C302.277 46.1833 301.785 45.9417 301.202 45.775C300.618 45.6083 299.956 45.525 299.214 45.525H294.764V52.975H299.202ZM294.764 37.325V44.5875H298.589C299.406 44.5875 300.102 44.4833 300.677 44.275C301.26 44.0667 301.735 43.7917 302.102 43.45C302.477 43.1083 302.752 42.7208 302.927 42.2875C303.102 41.8542 303.189 41.4083 303.189 40.95C303.189 39.7583 302.81 38.8583 302.052 38.25C301.302 37.6333 300.139 37.325 298.564 37.325H294.764ZM298.564 36.3125C299.573 36.3125 300.448 36.4125 301.189 36.6125C301.931 36.8125 302.543 37.1083 303.027 37.5C303.51 37.8833 303.868 38.3542 304.102 38.9125C304.335 39.4708 304.452 40.1042 304.452 40.8125C304.452 41.2792 304.368 41.7292 304.202 42.1625C304.043 42.5958 303.81 42.9958 303.502 43.3625C303.202 43.7292 302.827 44.05 302.377 44.325C301.935 44.5917 301.427 44.7958 300.852 44.9375C302.243 45.1375 303.31 45.6 304.052 46.325C304.802 47.0417 305.177 47.9875 305.177 49.1625C305.177 49.9125 305.043 50.5875 304.777 51.1875C304.51 51.7875 304.123 52.2958 303.614 52.7125C303.106 53.1292 302.481 53.45 301.739 53.675C300.998 53.8917 300.156 54 299.214 54H293.477V36.3125H298.564Z" fill="white"/>
<path d="M85.2205 32.2068V27.4165C85.2205 26.1461 84.7158 24.9277 83.8175 24.0293C82.9191 23.131 81.7007 22.6263 80.4302 22.6263H51.6887C50.4183 22.6263 49.1999 23.131 48.3015 24.0293C47.4032 24.9277 46.8985 26.1461 46.8985 27.4165V44.1824C46.8985 45.4529 47.4032 46.6713 48.3015 47.5696C49.1999 48.468 50.4183 48.9726 51.6887 48.9726H70.8497" stroke="#0CD28B" stroke-linecap="round" stroke-linejoin="round"/>
<path d="M66.0595 58.5531V49.0684V56.6131" stroke="#0CD28B" stroke-width="2" stroke-linecap="round" stroke-linejoin="round"/>
<path d="M58.8741 58.5532H70.8498" stroke="#0CD28B" stroke-width="2" stroke-linecap="round" stroke-linejoin="round"/>
<path d="M90.0107 41.7873H85.2205C82.5749 41.7873 80.4302 43.932 80.4302 46.5775V60.9483C80.4302 63.5939 82.5749 65.7385 85.2205 65.7385H90.0107C92.6563 65.7385 94.801 63.5939 94.801 60.9483V46.5775C94.801 43.932 92.6563 41.7873 90.0107 41.7873Z" stroke="#0CD28B" stroke-linecap="round" stroke-linejoin="round"/>
<defs>
<filter id="filter0_d_638_13" x="0" y="0" width="390" height="99.7557" filterUnits="userSpaceOnUse" color-interpolation-filters="sRGB">
<feFlood flood-opacity="0" result="BackgroundImageFix"/>
<feColorMatrix in="SourceAlpha" type="matrix" values="0 0 0 0 0 0 0 0 0 0 0 0 0 0 0 0 0 0 127 0" result="hardAlpha"/>
<feMorphology radius="1" operator="dilate" in="SourceAlpha" result="effect1_dropShadow_638_13"/>
<feOffset dy="8"/>
<feGaussianBlur stdDeviation="3"/>
<feComposite in2="hardAlpha" operator="out"/>
<feColorMatrix type="matrix" values="0 0 0 0 0 0 0 0 0 0 0 0 0 0 0 0 0 0 0.79 0"/>
<feBlend mode="normal" in2="BackgroundImageFix" result="effect1_dropShadow_638_13"/>
<feBlend mode="normal" in="SourceGraphic" in2="effect1_dropShadow_638_13" result="shape"/>
</filter>
<linearGradient id="paint0_linear_638_13" x1="195" y1="0" x2="195" y2="84.7557" gradientUnits="userSpaceOnUse">
<stop stop-color="#30D95F"/>
<stop offset="1" stop-color="#2976C6"/>
</linearGradient>
</defs>
</svg>
