<svg width="87" height="87" viewBox="0 0 87 87" fill="none" xmlns="http://www.w3.org/2000/svg">
<path d="M68.305 31.3124L49.1329 16.4004C47.4504 15.0915 45.3795 14.3808 43.2478 14.3808C41.1162 14.3808 39.0453 15.0915 37.3628 16.4004L18.1871 31.3124C17.0347 32.2086 16.1023 33.3563 15.4612 34.6678C14.8201 35.9794 14.4872 37.4201 14.4878 38.8799V64.7639C14.4878 66.6708 15.2454 68.4996 16.5937 69.848C17.9421 71.1964 19.7709 71.9539 21.6778 71.9539H64.8178C66.7247 71.9539 68.5536 71.1964 69.9019 69.848C71.2503 68.4996 72.0078 66.6708 72.0078 64.7639V38.8799C72.0078 35.9212 70.6417 33.1279 68.305 31.3124Z" stroke="#16DB65" stroke-width="7.19" stroke-linecap="round" stroke-linejoin="round"/>
<path d="M57.52 53.925C49.575 58.7171 36.6978 58.7171 28.76 53.925" stroke="#16DB65" stroke-width="7.19" stroke-linecap="round" stroke-linejoin="round"/>
</svg>
