<svg width="390" height="99" viewBox="0 0 390 99" fill="none" xmlns="http://www.w3.org/2000/svg">
<g filter="url(#filter0_d_713_45)">
<rect x="7" y="0.667969" width="376" height="83.2366" rx="41.6183" fill="#1D1E18"/>
<rect x="7.25" y="0.917969" width="375.5" height="82.7366" rx="41.3683" stroke="url(#paint0_linear_713_45)" stroke-width="0.5"/>
</g>
<path d="M63.7286 36.7954H63.7483" stroke="#0CD28B" stroke-width="2" stroke-linecap="round" stroke-linejoin="round"/>
<path d="M78.1421 36.7954H78.1618" stroke="#0CD28B" stroke-width="2" stroke-linecap="round" stroke-linejoin="round"/>
<path d="M70.9354 17.5774C65.8384 17.5774 60.9502 19.6021 57.3462 23.2062C53.7421 26.8103 51.7173 31.6985 51.7173 36.7954V65.6225L58.9241 58.4158L64.9297 64.4214L70.9354 58.4158L76.941 64.4214L82.9467 58.4158L90.1534 65.6225V36.7954C90.1534 31.6985 88.1287 26.8103 84.5246 23.2062C80.9205 19.6021 76.0323 17.5774 70.9354 17.5774Z" stroke="#0CD28B" stroke-linecap="round" stroke-linejoin="round"/>
<g filter="url(#filter1_dd_713_45)">
<path d="M137.139 29.804L133.107 19.794C132.967 19.4673 132.832 19.0753 132.701 18.618C132.645 18.842 132.585 19.0567 132.519 19.262C132.454 19.458 132.384 19.64 132.309 19.808L128.277 29.804H137.139ZM141.521 37H140.415C140.285 37 140.177 36.9673 140.093 36.902C140.009 36.8273 139.944 36.734 139.897 36.622L137.573 30.868H127.843L125.519 36.622C125.482 36.7247 125.417 36.8133 125.323 36.888C125.23 36.9627 125.118 37 124.987 37H123.895L132.001 17.19H133.415L141.521 37ZM160.093 17.19V37H159.421C159.3 37 159.197 36.9813 159.113 36.944C159.038 36.8973 158.964 36.8227 158.889 36.72L146.023 19.528C146.051 19.808 146.065 20.074 146.065 20.326V37H144.805V17.19H145.519C145.65 17.19 145.748 17.2087 145.813 17.246C145.888 17.274 145.967 17.344 146.051 17.456L158.889 34.606C158.861 34.326 158.847 34.06 158.847 33.808V17.19H160.093ZM167.384 37H165.942V17.19H167.384V37ZM192.814 17.19V37H191.568V20.116C191.568 19.8733 191.582 19.6167 191.61 19.346L183.812 33.192C183.682 33.4347 183.495 33.556 183.252 33.556H183.028C182.786 33.556 182.599 33.4347 182.468 33.192L174.46 19.318C174.488 19.598 174.502 19.864 174.502 20.116V37H173.242V17.19H174.236C174.367 17.19 174.47 17.204 174.544 17.232C174.619 17.26 174.694 17.3347 174.768 17.456L182.762 31.232C182.902 31.4933 183.024 31.7733 183.126 32.072C183.182 31.9227 183.243 31.778 183.308 31.638C183.374 31.4887 183.444 31.3487 183.518 31.218L191.288 17.456C191.363 17.3347 191.438 17.26 191.512 17.232C191.596 17.204 191.704 17.19 191.834 17.19H192.814ZM209.354 29.804L205.322 19.794C205.182 19.4673 205.047 19.0753 204.916 18.618C204.86 18.842 204.799 19.0567 204.734 19.262C204.669 19.458 204.599 19.64 204.524 19.808L200.492 29.804H209.354ZM213.736 37H212.63C212.499 37 212.392 36.9673 212.308 36.902C212.224 36.8273 212.159 36.734 212.112 36.622L209.788 30.868H200.058L197.734 36.622C197.697 36.7247 197.631 36.8133 197.538 36.888C197.445 36.9627 197.333 37 197.202 37H196.11L204.216 17.19H205.63L213.736 37ZM231.674 34.368C231.282 34.788 230.858 35.1707 230.4 35.516C229.943 35.852 229.439 36.1413 228.888 36.384C228.347 36.6267 227.754 36.8227 227.11 36.972C226.476 37.112 225.776 37.196 225.01 37.224L224.674 38.316C225.524 38.456 226.163 38.666 226.592 38.946C227.031 39.2353 227.25 39.6553 227.25 40.206C227.25 40.486 227.185 40.738 227.054 40.962C226.933 41.186 226.756 41.3727 226.522 41.522C226.298 41.6807 226.028 41.7973 225.71 41.872C225.393 41.956 225.048 41.998 224.674 41.998C224.292 41.998 223.918 41.942 223.554 41.83C223.19 41.7273 222.887 41.5873 222.644 41.41L222.784 41.018C222.84 40.9153 222.915 40.864 223.008 40.864C223.055 40.864 223.116 40.8873 223.19 40.934C223.274 40.99 223.377 41.046 223.498 41.102C223.629 41.158 223.788 41.2093 223.974 41.256C224.161 41.312 224.39 41.34 224.66 41.34C225.146 41.34 225.519 41.2373 225.78 41.032C226.042 40.8267 226.172 40.5513 226.172 40.206C226.172 39.9727 226.112 39.7767 225.99 39.618C225.869 39.4593 225.696 39.3287 225.472 39.226C225.258 39.1327 224.996 39.0533 224.688 38.988C224.39 38.932 224.058 38.8807 223.694 38.834L224.212 37.224C222.887 37.1773 221.678 36.9067 220.586 36.412C219.494 35.908 218.556 35.2173 217.772 34.34C216.988 33.4533 216.377 32.3987 215.938 31.176C215.509 29.9533 215.294 28.5907 215.294 27.088C215.294 25.5853 215.528 24.2133 215.994 22.972C216.461 21.7307 217.114 20.6667 217.954 19.78C218.794 18.884 219.802 18.1933 220.978 17.708C222.154 17.2133 223.452 16.966 224.87 16.966C226.224 16.966 227.423 17.176 228.468 17.596C229.514 18.016 230.466 18.6087 231.324 19.374L230.89 20.004C230.816 20.116 230.699 20.172 230.54 20.172C230.428 20.172 230.246 20.0693 229.994 19.864C229.742 19.6587 229.392 19.4347 228.944 19.192C228.496 18.94 227.936 18.7113 227.264 18.506C226.602 18.3007 225.804 18.198 224.87 18.198C223.676 18.198 222.579 18.4033 221.58 18.814C220.591 19.2247 219.737 19.8127 219.018 20.578C218.309 21.3433 217.754 22.2767 217.352 23.378C216.951 24.4793 216.75 25.716 216.75 27.088C216.75 28.488 216.951 29.7387 217.352 30.84C217.763 31.9413 218.323 32.8747 219.032 33.64C219.742 34.396 220.577 34.9793 221.538 35.39C222.509 35.7913 223.554 35.992 224.674 35.992C225.384 35.992 226.014 35.9453 226.564 35.852C227.124 35.7587 227.638 35.6187 228.104 35.432C228.571 35.2453 229.005 35.0167 229.406 34.746C229.808 34.4753 230.204 34.158 230.596 33.794C230.643 33.7567 230.69 33.7287 230.736 33.71C230.783 33.682 230.83 33.668 230.876 33.668C230.97 33.668 231.049 33.7007 231.114 33.766L231.674 34.368ZM252.774 27.088C252.774 28.6187 252.545 30.0093 252.088 31.26C251.631 32.5013 250.987 33.5653 250.156 34.452C249.325 35.3293 248.327 36.0107 247.16 36.496C246.003 36.972 244.724 37.21 243.324 37.21C241.924 37.21 240.645 36.972 239.488 36.496C238.331 36.0107 237.337 35.3293 236.506 34.452C235.675 33.5653 235.031 32.5013 234.574 31.26C234.117 30.0093 233.888 28.6187 233.888 27.088C233.888 25.5667 234.117 24.1853 234.574 22.944C235.031 21.6933 235.675 20.6293 236.506 19.752C237.337 18.8653 238.331 18.1793 239.488 17.694C240.645 17.2087 241.924 16.966 243.324 16.966C244.724 16.966 246.003 17.2087 247.16 17.694C248.327 18.17 249.325 18.8513 250.156 19.738C250.987 20.6247 251.631 21.6933 252.088 22.944C252.545 24.1853 252.774 25.5667 252.774 27.088ZM251.29 27.088C251.29 25.7067 251.099 24.4653 250.716 23.364C250.333 22.2627 249.792 21.3293 249.092 20.564C248.392 19.7987 247.552 19.2153 246.572 18.814C245.592 18.4033 244.509 18.198 243.324 18.198C242.148 18.198 241.07 18.4033 240.09 18.814C239.11 19.2153 238.265 19.7987 237.556 20.564C236.856 21.3293 236.31 22.2627 235.918 23.364C235.535 24.4653 235.344 25.7067 235.344 27.088C235.344 28.4787 235.535 29.7247 235.918 30.826C236.31 31.918 236.856 32.8467 237.556 33.612C238.265 34.3773 239.11 34.9607 240.09 35.362C241.07 35.7633 242.148 35.964 243.324 35.964C244.509 35.964 245.592 35.7633 246.572 35.362C247.552 34.9607 248.392 34.3773 249.092 33.612C249.792 32.8467 250.333 31.918 250.716 30.826C251.099 29.7247 251.29 28.4787 251.29 27.088ZM245.13 14.376C245.354 14.376 245.555 14.334 245.732 14.25C245.909 14.166 246.059 14.054 246.18 13.914C246.301 13.774 246.395 13.6153 246.46 13.438C246.525 13.2513 246.558 13.06 246.558 12.864H247.384C247.384 13.1907 247.337 13.5033 247.244 13.802C247.151 14.0913 247.011 14.348 246.824 14.572C246.647 14.796 246.427 14.9733 246.166 15.104C245.905 15.2347 245.601 15.3 245.256 15.3C244.901 15.3 244.57 15.2207 244.262 15.062C243.954 14.894 243.655 14.7167 243.366 14.53C243.086 14.334 242.811 14.1567 242.54 13.998C242.269 13.83 242.003 13.746 241.742 13.746C241.527 13.746 241.331 13.788 241.154 13.872C240.986 13.956 240.837 14.068 240.706 14.208C240.585 14.348 240.491 14.5113 240.426 14.698C240.361 14.8753 240.323 15.062 240.314 15.258H239.46C239.46 14.9407 239.507 14.6373 239.6 14.348C239.703 14.0493 239.847 13.788 240.034 13.564C240.221 13.34 240.445 13.1627 240.706 13.032C240.977 12.892 241.28 12.822 241.616 12.822C241.98 12.822 242.316 12.906 242.624 13.074C242.932 13.2327 243.226 13.41 243.506 13.606C243.795 13.7927 244.071 13.97 244.332 14.138C244.593 14.2967 244.859 14.376 245.13 14.376ZM269.224 35.81L269.196 37H257.324V17.19H269.196V18.38H258.766V26.388H267.446V27.55H258.766V35.81H269.224ZM283.185 19.598C283.101 19.7567 282.979 19.836 282.821 19.836C282.699 19.836 282.541 19.752 282.345 19.584C282.158 19.4067 281.901 19.2153 281.575 19.01C281.248 18.7953 280.837 18.5993 280.343 18.422C279.857 18.2447 279.255 18.156 278.537 18.156C277.818 18.156 277.183 18.2587 276.633 18.464C276.091 18.6693 275.634 18.9493 275.261 19.304C274.897 19.6587 274.617 20.0693 274.421 20.536C274.234 21.0027 274.141 21.4927 274.141 22.006C274.141 22.678 274.281 23.2333 274.561 23.672C274.85 24.1107 275.228 24.484 275.695 24.792C276.161 25.1 276.689 25.3613 277.277 25.576C277.874 25.7813 278.485 25.9867 279.111 26.192C279.736 26.3973 280.343 26.626 280.931 26.878C281.528 27.1207 282.06 27.4287 282.527 27.802C282.993 28.1753 283.367 28.6373 283.647 29.188C283.936 29.7293 284.081 30.406 284.081 31.218C284.081 32.0487 283.936 32.8327 283.647 33.57C283.367 34.298 282.956 34.9327 282.415 35.474C281.873 36.0153 281.211 36.4447 280.427 36.762C279.643 37.07 278.747 37.224 277.739 37.224C276.432 37.224 275.307 36.9953 274.365 36.538C273.422 36.0713 272.596 35.4367 271.887 34.634L272.279 34.018C272.391 33.878 272.521 33.808 272.671 33.808C272.755 33.808 272.862 33.864 272.993 33.976C273.123 34.088 273.282 34.228 273.469 34.396C273.655 34.5547 273.879 34.732 274.141 34.928C274.402 35.1147 274.705 35.292 275.051 35.46C275.396 35.6187 275.793 35.754 276.241 35.866C276.689 35.978 277.197 36.034 277.767 36.034C278.551 36.034 279.251 35.9173 279.867 35.684C280.483 35.4413 281.001 35.1147 281.421 34.704C281.85 34.2933 282.177 33.808 282.401 33.248C282.625 32.6787 282.737 32.072 282.737 31.428C282.737 30.728 282.592 30.154 282.303 29.706C282.023 29.2487 281.649 28.8707 281.183 28.572C280.716 28.264 280.184 28.0073 279.587 27.802C278.999 27.5967 278.392 27.396 277.767 27.2C277.141 27.004 276.53 26.7847 275.933 26.542C275.345 26.2993 274.817 25.9913 274.351 25.618C273.884 25.2353 273.506 24.764 273.217 24.204C272.937 23.6347 272.797 22.9253 272.797 22.076C272.797 21.4133 272.923 20.774 273.175 20.158C273.427 19.542 273.795 19.0007 274.281 18.534C274.766 18.058 275.363 17.68 276.073 17.4C276.791 17.1107 277.608 16.966 278.523 16.966C279.549 16.966 280.469 17.1293 281.281 17.456C282.102 17.7827 282.849 18.282 283.521 18.954L283.185 19.598ZM308.053 35.81L308.025 37H296.153V17.19H308.025V18.38H297.595V26.388H306.275V27.55H297.595V35.81H308.053ZM185.35 61.088C185.35 62.6187 185.122 63.9953 184.664 65.218C184.207 66.4407 183.563 67.4813 182.732 68.34C181.902 69.1987 180.903 69.8567 179.736 70.314C178.579 70.7713 177.3 71 175.9 71H168.662V51.19H175.9C177.3 51.19 178.579 51.4187 179.736 51.876C180.903 52.3333 181.902 52.9913 182.732 53.85C183.563 54.7087 184.207 55.7493 184.664 56.972C185.122 58.1947 185.35 59.5667 185.35 61.088ZM183.866 61.088C183.866 59.7067 183.675 58.4747 183.292 57.392C182.91 56.3093 182.368 55.3947 181.668 54.648C180.968 53.9013 180.128 53.332 179.148 52.94C178.168 52.548 177.086 52.352 175.9 52.352H170.104V69.838H175.9C177.086 69.838 178.168 69.642 179.148 69.25C180.128 68.858 180.968 68.2887 181.668 67.542C182.368 66.7953 182.91 65.8807 183.292 64.798C183.675 63.7153 183.866 62.4787 183.866 61.088ZM201.836 69.81L201.808 71H189.936V51.19H201.808V52.38H191.378V60.388H200.058V61.55H191.378V69.81H201.836ZM215.796 53.598C215.712 53.7567 215.591 53.836 215.432 53.836C215.311 53.836 215.152 53.752 214.956 53.584C214.769 53.4067 214.513 53.2153 214.186 53.01C213.859 52.7953 213.449 52.5993 212.954 52.422C212.469 52.2447 211.867 52.156 211.148 52.156C210.429 52.156 209.795 52.2587 209.244 52.464C208.703 52.6693 208.245 52.9493 207.872 53.304C207.508 53.6587 207.228 54.0693 207.032 54.536C206.845 55.0027 206.752 55.4927 206.752 56.006C206.752 56.678 206.892 57.2333 207.172 57.672C207.461 58.1107 207.839 58.484 208.306 58.792C208.773 59.1 209.3 59.3613 209.888 59.576C210.485 59.7813 211.097 59.9867 211.722 60.192C212.347 60.3973 212.954 60.626 213.542 60.878C214.139 61.1207 214.671 61.4287 215.138 61.802C215.605 62.1753 215.978 62.6373 216.258 63.188C216.547 63.7293 216.692 64.406 216.692 65.218C216.692 66.0487 216.547 66.8327 216.258 67.57C215.978 68.298 215.567 68.9327 215.026 69.474C214.485 70.0153 213.822 70.4447 213.038 70.762C212.254 71.07 211.358 71.224 210.35 71.224C209.043 71.224 207.919 70.9953 206.976 70.538C206.033 70.0713 205.207 69.4367 204.498 68.634L204.89 68.018C205.002 67.878 205.133 67.808 205.282 67.808C205.366 67.808 205.473 67.864 205.604 67.976C205.735 68.088 205.893 68.228 206.08 68.396C206.267 68.5547 206.491 68.732 206.752 68.928C207.013 69.1147 207.317 69.292 207.662 69.46C208.007 69.6187 208.404 69.754 208.852 69.866C209.3 69.978 209.809 70.034 210.378 70.034C211.162 70.034 211.862 69.9173 212.478 69.684C213.094 69.4413 213.612 69.1147 214.032 68.704C214.461 68.2933 214.788 67.808 215.012 67.248C215.236 66.6787 215.348 66.072 215.348 65.428C215.348 64.728 215.203 64.154 214.914 63.706C214.634 63.2487 214.261 62.8707 213.794 62.572C213.327 62.264 212.795 62.0073 212.198 61.802C211.61 61.5967 211.003 61.396 210.378 61.2C209.753 61.004 209.141 60.7847 208.544 60.542C207.956 60.2993 207.429 59.9913 206.962 59.618C206.495 59.2353 206.117 58.764 205.828 58.204C205.548 57.6347 205.408 56.9253 205.408 56.076C205.408 55.4133 205.534 54.774 205.786 54.158C206.038 53.542 206.407 53.0007 206.892 52.534C207.377 52.058 207.975 51.68 208.684 51.4C209.403 51.1107 210.219 50.966 211.134 50.966C212.161 50.966 213.08 51.1293 213.892 51.456C214.713 51.7827 215.46 52.282 216.132 52.954L215.796 53.598ZM222.604 71H221.162V51.19H222.604V71ZM244.283 62.012V69.054C243.294 69.754 242.239 70.2907 241.119 70.664C239.999 71.0373 238.739 71.224 237.339 71.224C235.771 71.224 234.362 70.986 233.111 70.51C231.86 70.0247 230.792 69.3433 229.905 68.466C229.028 67.5793 228.351 66.5107 227.875 65.26C227.408 64.0093 227.175 62.6187 227.175 61.088C227.175 59.5573 227.404 58.1713 227.861 56.93C228.328 55.6793 228.99 54.6153 229.849 53.738C230.717 52.8513 231.762 52.17 232.985 51.694C234.208 51.2087 235.584 50.966 237.115 50.966C237.871 50.966 238.566 51.0173 239.201 51.12C239.845 51.2227 240.442 51.3767 240.993 51.582C241.544 51.778 242.057 52.0253 242.533 52.324C243.009 52.6133 243.466 52.9493 243.905 53.332L243.513 53.948C243.382 54.172 243.186 54.2233 242.925 54.102C242.785 54.046 242.584 53.9153 242.323 53.71C242.062 53.5047 241.702 53.29 241.245 53.066C240.788 52.842 240.218 52.6413 239.537 52.464C238.865 52.2867 238.044 52.198 237.073 52.198C235.785 52.198 234.618 52.4033 233.573 52.814C232.537 53.2247 231.65 53.8127 230.913 54.578C230.185 55.3433 229.62 56.2767 229.219 57.378C228.827 58.4793 228.631 59.716 228.631 61.088C228.631 62.4787 228.827 63.7293 229.219 64.84C229.62 65.9507 230.194 66.8933 230.941 67.668C231.697 68.4427 232.612 69.0353 233.685 69.446C234.758 69.8567 235.967 70.062 237.311 70.062C237.899 70.062 238.44 70.0247 238.935 69.95C239.439 69.8753 239.915 69.7727 240.363 69.642C240.82 69.502 241.259 69.334 241.679 69.138C242.108 68.9327 242.542 68.704 242.981 68.452V63.118H239.187C239.084 63.118 238.996 63.0853 238.921 63.02C238.856 62.9547 238.823 62.88 238.823 62.796V62.012H244.283ZM264.341 51.19V71H263.669C263.548 71 263.445 70.9813 263.361 70.944C263.286 70.8973 263.212 70.8227 263.137 70.72L250.271 53.528C250.299 53.808 250.313 54.074 250.313 54.326V71H249.053V51.19H249.767C249.898 51.19 249.996 51.2087 250.061 51.246C250.136 51.274 250.215 51.344 250.299 51.456L263.137 68.606C263.109 68.326 263.095 68.06 263.095 67.808V51.19H264.341Z" fill="white"/>
</g>
<defs>
<filter id="filter0_d_713_45" x="0" y="0.667969" width="390" height="98.2366" filterUnits="userSpaceOnUse" color-interpolation-filters="sRGB">
<feFlood flood-opacity="0" result="BackgroundImageFix"/>
<feColorMatrix in="SourceAlpha" type="matrix" values="0 0 0 0 0 0 0 0 0 0 0 0 0 0 0 0 0 0 127 0" result="hardAlpha"/>
<feMorphology radius="1" operator="dilate" in="SourceAlpha" result="effect1_dropShadow_713_45"/>
<feOffset dy="8"/>
<feGaussianBlur stdDeviation="3"/>
<feComposite in2="hardAlpha" operator="out"/>
<feColorMatrix type="matrix" values="0 0 0 0 0 0 0 0 0 0 0 0 0 0 0 0 0 0 0.79 0"/>
<feBlend mode="normal" in2="BackgroundImageFix" result="effect1_dropShadow_713_45"/>
<feBlend mode="normal" in="SourceGraphic" in2="effect1_dropShadow_713_45" result="shape"/>
</filter>
<filter id="filter1_dd_713_45" x="117.85" y="6.77702" width="196.247" height="70.4921" filterUnits="userSpaceOnUse" color-interpolation-filters="sRGB">
<feFlood flood-opacity="0" result="BackgroundImageFix"/>
<feColorMatrix in="SourceAlpha" type="matrix" values="0 0 0 0 0 0 0 0 0 0 0 0 0 0 0 0 0 0 127 0" result="hardAlpha"/>
<feOffset/>
<feGaussianBlur stdDeviation="1.51125"/>
<feColorMatrix type="matrix" values="0 0 0 0 0.262745 0 0 0 0 0.694118 0 0 0 0 0.541176 0 0 0 0.3 0"/>
<feBlend mode="normal" in2="BackgroundImageFix" result="effect1_dropShadow_713_45"/>
<feColorMatrix in="SourceAlpha" type="matrix" values="0 0 0 0 0 0 0 0 0 0 0 0 0 0 0 0 0 0 127 0" result="hardAlpha"/>
<feOffset/>
<feGaussianBlur stdDeviation="3.0225"/>
<feColorMatrix type="matrix" values="0 0 0 0 0.263837 0 0 0 0 0.695833 0 0 0 0 0.540315 0 0 0 1 0"/>
<feBlend mode="normal" in2="effect1_dropShadow_713_45" result="effect2_dropShadow_713_45"/>
<feBlend mode="normal" in="SourceGraphic" in2="effect2_dropShadow_713_45" result="shape"/>
</filter>
<linearGradient id="paint0_linear_713_45" x1="195" y1="0.667969" x2="195" y2="83.9046" gradientUnits="userSpaceOnUse">
<stop stop-color="#30D95F"/>
<stop offset="1" stop-color="#2976C6"/>
</linearGradient>
</defs>
</svg>
