<svg width="390" height="99" viewBox="0 0 390 99" fill="none" xmlns="http://www.w3.org/2000/svg">
<g filter="url(#filter0_d_638_28)">
<rect x="7" y="0.667969" width="376" height="83.2366" rx="41.6183" fill="#1D1E18"/>
<rect x="7.25" y="0.917969" width="375.5" height="82.7366" rx="41.3683" stroke="url(#paint0_linear_638_28)" stroke-width="0.5"/>
</g>
<path d="M153.62 30.8558L150.02 21.9183C149.895 21.6267 149.774 21.2767 149.657 20.8683C149.607 21.0683 149.553 21.26 149.495 21.4433C149.436 21.6183 149.374 21.7808 149.307 21.9308L145.707 30.8558H153.62ZM157.532 37.2808H156.545C156.428 37.2808 156.332 37.2517 156.257 37.1933C156.182 37.1267 156.124 37.0433 156.082 36.9433L154.007 31.8058H145.32L143.245 36.9433C143.211 37.035 143.153 37.1142 143.07 37.1808C142.986 37.2475 142.886 37.2808 142.77 37.2808H141.795L149.032 19.5933H150.295L157.532 37.2808ZM174.114 19.5933V37.2808H173.514C173.406 37.2808 173.314 37.2642 173.239 37.2308C173.172 37.1892 173.106 37.1225 173.039 37.0308L161.552 21.6808C161.577 21.9308 161.589 22.1683 161.589 22.3933V37.2808H160.464V19.5933H161.102C161.218 19.5933 161.306 19.61 161.364 19.6433C161.431 19.6683 161.502 19.7308 161.577 19.8308L173.039 35.1433C173.014 34.8933 173.002 34.6558 173.002 34.4308V19.5933H174.114ZM180.624 37.2808H179.336V19.5933H180.624V37.2808ZM203.33 19.5933V37.2808H202.217V22.2058C202.217 21.9892 202.23 21.76 202.255 21.5183L195.292 33.8808C195.176 34.0975 195.009 34.2058 194.792 34.2058H194.592C194.376 34.2058 194.209 34.0975 194.092 33.8808L186.942 21.4933C186.967 21.7433 186.98 21.9808 186.98 22.2058V37.2808H185.855V19.5933H186.742C186.859 19.5933 186.951 19.6058 187.017 19.6308C187.084 19.6558 187.151 19.7225 187.217 19.8308L194.355 32.1308C194.48 32.3642 194.588 32.6142 194.68 32.8808C194.73 32.7475 194.784 32.6183 194.842 32.4933C194.901 32.36 194.963 32.235 195.03 32.1183L201.967 19.8308C202.034 19.7225 202.101 19.6558 202.167 19.6308C202.242 19.6058 202.338 19.5933 202.455 19.5933H203.33ZM218.097 30.8558L214.497 21.9183C214.372 21.6267 214.252 21.2767 214.135 20.8683C214.085 21.0683 214.031 21.26 213.972 21.4433C213.914 21.6183 213.852 21.7808 213.785 21.9308L210.185 30.8558H218.097ZM222.01 37.2808H221.022C220.906 37.2808 220.81 37.2517 220.735 37.1933C220.66 37.1267 220.602 37.0433 220.56 36.9433L218.485 31.8058H209.797L207.722 36.9433C207.689 37.035 207.631 37.1142 207.547 37.1808C207.464 37.2475 207.364 37.2808 207.247 37.2808H206.272L213.51 19.5933H214.772L222.01 37.2808ZM238.026 34.9308C237.676 35.3058 237.297 35.6475 236.889 35.9558C236.48 36.2558 236.03 36.5142 235.539 36.7308C235.055 36.9475 234.526 37.1225 233.951 37.2558C233.384 37.3808 232.759 37.4558 232.076 37.4808L231.776 38.4558C232.534 38.5808 233.105 38.7683 233.489 39.0183C233.88 39.2767 234.076 39.6517 234.076 40.1433C234.076 40.3933 234.018 40.6183 233.901 40.8183C233.793 41.0183 233.634 41.185 233.426 41.3183C233.226 41.46 232.984 41.5642 232.701 41.6308C232.418 41.7058 232.109 41.7433 231.776 41.7433C231.434 41.7433 231.101 41.6933 230.776 41.5933C230.451 41.5017 230.18 41.3767 229.964 41.2183L230.089 40.8683C230.139 40.7767 230.205 40.7308 230.289 40.7308C230.33 40.7308 230.384 40.7517 230.451 40.7933C230.526 40.8433 230.618 40.8933 230.726 40.9433C230.843 40.9933 230.984 41.0392 231.151 41.0808C231.318 41.1308 231.522 41.1558 231.764 41.1558C232.197 41.1558 232.53 41.0642 232.764 40.8808C232.997 40.6975 233.114 40.4517 233.114 40.1433C233.114 39.935 233.059 39.76 232.951 39.6183C232.843 39.4767 232.689 39.36 232.489 39.2683C232.297 39.185 232.064 39.1142 231.789 39.0558C231.522 39.0058 231.226 38.96 230.901 38.9183L231.364 37.4808C230.18 37.4392 229.101 37.1975 228.126 36.7558C227.151 36.3058 226.314 35.6892 225.614 34.9058C224.914 34.1142 224.368 33.1725 223.976 32.0808C223.593 30.9892 223.401 29.7725 223.401 28.4308C223.401 27.0892 223.609 25.8642 224.026 24.7558C224.443 23.6475 225.026 22.6975 225.776 21.9058C226.526 21.1058 227.426 20.4892 228.476 20.0558C229.526 19.6142 230.684 19.3933 231.951 19.3933C233.159 19.3933 234.23 19.5808 235.164 19.9558C236.097 20.3308 236.947 20.86 237.714 21.5433L237.326 22.1058C237.259 22.2058 237.155 22.2558 237.014 22.2558C236.914 22.2558 236.751 22.1642 236.526 21.9808C236.301 21.7975 235.989 21.5975 235.589 21.3808C235.189 21.1558 234.689 20.9517 234.089 20.7683C233.497 20.585 232.784 20.4933 231.951 20.4933C230.884 20.4933 229.905 20.6767 229.014 21.0433C228.13 21.41 227.368 21.935 226.726 22.6183C226.093 23.3017 225.597 24.135 225.239 25.1183C224.88 26.1017 224.701 27.2058 224.701 28.4308C224.701 29.6808 224.88 30.7975 225.239 31.7808C225.605 32.7642 226.105 33.5975 226.739 34.2808C227.372 34.9558 228.118 35.4767 228.976 35.8433C229.843 36.2017 230.776 36.3808 231.776 36.3808C232.409 36.3808 232.972 36.3392 233.464 36.2558C233.964 36.1725 234.422 36.0475 234.839 35.8808C235.255 35.7142 235.643 35.51 236.001 35.2683C236.359 35.0267 236.714 34.7433 237.064 34.4183C237.105 34.385 237.147 34.36 237.189 34.3433C237.23 34.3183 237.272 34.3058 237.314 34.3058C237.397 34.3058 237.468 34.335 237.526 34.3933L238.026 34.9308ZM256.865 28.4308C256.865 29.7975 256.661 31.0392 256.253 32.1558C255.844 33.2642 255.269 34.2142 254.528 35.0058C253.786 35.7892 252.894 36.3975 251.853 36.8308C250.819 37.2558 249.678 37.4683 248.428 37.4683C247.178 37.4683 246.036 37.2558 245.003 36.8308C243.969 36.3975 243.082 35.7892 242.34 35.0058C241.598 34.2142 241.023 33.2642 240.615 32.1558C240.207 31.0392 240.003 29.7975 240.003 28.4308C240.003 27.0725 240.207 25.8392 240.615 24.7308C241.023 23.6142 241.598 22.6642 242.34 21.8808C243.082 21.0892 243.969 20.4767 245.003 20.0433C246.036 19.61 247.178 19.3933 248.428 19.3933C249.678 19.3933 250.819 19.61 251.853 20.0433C252.894 20.4683 253.786 21.0767 254.528 21.8683C255.269 22.66 255.844 23.6142 256.253 24.7308C256.661 25.8392 256.865 27.0725 256.865 28.4308ZM255.54 28.4308C255.54 27.1975 255.369 26.0892 255.028 25.1058C254.686 24.1225 254.203 23.2892 253.578 22.6058C252.953 21.9225 252.203 21.4017 251.328 21.0433C250.453 20.6767 249.486 20.4933 248.428 20.4933C247.378 20.4933 246.415 20.6767 245.54 21.0433C244.665 21.4017 243.911 21.9225 243.278 22.6058C242.653 23.2892 242.165 24.1225 241.815 25.1058C241.473 26.0892 241.303 27.1975 241.303 28.4308C241.303 29.6725 241.473 30.785 241.815 31.7683C242.165 32.7433 242.653 33.5725 243.278 34.2558C243.911 34.9392 244.665 35.46 245.54 35.8183C246.415 36.1767 247.378 36.3558 248.428 36.3558C249.486 36.3558 250.453 36.1767 251.328 35.8183C252.203 35.46 252.953 34.9392 253.578 34.2558C254.203 33.5725 254.686 32.7433 255.028 31.7683C255.369 30.785 255.54 29.6725 255.54 28.4308ZM250.04 17.0808C250.24 17.0808 250.419 17.0433 250.578 16.9683C250.736 16.8933 250.869 16.7933 250.978 16.6683C251.086 16.5433 251.169 16.4017 251.228 16.2433C251.286 16.0767 251.315 15.9058 251.315 15.7308H252.053C252.053 16.0225 252.011 16.3017 251.928 16.5683C251.844 16.8267 251.719 17.0558 251.553 17.2558C251.394 17.4558 251.198 17.6142 250.965 17.7308C250.732 17.8475 250.461 17.9058 250.153 17.9058C249.836 17.9058 249.54 17.835 249.265 17.6933C248.99 17.5433 248.723 17.385 248.465 17.2183C248.215 17.0433 247.969 16.885 247.728 16.7433C247.486 16.5933 247.248 16.5183 247.015 16.5183C246.823 16.5183 246.648 16.5558 246.49 16.6308C246.34 16.7058 246.207 16.8058 246.09 16.9308C245.982 17.0558 245.898 17.2017 245.84 17.3683C245.782 17.5267 245.748 17.6933 245.74 17.8683H244.978C244.978 17.585 245.019 17.3142 245.103 17.0558C245.194 16.7892 245.323 16.5558 245.49 16.3558C245.657 16.1558 245.857 15.9975 246.09 15.8808C246.332 15.7558 246.603 15.6933 246.903 15.6933C247.228 15.6933 247.528 15.7683 247.803 15.9183C248.078 16.06 248.34 16.2183 248.59 16.3933C248.848 16.56 249.094 16.7183 249.328 16.8683C249.561 17.01 249.798 17.0808 250.04 17.0808ZM271.553 36.2183L271.528 37.2808H260.928V19.5933H271.528V20.6558H262.216V27.8058H269.966V28.8433H262.216V36.2183H271.553ZM284.017 21.7433C283.942 21.885 283.834 21.9558 283.692 21.9558C283.584 21.9558 283.442 21.8808 283.267 21.7308C283.101 21.5725 282.872 21.4017 282.58 21.2183C282.288 21.0267 281.922 20.8517 281.48 20.6933C281.047 20.535 280.509 20.4558 279.867 20.4558C279.226 20.4558 278.659 20.5475 278.167 20.7308C277.684 20.9142 277.276 21.1642 276.942 21.4808C276.617 21.7975 276.367 22.1642 276.192 22.5808C276.026 22.9975 275.942 23.435 275.942 23.8933C275.942 24.4933 276.067 24.9892 276.317 25.3808C276.576 25.7725 276.913 26.1058 277.33 26.3808C277.747 26.6558 278.217 26.8892 278.742 27.0808C279.276 27.2642 279.822 27.4475 280.38 27.6308C280.938 27.8142 281.48 28.0183 282.005 28.2433C282.538 28.46 283.013 28.735 283.43 29.0683C283.847 29.4017 284.18 29.8142 284.43 30.3058C284.688 30.7892 284.817 31.3933 284.817 32.1183C284.817 32.86 284.688 33.56 284.43 34.2183C284.18 34.8683 283.813 35.435 283.33 35.9183C282.847 36.4017 282.255 36.785 281.555 37.0683C280.855 37.3433 280.055 37.4808 279.155 37.4808C277.988 37.4808 276.984 37.2767 276.142 36.8683C275.301 36.4517 274.563 35.885 273.93 35.1683L274.28 34.6183C274.38 34.4933 274.497 34.4308 274.63 34.4308C274.705 34.4308 274.801 34.4808 274.917 34.5808C275.034 34.6808 275.176 34.8058 275.342 34.9558C275.509 35.0975 275.709 35.2558 275.942 35.4308C276.176 35.5975 276.447 35.7558 276.755 35.9058C277.063 36.0475 277.417 36.1683 277.817 36.2683C278.217 36.3683 278.672 36.4183 279.18 36.4183C279.88 36.4183 280.505 36.3142 281.055 36.1058C281.605 35.8892 282.067 35.5975 282.442 35.2308C282.826 34.8642 283.117 34.4308 283.317 33.9308C283.517 33.4225 283.617 32.8808 283.617 32.3058C283.617 31.6808 283.488 31.1683 283.23 30.7683C282.98 30.36 282.647 30.0225 282.23 29.7558C281.813 29.4808 281.338 29.2517 280.805 29.0683C280.28 28.885 279.738 28.7058 279.18 28.5308C278.622 28.3558 278.076 28.16 277.542 27.9433C277.017 27.7267 276.547 27.4517 276.13 27.1183C275.713 26.7767 275.376 26.3558 275.117 25.8558C274.867 25.3475 274.742 24.7142 274.742 23.9558C274.742 23.3642 274.855 22.7933 275.08 22.2433C275.305 21.6933 275.634 21.21 276.067 20.7933C276.501 20.3683 277.034 20.0308 277.667 19.7808C278.309 19.5225 279.038 19.3933 279.855 19.3933C280.772 19.3933 281.592 19.5392 282.317 19.8308C283.051 20.1225 283.717 20.5683 284.317 21.1683L284.017 21.7433ZM306.221 36.2183L306.196 37.2808H295.596V19.5933H306.196V20.6558H296.883V27.8058H304.633V28.8433H296.883V36.2183H306.221ZM196.665 58.4308C196.665 59.7975 196.461 61.0267 196.053 62.1183C195.645 63.21 195.07 64.1392 194.328 64.9058C193.586 65.6725 192.695 66.26 191.653 66.6683C190.62 67.0767 189.478 67.2808 188.228 67.2808H181.765V49.5933H188.228C189.478 49.5933 190.62 49.7975 191.653 50.2058C192.695 50.6142 193.586 51.2017 194.328 51.9683C195.07 52.735 195.645 53.6642 196.053 54.7558C196.461 55.8475 196.665 57.0725 196.665 58.4308ZM195.34 58.4308C195.34 57.1975 195.17 56.0975 194.828 55.1308C194.486 54.1642 194.003 53.3475 193.378 52.6808C192.753 52.0142 192.003 51.5058 191.128 51.1558C190.253 50.8058 189.286 50.6308 188.228 50.6308H183.053V66.2433H188.228C189.286 66.2433 190.253 66.0683 191.128 65.7183C192.003 65.3683 192.753 64.86 193.378 64.1933C194.003 63.5267 194.486 62.71 194.828 61.7433C195.17 60.7767 195.34 59.6725 195.34 58.4308ZM211.385 66.2183L211.36 67.2808H200.76V49.5933H211.36V50.6558H202.047V57.8058H209.797V58.8433H202.047V66.2183H211.385ZM223.849 51.7433C223.774 51.885 223.666 51.9558 223.524 51.9558C223.416 51.9558 223.274 51.8808 223.099 51.7308C222.932 51.5725 222.703 51.4017 222.412 51.2183C222.12 51.0267 221.753 50.8517 221.312 50.6933C220.878 50.535 220.341 50.4558 219.699 50.4558C219.057 50.4558 218.491 50.5475 217.999 50.7308C217.516 50.9142 217.107 51.1642 216.774 51.4808C216.449 51.7975 216.199 52.1642 216.024 52.5808C215.857 52.9975 215.774 53.435 215.774 53.8933C215.774 54.4933 215.899 54.9892 216.149 55.3808C216.407 55.7725 216.745 56.1058 217.162 56.3808C217.578 56.6558 218.049 56.8892 218.574 57.0808C219.107 57.2642 219.653 57.4475 220.212 57.6308C220.77 57.8142 221.312 58.0183 221.837 58.2433C222.37 58.46 222.845 58.735 223.262 59.0683C223.678 59.4017 224.012 59.8142 224.262 60.3058C224.52 60.7892 224.649 61.3933 224.649 62.1183C224.649 62.86 224.52 63.56 224.262 64.2183C224.012 64.8683 223.645 65.435 223.162 65.9183C222.678 66.4017 222.087 66.785 221.387 67.0683C220.687 67.3433 219.887 67.4808 218.987 67.4808C217.82 67.4808 216.816 67.2767 215.974 66.8683C215.132 66.4517 214.395 65.885 213.762 65.1683L214.112 64.6183C214.212 64.4933 214.328 64.4308 214.462 64.4308C214.537 64.4308 214.632 64.4808 214.749 64.5808C214.866 64.6808 215.007 64.8058 215.174 64.9558C215.341 65.0975 215.541 65.2558 215.774 65.4308C216.007 65.5975 216.278 65.7558 216.587 65.9058C216.895 66.0475 217.249 66.1683 217.649 66.2683C218.049 66.3683 218.503 66.4183 219.012 66.4183C219.712 66.4183 220.337 66.3142 220.887 66.1058C221.437 65.8892 221.899 65.5975 222.274 65.2308C222.657 64.8642 222.949 64.4308 223.149 63.9308C223.349 63.4225 223.449 62.8808 223.449 62.3058C223.449 61.6808 223.32 61.1683 223.062 60.7683C222.812 60.36 222.478 60.0225 222.062 59.7558C221.645 59.4808 221.17 59.2517 220.637 59.0683C220.112 58.885 219.57 58.7058 219.012 58.5308C218.453 58.3558 217.907 58.16 217.374 57.9433C216.849 57.7267 216.378 57.4517 215.962 57.1183C215.545 56.7767 215.207 56.3558 214.949 55.8558C214.699 55.3475 214.574 54.7142 214.574 53.9558C214.574 53.3642 214.687 52.7933 214.912 52.2433C215.137 51.6933 215.466 51.21 215.899 50.7933C216.332 50.3683 216.866 50.0308 217.499 49.7808C218.141 49.5225 218.87 49.3933 219.687 49.3933C220.603 49.3933 221.424 49.5392 222.149 49.8308C222.882 50.1225 223.549 50.5683 224.149 51.1683L223.849 51.7433ZM229.928 67.2808H228.64V49.5933H229.928V67.2808ZM249.284 59.2558V65.5433C248.401 66.1683 247.459 66.6475 246.459 66.9808C245.459 67.3142 244.334 67.4808 243.084 67.4808C241.684 67.4808 240.426 67.2683 239.309 66.8433C238.192 66.41 237.238 65.8017 236.446 65.0183C235.663 64.2267 235.059 63.2725 234.634 62.1558C234.217 61.0392 234.009 59.7975 234.009 58.4308C234.009 57.0642 234.213 55.8267 234.621 54.7183C235.038 53.6017 235.63 52.6517 236.396 51.8683C237.171 51.0767 238.105 50.4683 239.196 50.0433C240.288 49.61 241.517 49.3933 242.884 49.3933C243.559 49.3933 244.18 49.4392 244.746 49.5308C245.321 49.6225 245.855 49.76 246.346 49.9433C246.838 50.1183 247.296 50.3392 247.721 50.6058C248.146 50.8642 248.555 51.1642 248.946 51.5058L248.596 52.0558C248.48 52.2558 248.305 52.3017 248.071 52.1933C247.946 52.1433 247.767 52.0267 247.534 51.8433C247.301 51.66 246.98 51.4683 246.571 51.2683C246.163 51.0683 245.655 50.8892 245.046 50.7308C244.446 50.5725 243.713 50.4933 242.846 50.4933C241.696 50.4933 240.655 50.6767 239.721 51.0433C238.796 51.41 238.005 51.935 237.346 52.6183C236.696 53.3017 236.192 54.135 235.834 55.1183C235.484 56.1017 235.309 57.2058 235.309 58.4308C235.309 59.6725 235.484 60.7892 235.834 61.7808C236.192 62.7725 236.705 63.6142 237.371 64.3058C238.046 64.9975 238.863 65.5267 239.821 65.8933C240.78 66.26 241.859 66.4433 243.059 66.4433C243.584 66.4433 244.067 66.41 244.509 66.3433C244.959 66.2767 245.384 66.185 245.784 66.0683C246.192 65.9433 246.584 65.7933 246.959 65.6183C247.342 65.435 247.73 65.2308 248.121 65.0058V60.2433H244.734C244.642 60.2433 244.563 60.2142 244.496 60.1558C244.438 60.0975 244.409 60.0308 244.409 59.9558V59.2558H249.284ZM267.193 49.5933V67.2808H266.593C266.484 67.2808 266.393 67.2642 266.318 67.2308C266.251 67.1892 266.184 67.1225 266.118 67.0308L254.63 51.6808C254.655 51.9308 254.668 52.1683 254.668 52.3933V67.2808H253.543V49.5933H254.18C254.297 49.5933 254.384 49.61 254.443 49.6433C254.509 49.6683 254.58 49.7308 254.655 49.8308L266.118 65.1433C266.093 64.8933 266.08 64.6558 266.08 64.4308V49.5933H267.193Z" fill="white"/>
<path d="M63.7286 36.7955H63.7483" stroke="#0CD28B" stroke-width="2" stroke-linecap="round" stroke-linejoin="round"/>
<path d="M78.1422 36.7955H78.1618" stroke="#0CD28B" stroke-width="2" stroke-linecap="round" stroke-linejoin="round"/>
<path d="M70.9353 17.5774C65.8384 17.5774 60.9502 19.6021 57.3461 23.2062C53.742 26.8103 51.7173 31.6985 51.7173 36.7954V65.6225L58.9241 58.4158L64.9297 64.4214L70.9353 58.4158L76.941 64.4214L82.9466 58.4158L90.1534 65.6225V36.7954C90.1534 31.6985 88.1286 26.8103 84.5246 23.2062C80.9205 19.6021 76.0323 17.5774 70.9353 17.5774Z" stroke="#0CD28B" stroke-linecap="round" stroke-linejoin="round"/>
<defs>
<filter id="filter0_d_638_28" x="0" y="0.667969" width="390" height="98.2366" filterUnits="userSpaceOnUse" color-interpolation-filters="sRGB">
<feFlood flood-opacity="0" result="BackgroundImageFix"/>
<feColorMatrix in="SourceAlpha" type="matrix" values="0 0 0 0 0 0 0 0 0 0 0 0 0 0 0 0 0 0 127 0" result="hardAlpha"/>
<feMorphology radius="1" operator="dilate" in="SourceAlpha" result="effect1_dropShadow_638_28"/>
<feOffset dy="8"/>
<feGaussianBlur stdDeviation="3"/>
<feComposite in2="hardAlpha" operator="out"/>
<feColorMatrix type="matrix" values="0 0 0 0 0 0 0 0 0 0 0 0 0 0 0 0 0 0 0.79 0"/>
<feBlend mode="normal" in2="BackgroundImageFix" result="effect1_dropShadow_638_28"/>
<feBlend mode="normal" in="SourceGraphic" in2="effect1_dropShadow_638_28" result="shape"/>
</filter>
<linearGradient id="paint0_linear_638_28" x1="195" y1="0.667969" x2="195" y2="83.9046" gradientUnits="userSpaceOnUse">
<stop stop-color="#30D95F"/>
<stop offset="1" stop-color="#2976C6"/>
</linearGradient>
</defs>
</svg>
