<svg width="24" height="25" viewBox="0 0 24 25" fill="none" xmlns="http://www.w3.org/2000/svg">
<path d="M0.464191 0.569876L0.4926 0.535136C0.561961 0.458564 0.642951 0.395433 0.731843 0.348208C0.833823 0.294031 0.94446 0.261703 1.05747 0.252639C1.17048 0.243575 1.28423 0.257901 1.39237 0.295007C1.50055 0.332121 1.60142 0.391453 1.68899 0.470208L1.68914 0.470349L11.4571 9.24049L11.6242 9.39045L11.7912 9.24049L21.556 0.473233C21.7328 0.325781 21.9551 0.257179 22.1763 0.278738C22.3989 0.300429 22.6076 0.412178 22.7569 0.594525C22.9065 0.77723 22.9838 1.01585 22.9698 1.25999C22.9558 1.50274 22.8528 1.72798 22.6859 1.88952L12.1892 11.3151C12.0301 11.4579 11.8296 11.5348 11.6242 11.5348C11.4187 11.5348 11.2182 11.4579 11.0592 11.3152C11.0592 11.3152 11.0592 11.3152 11.0592 11.3151L0.559348 1.88674C0.5593 1.8867 0.559253 1.88665 0.559205 1.88661C0.382455 1.72756 0.27083 1.49909 0.252625 1.25022C0.234412 1.00122 0.311557 0.756519 0.464191 0.569876Z" fill="#D9D9D9" fill-opacity="0.68" stroke="black" stroke-width="0.5"/>
<path d="M0.464191 13.5699L0.4926 13.5351C0.561961 13.4586 0.642951 13.3954 0.731843 13.3482C0.833823 13.294 0.94446 13.2617 1.05747 13.2526C1.17048 13.2436 1.28423 13.2579 1.39237 13.295C1.50055 13.3321 1.60142 13.3915 1.68899 13.4702L1.68914 13.4703L11.4571 22.2405L11.6242 22.3904L11.7912 22.2405L21.556 13.4732C21.7328 13.3258 21.9551 13.2572 22.1763 13.2787C22.3989 13.3004 22.6076 13.4122 22.7569 13.5945C22.9065 13.7772 22.9838 14.0159 22.9698 14.26C22.9558 14.5027 22.8528 14.728 22.6859 14.8895L12.1892 24.3151C12.0301 24.4579 11.8296 24.5348 11.6242 24.5348C11.4187 24.5348 11.2182 24.4579 11.0592 24.3152C11.0592 24.3152 11.0592 24.3152 11.0592 24.3151L0.559348 14.8867C0.5593 14.8867 0.559253 14.8867 0.559205 14.8866C0.382455 14.7276 0.27083 14.4991 0.252625 14.2502C0.234412 14.0012 0.311557 13.7565 0.464191 13.5699Z" fill="#D9D9D9" fill-opacity="0.68" stroke="black" stroke-width="0.5"/>
</svg>
