<svg width="48" height="49" viewBox="0 0 48 49" fill="none" xmlns="http://www.w3.org/2000/svg">
<path d="M25.4887 10.6611H20.797C18.4647 10.664 16.2287 11.6589 14.5796 13.4276C12.9304 15.1963 12.0027 17.5943 12 20.0956V35.1909C12.0027 37.6922 12.9304 40.0902 14.5796 41.8589C16.2287 43.6276 18.4647 44.6225 20.797 44.6254H25.4887C27.821 44.6225 30.057 43.6276 31.7061 41.8589C33.3553 40.0902 34.283 37.6922 34.2857 35.1909V20.0956C34.283 17.5943 33.3553 15.1963 31.7061 13.4276C30.057 11.6589 27.821 10.664 25.4887 10.6611ZM33.1128 35.1909C33.1105 37.3587 32.3065 39.437 30.8772 40.9698C29.4479 42.5027 27.51 43.365 25.4887 43.3675H20.797C18.7757 43.365 16.8378 42.5027 15.4085 40.9698C13.9793 39.437 13.1753 37.3587 13.1729 35.1909V20.0956C13.1753 17.9278 13.9793 15.8495 15.4085 14.3167C16.8378 12.7838 18.7757 11.9215 20.797 11.919H25.4887C27.51 11.9215 29.4479 12.7838 30.8772 14.3167C32.3065 15.8495 33.1105 17.9278 33.1128 20.0956V35.1909ZM23.7293 17.5798V25.1274C23.7293 25.2942 23.6675 25.4542 23.5576 25.5721C23.4476 25.6901 23.2984 25.7563 23.1429 25.7563C22.9873 25.7563 22.8381 25.6901 22.7282 25.5721C22.6182 25.4542 22.5564 25.2942 22.5564 25.1274V17.5798C22.5564 17.4129 22.6182 17.253 22.7282 17.135C22.8381 17.0171 22.9873 16.9508 23.1429 16.9508C23.2984 16.9508 23.4476 17.0171 23.5576 17.135C23.6675 17.253 23.7293 17.4129 23.7293 17.5798Z" fill="#D9D9D9" fill-opacity="0.27"/>
</svg>
