<svg width="26" height="19" viewBox="0 0 26 19" fill="none" xmlns="http://www.w3.org/2000/svg">
<g clip-path="url(#clip0_20_712)">
<mask id="mask0_20_712" style="mask-type:luminance" maskUnits="userSpaceOnUse" x="0" y="0" width="26" height="19">
<path d="M0.138916 0H25.8346V18.0515H0.138916V0Z" fill="white"/>
</mask>
<g mask="url(#mask0_20_712)">
<path fill-rule="evenodd" clip-rule="evenodd" d="M0.138916 0H36.7535V1.38912H0.138916V0ZM0.138916 2.77824H36.7535V4.16736H0.138916V2.77824ZM0.138916 5.55296H36.7535V6.94561H0.138916V5.55296ZM0.138916 8.3312H36.7535V9.72033H0.138916V8.3312ZM0.138916 11.1094H36.7535V12.4986H0.138916V11.1094ZM0.138916 13.8842H36.7535V15.2733H0.138916V13.8842ZM0.138916 16.6624H36.7535V18.0515H0.138916V16.6624Z" fill="#BD3D44"/>
<path fill-rule="evenodd" clip-rule="evenodd" d="M0.138916 1.38911H36.7535V2.77824H0.138916V1.38911ZM0.138916 4.16736H36.7535V5.55295H0.138916V4.16736ZM0.138916 6.94208H36.7535V8.3312H0.138916V6.94208ZM0.138916 9.72032H36.7535V11.1094H0.138916V9.72032ZM0.138916 12.4986H36.7535V13.8877H0.138916V12.4986ZM0.138916 15.2733H36.7535V16.6624H0.138916V15.2733Z" fill="white"/>
<path fill-rule="evenodd" clip-rule="evenodd" d="M0.138916 0H14.784V9.72033H0.138916V0Z" fill="#192F5D"/>
<path fill-rule="evenodd" clip-rule="evenodd" d="M1.3584 0.416031L1.4939 0.800331H1.92297L1.5767 1.03655L1.70844 1.42438L1.3584 1.18463L1.01213 1.42085L1.14386 1.03655L0.793823 0.800331H1.23043L1.3584 0.416031ZM3.80113 0.416031L3.93286 0.800331H4.3657L4.01567 1.03655L4.1474 1.42438L3.80113 1.18463L3.45109 1.42085L3.58282 1.03655L3.23655 0.800331H3.66563L3.80113 0.416031ZM6.24009 0.416031L6.37559 0.800331H6.8009L6.45463 1.03655L6.58637 1.42438L6.23633 1.18463L5.89006 1.42085L6.02179 1.03655L5.67175 0.800331H6.10459L6.24009 0.416031ZM8.68282 0.416031L8.81456 0.800331H9.2474L8.89736 1.03655L9.03286 1.42438L8.68282 1.18463L8.33278 1.42085L8.46828 1.03655L8.11825 0.800331H8.54732L8.68282 0.416031ZM11.1218 0.416031L11.2573 0.800331H11.6864L11.3401 1.03655L11.4718 1.42438L11.1218 1.18463L10.7755 1.42085L10.9072 1.03655L10.561 0.800331H10.9901L11.1218 0.416031ZM13.5645 0.416031L13.6962 0.800331H14.1291L13.7791 1.03655L13.9146 1.42438L13.5645 1.18463L13.2145 1.42085L13.35 1.03655L12.9999 0.800331H13.4328L13.5645 0.416031ZM2.58164 1.38912L2.71338 1.77342H3.14622L2.79618 2.00964L2.92415 2.39394L2.58541 2.15772L2.23537 2.39394L2.35958 2.00964L2.02083 1.77342H2.44991L2.58164 1.38912ZM5.02061 1.38912L5.15611 1.77342H5.58518L5.23515 2.00964L5.37065 2.39394L5.02061 2.15772L4.67057 2.39394L4.80607 2.00964L4.45603 1.77342H4.88888L5.02061 1.38912ZM7.46334 1.38912L7.59507 1.77342H8.02791L7.67788 2.00964L7.80961 2.39394L7.46334 2.15772L7.1133 2.39394L7.24504 2.00964L6.89876 1.77342H7.32784L7.46334 1.38912ZM9.9023 1.38912L10.0378 1.77342H10.4669L10.1168 2.00964L10.2523 2.39394L9.9023 2.15772L9.55603 2.39394L9.68777 2.00964L9.33773 1.77342H9.77433L9.9023 1.38912ZM12.345 1.38912L12.4768 1.77342H12.9096L12.5596 2.00964L12.6913 2.39394L12.345 2.15772L11.995 2.39394L12.1267 2.00964L11.7805 1.77342H12.2095L12.345 1.38912ZM1.3584 2.35869L1.4939 2.75004H1.92297L1.5767 2.98626L1.70844 3.37056L1.3584 3.13081L1.01213 3.37056L1.14386 2.98273L0.793823 2.74651H1.23043L1.3584 2.35869ZM3.80113 2.35869L3.93286 2.74651H4.3657L4.01567 2.98273L4.1474 3.36703L3.80113 3.12729L3.45109 3.36703L3.58282 2.97921L3.23655 2.74299H3.66563L3.80113 2.35869ZM6.24009 2.35869L6.37559 2.74651H6.8009L6.45463 2.98273L6.58637 3.36703L6.23633 3.12729L5.89006 3.36703L6.02179 2.97921L5.67175 2.74299H6.10459L6.24009 2.35869ZM8.68282 2.35869L8.81456 2.74651H9.2474L8.89736 2.98273L9.03286 3.36703L8.68282 3.12729L8.33278 3.36703L8.46828 2.97921L8.11825 2.74299H8.54732L8.68282 2.35869ZM11.1218 2.35869L11.2573 2.74651H11.6864L11.3401 2.98273L11.4718 3.36703L11.1218 3.12729L10.7755 3.36703L10.9072 2.97921L10.561 2.74299H10.9901L11.1218 2.35869ZM13.5645 2.35869L13.6962 2.74651H14.1291L13.7791 2.98273L13.9146 3.36703L13.5645 3.12729L13.2145 3.36703L13.35 2.97921L12.9999 2.74299H13.4328L13.5645 2.35869ZM2.58164 3.33178L2.71338 3.71608H3.14622L2.79618 3.9523L2.92792 4.34012L2.58164 4.10038L2.23161 4.3366L2.36334 3.9523L2.01707 3.71608H2.44615L2.58164 3.33178ZM5.02061 3.33178L5.15611 3.71608H5.58518L5.23515 3.9523L5.37065 4.34012L5.02061 4.10038L4.67057 4.3366L4.80607 3.9523L4.45603 3.71608H4.88888L5.02061 3.33178ZM7.46334 3.33178L7.59507 3.71608H8.02791L7.67788 3.9523L7.80961 4.34012L7.46334 4.10038L7.1133 4.3366L7.24504 3.9523L6.89876 3.71608H7.32784L7.46334 3.33178ZM9.9023 3.33178L10.0378 3.71608H10.4669L10.1206 3.9523L10.2523 4.34012L9.9023 4.10038L9.55603 4.3366L9.68777 3.9523L9.33773 3.71608H9.77433L9.9023 3.33178ZM12.345 3.33178L12.4768 3.71608H12.9096L12.5596 3.9523L12.6913 4.34012L12.345 4.10038L11.995 4.3366L12.1267 3.9523L11.7805 3.71608H12.2095L12.345 3.33178ZM1.3584 4.30487L1.4939 4.68917H1.92297L1.5767 4.92539L1.70844 5.31321L1.3584 5.07347L1.01213 5.30969L1.14386 4.92539L0.793823 4.68917H1.23043L1.3584 4.30487ZM3.80113 4.30487L3.93286 4.68917H4.3657L4.01567 4.92539L4.1474 5.30969L3.80113 5.07347L3.45109 5.30969L3.58282 4.92539L3.23655 4.68917H3.66563L3.80113 4.30487ZM6.24009 4.30487L6.37559 4.68917H6.8009L6.45463 4.92539L6.58637 5.31321L6.23633 5.07347L5.89006 5.30969L6.02179 4.92539L5.67175 4.68917H6.10459L6.24009 4.30487ZM8.68282 4.30487L8.81456 4.68917H9.2474L8.89736 4.92539L9.03286 5.31321L8.68282 5.07347L8.33278 5.30969L8.46828 4.92539L8.11825 4.68917H8.54732L8.68282 4.30487ZM11.1218 4.30487L11.2573 4.68917H11.6864L11.3401 4.92539L11.4718 5.31321L11.1218 5.07347L10.7755 5.30969L10.9072 4.92539L10.561 4.68917H10.9901L11.1218 4.30487ZM13.5645 4.30487L13.6962 4.68917H14.1291L13.7791 4.92539L13.9146 5.31321L13.5645 5.07347L13.2145 5.30969L13.35 4.92539L12.9999 4.68917H13.4328L13.5645 4.30487ZM2.58164 5.27796L2.71338 5.66226H3.14622L2.79618 5.89848L2.92792 6.28278L2.58164 6.04303L2.23161 6.28278L2.36334 5.89495L2.01707 5.65873H2.44615L2.58164 5.27796ZM5.02061 5.27796L5.15611 5.66226H5.58518L5.23515 5.89848L5.37065 6.28278L5.02061 6.04303L4.67057 6.28278L4.80607 5.89495L4.45603 5.65873H4.88888L5.02061 5.27796ZM7.46334 5.27796L7.59507 5.66226H8.02791L7.67788 5.89848L7.80961 6.28278L7.46334 6.04303L7.1133 6.28278L7.24504 5.89495L6.89876 5.65873H7.32784L7.46334 5.27796ZM9.9023 5.27796L10.0378 5.66226H10.4669L10.1206 5.89848L10.2523 6.28278L9.9023 6.04303L9.55603 6.28278L9.68777 5.89495L9.33773 5.65873H9.77433L9.9023 5.27796ZM12.345 5.27796L12.4768 5.66226H12.9096L12.5596 5.89848L12.6913 6.28278L12.345 6.04303L11.995 6.28278L12.1267 5.89495L11.7805 5.65873H12.2095L12.345 5.27796ZM1.3584 6.24752L1.4939 6.63535H1.92297L1.5767 6.87157L1.70844 7.25234L1.3584 7.01612L1.01213 7.25234L1.14386 6.86804L0.793823 6.63182H1.23043L1.3584 6.24752ZM3.80113 6.24752L3.93286 6.63535H4.3657L4.01567 6.87157L4.15116 7.25234L3.80113 7.01612L3.45109 7.25234L3.58659 6.86804L3.23655 6.63182H3.66563L3.80113 6.24752ZM6.24009 6.24752L6.37559 6.63535H6.8009L6.45463 6.87157L6.58637 7.25234L6.23633 7.01612L5.89006 7.25234L6.02179 6.86804L5.67175 6.63182H6.10459L6.24009 6.24752ZM8.68282 6.24752L8.81456 6.63535H9.2474L8.89736 6.87157L9.03286 7.25234L8.68282 7.01612L8.33278 7.25234L8.46828 6.86804L8.11825 6.63182H8.54732L8.68282 6.24752ZM11.1218 6.24752L11.2573 6.63535H11.6864L11.3401 6.87157L11.4718 7.25234L11.1218 7.01612L10.7755 7.25234L10.9072 6.86804L10.561 6.63182H10.9901L11.1218 6.24752ZM13.5645 6.24752L13.6962 6.63535H14.1291L13.7791 6.87157L13.9146 7.25234L13.5645 7.01612L13.2145 7.25234L13.35 6.86804L12.9999 6.63182H13.4328L13.5645 6.24752ZM2.58164 7.22061L2.71338 7.60491H3.14622L2.79618 7.84113L2.92792 8.22896L2.58164 7.98921L2.23161 8.22543L2.36334 7.84113L2.01707 7.60491H2.44615L2.58164 7.22061ZM5.02061 7.22061L5.15611 7.60491H5.58518L5.23515 7.84113L5.37065 8.22896L5.02061 7.98921L4.67057 8.22543L4.80607 7.84113L4.45603 7.60491H4.88888L5.02061 7.22061ZM7.46334 7.22061L7.59507 7.60491H8.02791L7.67788 7.84113L7.80961 8.22896L7.46334 7.98921L7.1133 8.22543L7.24504 7.84113L6.89876 7.60491H7.32784L7.46334 7.22061ZM9.9023 7.22061L10.0378 7.60491H10.4669L10.1206 7.84113L10.2523 8.22896L9.9023 7.98921L9.55603 8.22543L9.68777 7.84113L9.33773 7.60491H9.77433L9.9023 7.22061ZM12.345 7.22061L12.4768 7.60491H12.9096L12.5596 7.84113L12.6913 8.22896L12.345 7.98921L11.995 8.22543L12.1267 7.84113L11.7805 7.60491H12.2095L12.345 7.22061ZM1.3584 8.1937L1.4939 8.578H1.92297L1.5767 8.81422L1.70844 9.19852L1.3584 8.9623L1.01213 9.19852L1.14386 8.8107L0.793823 8.57448H1.23043L1.3584 8.1937ZM3.80113 8.1937L3.93286 8.578H4.3657L4.01567 8.81422L4.15116 9.19852L3.80113 8.9623L3.45109 9.19852L3.58659 8.8107L3.23655 8.57448H3.66563L3.80113 8.1937ZM6.24009 8.1937L6.37559 8.578H6.8009L6.46216 8.81422L6.59389 9.19852L6.24386 8.9623L5.89758 9.19852L6.02932 8.8107L5.67928 8.57448H6.11212L6.24009 8.1937ZM8.68282 8.1937L8.81456 8.578H9.2474L8.89736 8.81422L9.03286 9.19852L8.68282 8.9623L8.33278 9.19852L8.46828 8.8107L8.11825 8.57448H8.54732L8.68282 8.1937ZM11.1218 8.1937L11.2573 8.578H11.6864L11.3401 8.81422L11.4718 9.19852L11.1218 8.9623L10.7755 9.19852L10.9072 8.8107L10.561 8.57448H10.9901L11.1218 8.1937ZM13.5645 8.1937L13.6962 8.578H14.1291L13.7791 8.81422L13.9146 9.19852L13.5645 8.9623L13.2145 9.19852L13.35 8.8107L12.9999 8.57448H13.4328L13.5645 8.1937Z" fill="white"/>
</g>
</g>
<defs>
<clipPath id="clip0_20_712">
<rect x="0.138916" width="25.6944" height="18.0515" rx="2" fill="white"/>
</clipPath>
</defs>
</svg>
