<svg width="390" height="99" viewBox="0 0 390 99" fill="none" xmlns="http://www.w3.org/2000/svg">
<g filter="url(#filter0_d_638_22)">
<rect x="7" y="0.766174" width="376" height="82.3077" rx="41.1538" fill="#1D1E18"/>
<rect x="7.25" y="1.01617" width="375.5" height="81.8077" rx="40.9038" stroke="url(#paint0_linear_638_22)" stroke-width="0.5"/>
</g>
<path d="M134.275 51.9125V53H124.613V35.3125H125.9V51.9125H134.275ZM146.796 46.575L143.196 37.6375C143.071 37.3458 142.951 36.9958 142.834 36.5875C142.784 36.7875 142.73 36.9792 142.671 37.1625C142.613 37.3375 142.551 37.5 142.484 37.65L138.884 46.575H146.796ZM150.709 53H149.721C149.605 53 149.509 52.9708 149.434 52.9125C149.359 52.8458 149.301 52.7625 149.259 52.6625L147.184 47.525H138.496L136.421 52.6625C136.388 52.7542 136.33 52.8333 136.246 52.9C136.163 52.9667 136.063 53 135.946 53H134.971L142.209 35.3125H143.471L150.709 53ZM167.291 35.3125V53H166.691C166.582 53 166.491 52.9833 166.416 52.95C166.349 52.9083 166.282 52.8417 166.216 52.75L154.728 37.4C154.753 37.65 154.766 37.8875 154.766 38.1125V53H153.641V35.3125H154.278C154.395 35.3125 154.482 35.3292 154.541 35.3625C154.607 35.3875 154.678 35.45 154.753 35.55L166.216 50.8625C166.191 50.6125 166.178 50.375 166.178 50.15V35.3125H167.291ZM187.413 44.15C187.413 45.5167 187.209 46.7458 186.8 47.8375C186.392 48.9292 185.817 49.8583 185.075 50.625C184.334 51.3917 183.442 51.9792 182.4 52.3875C181.367 52.7958 180.225 53 178.975 53H172.513V35.3125H178.975C180.225 35.3125 181.367 35.5167 182.4 35.925C183.442 36.3333 184.334 36.9208 185.075 37.6875C185.817 38.4542 186.392 39.3833 186.8 40.475C187.209 41.5667 187.413 42.7917 187.413 44.15ZM186.088 44.15C186.088 42.9167 185.917 41.8167 185.575 40.85C185.234 39.8833 184.75 39.0667 184.125 38.4C183.5 37.7333 182.75 37.225 181.875 36.875C181 36.525 180.034 36.35 178.975 36.35H173.8V51.9625H178.975C180.034 51.9625 181 51.7875 181.875 51.4375C182.75 51.0875 183.5 50.5792 184.125 49.9125C184.75 49.2458 185.234 48.4292 185.575 47.4625C185.917 46.4958 186.088 45.3917 186.088 44.15ZM192.795 53H191.507V35.3125H192.795V53ZM211.676 35.3125V53H211.076C210.967 53 210.876 52.9833 210.801 52.95C210.734 52.9083 210.667 52.8417 210.601 52.75L199.113 37.4C199.138 37.65 199.151 37.8875 199.151 38.1125V53H198.026V35.3125H198.663C198.78 35.3125 198.867 35.3292 198.926 35.3625C198.992 35.3875 199.063 35.45 199.138 35.55L210.601 50.8625C210.576 50.6125 210.563 50.375 210.563 50.15V35.3125H211.676ZM231.023 44.975V51.2625C230.139 51.8875 229.198 52.3667 228.198 52.7C227.198 53.0333 226.073 53.2 224.823 53.2C223.423 53.2 222.164 52.9875 221.048 52.5625C219.931 52.1292 218.977 51.5208 218.185 50.7375C217.402 49.9458 216.798 48.9917 216.373 47.875C215.956 46.7583 215.748 45.5167 215.748 44.15C215.748 42.7833 215.952 41.5458 216.36 40.4375C216.777 39.3208 217.368 38.3708 218.135 37.5875C218.91 36.7958 219.843 36.1875 220.935 35.7625C222.027 35.3292 223.256 35.1125 224.623 35.1125C225.298 35.1125 225.918 35.1583 226.485 35.25C227.06 35.3417 227.593 35.4792 228.085 35.6625C228.577 35.8375 229.035 36.0583 229.46 36.325C229.885 36.5833 230.293 36.8833 230.685 37.225L230.335 37.775C230.218 37.975 230.043 38.0208 229.81 37.9125C229.685 37.8625 229.506 37.7458 229.273 37.5625C229.039 37.3792 228.718 37.1875 228.31 36.9875C227.902 36.7875 227.393 36.6083 226.785 36.45C226.185 36.2917 225.452 36.2125 224.585 36.2125C223.435 36.2125 222.393 36.3958 221.46 36.7625C220.535 37.1292 219.743 37.6542 219.085 38.3375C218.435 39.0208 217.931 39.8542 217.573 40.8375C217.223 41.8208 217.048 42.925 217.048 44.15C217.048 45.3917 217.223 46.5083 217.573 47.5C217.931 48.4917 218.443 49.3333 219.11 50.025C219.785 50.7167 220.602 51.2458 221.56 51.6125C222.518 51.9792 223.598 52.1625 224.798 52.1625C225.323 52.1625 225.806 52.1292 226.248 52.0625C226.698 51.9958 227.123 51.9042 227.523 51.7875C227.931 51.6625 228.323 51.5125 228.698 51.3375C229.081 51.1542 229.468 50.95 229.86 50.725V45.9625H226.473C226.381 45.9625 226.302 45.9333 226.235 45.875C226.177 45.8167 226.148 45.75 226.148 45.675V44.975H231.023ZM246.644 44.85C247.419 44.85 248.114 44.7417 248.731 44.525C249.348 44.3083 249.869 44.0083 250.294 43.625C250.727 43.2417 251.056 42.7917 251.281 42.275C251.514 41.75 251.631 41.1792 251.631 40.5625C251.631 39.2042 251.214 38.1583 250.381 37.425C249.548 36.6917 248.302 36.325 246.644 36.325H243.356V44.85H246.644ZM246.644 35.3125C248.719 35.3125 250.281 35.7667 251.331 36.675C252.389 37.5833 252.919 38.8792 252.919 40.5625C252.919 41.3375 252.773 42.05 252.481 42.7C252.189 43.35 251.773 43.9125 251.231 44.3875C250.689 44.8542 250.031 45.2208 249.256 45.4875C248.481 45.7458 247.61 45.875 246.644 45.875H243.356V53H242.069V35.3125H246.644ZM264.838 46.575L261.238 37.6375C261.113 37.3458 260.993 36.9958 260.876 36.5875C260.826 36.7875 260.772 36.9792 260.713 37.1625C260.655 37.3375 260.593 37.5 260.526 37.65L256.926 46.575H264.838ZM268.751 53H267.763C267.647 53 267.551 52.9708 267.476 52.9125C267.401 52.8458 267.343 52.7625 267.301 52.6625L265.226 47.525H256.538L254.463 52.6625C254.43 52.7542 254.372 52.8333 254.288 52.9C254.205 52.9667 254.105 53 253.988 53H253.013L260.251 35.3125H261.513L268.751 53ZM285.417 44.975V51.2625C284.534 51.8875 283.592 52.3667 282.592 52.7C281.592 53.0333 280.467 53.2 279.217 53.2C277.817 53.2 276.559 52.9875 275.442 52.5625C274.326 52.1292 273.371 51.5208 272.58 50.7375C271.796 49.9458 271.192 48.9917 270.767 47.875C270.351 46.7583 270.142 45.5167 270.142 44.15C270.142 42.7833 270.346 41.5458 270.755 40.4375C271.171 39.3208 271.763 38.3708 272.53 37.5875C273.305 36.7958 274.238 36.1875 275.33 35.7625C276.421 35.3292 277.651 35.1125 279.017 35.1125C279.692 35.1125 280.313 35.1583 280.88 35.25C281.455 35.3417 281.988 35.4792 282.48 35.6625C282.971 35.8375 283.43 36.0583 283.855 36.325C284.28 36.5833 284.688 36.8833 285.08 37.225L284.73 37.775C284.613 37.975 284.438 38.0208 284.205 37.9125C284.08 37.8625 283.901 37.7458 283.667 37.5625C283.434 37.3792 283.113 37.1875 282.705 36.9875C282.296 36.7875 281.788 36.6083 281.18 36.45C280.58 36.2917 279.846 36.2125 278.98 36.2125C277.83 36.2125 276.788 36.3958 275.855 36.7625C274.93 37.1292 274.138 37.6542 273.48 38.3375C272.83 39.0208 272.326 39.8542 271.967 40.8375C271.617 41.8208 271.442 42.925 271.442 44.15C271.442 45.3917 271.617 46.5083 271.967 47.5C272.326 48.4917 272.838 49.3333 273.505 50.025C274.18 50.7167 274.996 51.2458 275.955 51.6125C276.913 51.9792 277.992 52.1625 279.192 52.1625C279.717 52.1625 280.201 52.1292 280.642 52.0625C281.092 51.9958 281.517 51.9042 281.917 51.7875C282.326 51.6625 282.717 51.5125 283.092 51.3375C283.476 51.1542 283.863 50.95 284.255 50.725V45.9625H280.867C280.776 45.9625 280.696 45.9333 280.63 45.875C280.571 45.8167 280.542 45.75 280.542 45.675V44.975H285.417ZM300.301 51.9375L300.276 53H289.676V35.3125H300.276V36.375H290.963V43.525H298.713V44.5625H290.963V51.9375H300.301ZM312.765 37.4625C312.69 37.6042 312.582 37.675 312.44 37.675C312.332 37.675 312.19 37.6 312.015 37.45C311.849 37.2917 311.62 37.1208 311.328 36.9375C311.036 36.7458 310.67 36.5708 310.228 36.4125C309.795 36.2542 309.257 36.175 308.615 36.175C307.974 36.175 307.407 36.2667 306.915 36.45C306.432 36.6333 306.024 36.8833 305.69 37.2C305.365 37.5167 305.115 37.8833 304.94 38.3C304.774 38.7167 304.69 39.1542 304.69 39.6125C304.69 40.2125 304.815 40.7083 305.065 41.1C305.324 41.4917 305.661 41.825 306.078 42.1C306.495 42.375 306.965 42.6083 307.49 42.8C308.024 42.9833 308.57 43.1667 309.128 43.35C309.686 43.5333 310.228 43.7375 310.753 43.9625C311.286 44.1792 311.761 44.4542 312.178 44.7875C312.595 45.1208 312.928 45.5333 313.178 46.025C313.436 46.5083 313.565 47.1125 313.565 47.8375C313.565 48.5792 313.436 49.2792 313.178 49.9375C312.928 50.5875 312.561 51.1542 312.078 51.6375C311.595 52.1208 311.003 52.5042 310.303 52.7875C309.603 53.0625 308.803 53.2 307.903 53.2C306.736 53.2 305.732 52.9958 304.89 52.5875C304.049 52.1708 303.311 51.6042 302.678 50.8875L303.028 50.3375C303.128 50.2125 303.245 50.15 303.378 50.15C303.453 50.15 303.549 50.2 303.665 50.3C303.782 50.4 303.924 50.525 304.09 50.675C304.257 50.8167 304.457 50.975 304.69 51.15C304.924 51.3167 305.195 51.475 305.503 51.625C305.811 51.7667 306.165 51.8875 306.565 51.9875C306.965 52.0875 307.42 52.1375 307.928 52.1375C308.628 52.1375 309.253 52.0333 309.803 51.825C310.353 51.6083 310.815 51.3167 311.19 50.95C311.574 50.5833 311.865 50.15 312.065 49.65C312.265 49.1417 312.365 48.6 312.365 48.025C312.365 47.4 312.236 46.8875 311.978 46.4875C311.728 46.0792 311.395 45.7417 310.978 45.475C310.561 45.2 310.086 44.9708 309.553 44.7875C309.028 44.6042 308.486 44.425 307.928 44.25C307.37 44.075 306.824 43.8792 306.29 43.6625C305.765 43.4458 305.295 43.1708 304.878 42.8375C304.461 42.4958 304.124 42.075 303.865 41.575C303.615 41.0667 303.49 40.4333 303.49 39.675C303.49 39.0833 303.603 38.5125 303.828 37.9625C304.053 37.4125 304.382 36.9292 304.815 36.5125C305.249 36.0875 305.782 35.75 306.415 35.5C307.057 35.2417 307.786 35.1125 308.603 35.1125C309.52 35.1125 310.34 35.2583 311.065 35.55C311.799 35.8417 312.465 36.2875 313.065 36.8875L312.765 37.4625Z" fill="white"/>
<path d="M64.8668 17.2037L42.5285 44.0097H62.633L60.3991 61.8803L82.7374 35.0744H62.633L64.8668 17.2037Z" stroke="#0CD28B" stroke-linecap="round" stroke-linejoin="round"/>
<defs>
<filter id="filter0_d_638_22" x="0" y="0.766174" width="390" height="97.3077" filterUnits="userSpaceOnUse" color-interpolation-filters="sRGB">
<feFlood flood-opacity="0" result="BackgroundImageFix"/>
<feColorMatrix in="SourceAlpha" type="matrix" values="0 0 0 0 0 0 0 0 0 0 0 0 0 0 0 0 0 0 127 0" result="hardAlpha"/>
<feMorphology radius="1" operator="dilate" in="SourceAlpha" result="effect1_dropShadow_638_22"/>
<feOffset dy="8"/>
<feGaussianBlur stdDeviation="3"/>
<feComposite in2="hardAlpha" operator="out"/>
<feColorMatrix type="matrix" values="0 0 0 0 0 0 0 0 0 0 0 0 0 0 0 0 0 0 0.79 0"/>
<feBlend mode="normal" in2="BackgroundImageFix" result="effect1_dropShadow_638_22"/>
<feBlend mode="normal" in="SourceGraphic" in2="effect1_dropShadow_638_22" result="shape"/>
</filter>
<linearGradient id="paint0_linear_638_22" x1="195" y1="0.766174" x2="195" y2="83.0739" gradientUnits="userSpaceOnUse">
<stop stop-color="#30D95F"/>
<stop offset="1" stop-color="#2976C6"/>
</linearGradient>
</defs>
</svg>
