<svg width="390" height="99" viewBox="0 0 390 99" fill="none" xmlns="http://www.w3.org/2000/svg">
<g filter="url(#filter0_d_713_38)">
<rect x="7" y="0.766113" width="376" height="82.3077" rx="41.1538" fill="#1D1E18"/>
<rect x="7.25" y="1.01611" width="375.5" height="81.8077" rx="40.9038" stroke="url(#paint0_linear_713_38)" stroke-width="0.5"/>
</g>
<path d="M64.8668 17.2039L42.5285 44.0098H62.6329L60.3991 61.8804L82.7374 35.0745H62.6329L64.8668 17.2039Z" stroke="#0CD28B" stroke-linecap="round" stroke-linejoin="round"/>
<g filter="url(#filter1_dd_713_38)">
<path d="M117.748 51.782V53H106.926V33.19H108.368V51.782H117.748ZM131.772 45.804L127.74 35.794C127.6 35.4673 127.465 35.0753 127.334 34.618C127.278 34.842 127.217 35.0567 127.152 35.262C127.087 35.458 127.017 35.64 126.942 35.808L122.91 45.804H131.772ZM136.154 53H135.048C134.917 53 134.81 52.9673 134.726 52.902C134.642 52.8273 134.577 52.734 134.53 52.622L132.206 46.868H122.476L120.152 52.622C120.115 52.7247 120.049 52.8133 119.956 52.888C119.863 52.9627 119.751 53 119.62 53H118.528L126.634 33.19H128.048L136.154 53ZM154.726 33.19V53H154.054C153.932 53 153.83 52.9813 153.746 52.944C153.671 52.8973 153.596 52.8227 153.522 52.72L140.656 35.528C140.684 35.808 140.698 36.074 140.698 36.326V53H139.438V33.19H140.152C140.282 33.19 140.38 33.2087 140.446 33.246C140.52 33.274 140.6 33.344 140.684 33.456L153.522 50.606C153.494 50.326 153.48 50.06 153.48 49.808V33.19H154.726ZM177.262 43.088C177.262 44.6187 177.034 45.9953 176.576 47.218C176.119 48.4407 175.475 49.4813 174.644 50.34C173.814 51.1987 172.815 51.8567 171.648 52.314C170.491 52.7713 169.212 53 167.812 53H160.574V33.19H167.812C169.212 33.19 170.491 33.4187 171.648 33.876C172.815 34.3333 173.814 34.9913 174.644 35.85C175.475 36.7087 176.119 37.7493 176.576 38.972C177.034 40.1947 177.262 41.5667 177.262 43.088ZM175.778 43.088C175.778 41.7067 175.587 40.4747 175.204 39.392C174.822 38.3093 174.28 37.3947 173.58 36.648C172.88 35.9013 172.04 35.332 171.06 34.94C170.08 34.548 168.998 34.352 167.812 34.352H162.016V51.838H167.812C168.998 51.838 170.08 51.642 171.06 51.25C172.04 50.858 172.88 50.2887 173.58 49.542C174.28 48.7953 174.822 47.8807 175.204 46.798C175.587 45.7153 175.778 44.4787 175.778 43.088ZM183.29 53H181.848V33.19H183.29V53ZM204.437 33.19V53H203.765C203.643 53 203.541 52.9813 203.457 52.944C203.382 52.8973 203.307 52.8227 203.233 52.72L190.367 35.528C190.395 35.808 190.409 36.074 190.409 36.326V53H189.149V33.19H189.863C189.993 33.19 190.091 33.2087 190.157 33.246C190.231 33.274 190.311 33.344 190.395 33.456L203.233 50.606C203.205 50.326 203.191 50.06 203.191 49.808V33.19H204.437ZM226.105 44.012V51.054C225.116 51.754 224.061 52.2907 222.941 52.664C221.821 53.0373 220.561 53.224 219.161 53.224C217.593 53.224 216.184 52.986 214.933 52.51C213.683 52.0247 212.614 51.3433 211.727 50.466C210.85 49.5793 210.173 48.5107 209.697 47.26C209.231 46.0093 208.997 44.6187 208.997 43.088C208.997 41.5573 209.226 40.1713 209.683 38.93C210.15 37.6793 210.813 36.6153 211.671 35.738C212.539 34.8513 213.585 34.17 214.807 33.694C216.03 33.2087 217.407 32.966 218.937 32.966C219.693 32.966 220.389 33.0173 221.023 33.12C221.667 33.2227 222.265 33.3767 222.815 33.582C223.366 33.778 223.879 34.0253 224.355 34.324C224.831 34.6133 225.289 34.9493 225.727 35.332L225.335 35.948C225.205 36.172 225.009 36.2233 224.747 36.102C224.607 36.046 224.407 35.9153 224.145 35.71C223.884 35.5047 223.525 35.29 223.067 35.066C222.61 34.842 222.041 34.6413 221.359 34.464C220.687 34.2867 219.866 34.198 218.895 34.198C217.607 34.198 216.441 34.4033 215.395 34.814C214.359 35.2247 213.473 35.8127 212.735 36.578C212.007 37.3433 211.443 38.2767 211.041 39.378C210.649 40.4793 210.453 41.716 210.453 43.088C210.453 44.4787 210.649 45.7293 211.041 46.84C211.443 47.9507 212.017 48.8933 212.763 49.668C213.519 50.4427 214.434 51.0353 215.507 51.446C216.581 51.8567 217.789 52.062 219.133 52.062C219.721 52.062 220.263 52.0247 220.757 51.95C221.261 51.8753 221.737 51.7727 222.185 51.642C222.643 51.502 223.081 51.334 223.501 51.138C223.931 50.9327 224.365 50.704 224.803 50.452V45.118H221.009C220.907 45.118 220.818 45.0853 220.743 45.02C220.678 44.9547 220.645 44.88 220.645 44.796V44.012H226.105ZM243.601 43.872C244.469 43.872 245.248 43.7507 245.939 43.508C246.629 43.2653 247.213 42.9293 247.689 42.5C248.174 42.0707 248.543 41.5667 248.795 40.988C249.056 40.4 249.187 39.7607 249.187 39.07C249.187 37.5487 248.72 36.3773 247.787 35.556C246.853 34.7347 245.458 34.324 243.601 34.324H239.919V43.872H243.601ZM243.601 33.19C245.925 33.19 247.675 33.6987 248.851 34.716C250.036 35.7333 250.629 37.1847 250.629 39.07C250.629 39.938 250.465 40.736 250.139 41.464C249.812 42.192 249.345 42.822 248.739 43.354C248.132 43.8767 247.395 44.2873 246.527 44.586C245.659 44.8753 244.683 45.02 243.601 45.02H239.919V53H238.477V33.19H243.601ZM263.979 45.804L259.947 35.794C259.807 35.4673 259.672 35.0753 259.541 34.618C259.485 34.842 259.424 35.0567 259.359 35.262C259.294 35.458 259.224 35.64 259.149 35.808L255.117 45.804H263.979ZM268.361 53H267.255C267.124 53 267.017 52.9673 266.933 52.902C266.849 52.8273 266.784 52.734 266.737 52.622L264.413 46.868H254.683L252.359 52.622C252.322 52.7247 252.256 52.8133 252.163 52.888C252.07 52.9627 251.958 53 251.827 53H250.735L258.841 33.19H260.255L268.361 53ZM287.027 44.012V51.054C286.038 51.754 284.983 52.2907 283.863 52.664C282.743 53.0373 281.483 53.224 280.083 53.224C278.515 53.224 277.106 52.986 275.855 52.51C274.605 52.0247 273.536 51.3433 272.649 50.466C271.772 49.5793 271.095 48.5107 270.619 47.26C270.153 46.0093 269.919 44.6187 269.919 43.088C269.919 41.5573 270.148 40.1713 270.605 38.93C271.072 37.6793 271.735 36.6153 272.593 35.738C273.461 34.8513 274.507 34.17 275.729 33.694C276.952 33.2087 278.329 32.966 279.859 32.966C280.615 32.966 281.311 33.0173 281.945 33.12C282.589 33.2227 283.187 33.3767 283.737 33.582C284.288 33.778 284.801 34.0253 285.277 34.324C285.753 34.6133 286.211 34.9493 286.649 35.332L286.257 35.948C286.127 36.172 285.931 36.2233 285.669 36.102C285.529 36.046 285.329 35.9153 285.067 35.71C284.806 35.5047 284.447 35.29 283.989 35.066C283.532 34.842 282.963 34.6413 282.281 34.464C281.609 34.2867 280.788 34.198 279.817 34.198C278.529 34.198 277.363 34.4033 276.317 34.814C275.281 35.2247 274.395 35.8127 273.657 36.578C272.929 37.3433 272.365 38.2767 271.963 39.378C271.571 40.4793 271.375 41.716 271.375 43.088C271.375 44.4787 271.571 45.7293 271.963 46.84C272.365 47.9507 272.939 48.8933 273.685 49.668C274.441 50.4427 275.356 51.0353 276.429 51.446C277.503 51.8567 278.711 52.062 280.055 52.062C280.643 52.062 281.185 52.0247 281.679 51.95C282.183 51.8753 282.659 51.7727 283.107 51.642C283.565 51.502 284.003 51.334 284.423 51.138C284.853 50.9327 285.287 50.704 285.725 50.452V45.118H281.931C281.829 45.118 281.74 45.0853 281.665 45.02C281.6 44.9547 281.567 44.88 281.567 44.796V44.012H287.027ZM303.697 51.81L303.669 53H291.797V33.19H303.669V34.38H293.239V42.388H301.919V43.55H293.239V51.81H303.697ZM317.657 35.598C317.573 35.7567 317.452 35.836 317.293 35.836C317.172 35.836 317.013 35.752 316.817 35.584C316.631 35.4067 316.374 35.2153 316.047 35.01C315.721 34.7953 315.31 34.5993 314.815 34.422C314.33 34.2447 313.728 34.156 313.009 34.156C312.291 34.156 311.656 34.2587 311.105 34.464C310.564 34.6693 310.107 34.9493 309.733 35.304C309.369 35.6587 309.089 36.0693 308.893 36.536C308.707 37.0027 308.613 37.4927 308.613 38.006C308.613 38.678 308.753 39.2333 309.033 39.672C309.323 40.1107 309.701 40.484 310.167 40.792C310.634 41.1 311.161 41.3613 311.749 41.576C312.347 41.7813 312.958 41.9867 313.583 42.192C314.209 42.3973 314.815 42.626 315.403 42.878C316.001 43.1207 316.533 43.4287 316.999 43.802C317.466 44.1753 317.839 44.6373 318.119 45.188C318.409 45.7293 318.553 46.406 318.553 47.218C318.553 48.0487 318.409 48.8327 318.119 49.57C317.839 50.298 317.429 50.9327 316.887 51.474C316.346 52.0153 315.683 52.4447 314.899 52.762C314.115 53.07 313.219 53.224 312.211 53.224C310.905 53.224 309.78 52.9953 308.837 52.538C307.895 52.0713 307.069 51.4367 306.359 50.634L306.751 50.018C306.863 49.878 306.994 49.808 307.143 49.808C307.227 49.808 307.335 49.864 307.465 49.976C307.596 50.088 307.755 50.228 307.941 50.396C308.128 50.5547 308.352 50.732 308.613 50.928C308.875 51.1147 309.178 51.292 309.523 51.46C309.869 51.6187 310.265 51.754 310.713 51.866C311.161 51.978 311.67 52.034 312.239 52.034C313.023 52.034 313.723 51.9173 314.339 51.684C314.955 51.4413 315.473 51.1147 315.893 50.704C316.323 50.2933 316.649 49.808 316.873 49.248C317.097 48.6787 317.209 48.072 317.209 47.428C317.209 46.728 317.065 46.154 316.775 45.706C316.495 45.2487 316.122 44.8707 315.655 44.572C315.189 44.264 314.657 44.0073 314.059 43.802C313.471 43.5967 312.865 43.396 312.239 43.2C311.614 43.004 311.003 42.7847 310.405 42.542C309.817 42.2993 309.29 41.9913 308.823 41.618C308.357 41.2353 307.979 40.764 307.689 40.204C307.409 39.6347 307.269 38.9253 307.269 38.076C307.269 37.4133 307.395 36.774 307.647 36.158C307.899 35.542 308.268 35.0007 308.753 34.534C309.239 34.058 309.836 33.68 310.545 33.4C311.264 33.1107 312.081 32.966 312.995 32.966C314.022 32.966 314.941 33.1293 315.753 33.456C316.575 33.7827 317.321 34.282 317.993 34.954L317.657 35.598Z" fill="white"/>
</g>
<defs>
<filter id="filter0_d_713_38" x="0" y="0.766113" width="390" height="97.3076" filterUnits="userSpaceOnUse" color-interpolation-filters="sRGB">
<feFlood flood-opacity="0" result="BackgroundImageFix"/>
<feColorMatrix in="SourceAlpha" type="matrix" values="0 0 0 0 0 0 0 0 0 0 0 0 0 0 0 0 0 0 127 0" result="hardAlpha"/>
<feMorphology radius="1" operator="dilate" in="SourceAlpha" result="effect1_dropShadow_713_38"/>
<feOffset dy="8"/>
<feGaussianBlur stdDeviation="3"/>
<feComposite in2="hardAlpha" operator="out"/>
<feColorMatrix type="matrix" values="0 0 0 0 0 0 0 0 0 0 0 0 0 0 0 0 0 0 0.79 0"/>
<feBlend mode="normal" in2="BackgroundImageFix" result="effect1_dropShadow_713_38"/>
<feBlend mode="normal" in="SourceGraphic" in2="effect1_dropShadow_713_38" result="shape"/>
</filter>
<filter id="filter1_dd_713_38" x="100.881" y="26.9211" width="223.717" height="32.3481" filterUnits="userSpaceOnUse" color-interpolation-filters="sRGB">
<feFlood flood-opacity="0" result="BackgroundImageFix"/>
<feColorMatrix in="SourceAlpha" type="matrix" values="0 0 0 0 0 0 0 0 0 0 0 0 0 0 0 0 0 0 127 0" result="hardAlpha"/>
<feOffset/>
<feGaussianBlur stdDeviation="1.51125"/>
<feColorMatrix type="matrix" values="0 0 0 0 0.262745 0 0 0 0 0.694118 0 0 0 0 0.541176 0 0 0 0.3 0"/>
<feBlend mode="normal" in2="BackgroundImageFix" result="effect1_dropShadow_713_38"/>
<feColorMatrix in="SourceAlpha" type="matrix" values="0 0 0 0 0 0 0 0 0 0 0 0 0 0 0 0 0 0 127 0" result="hardAlpha"/>
<feOffset/>
<feGaussianBlur stdDeviation="3.0225"/>
<feColorMatrix type="matrix" values="0 0 0 0 0.262745 0 0 0 0 0.694118 0 0 0 0 0.541176 0 0 0 1 0"/>
<feBlend mode="normal" in2="effect1_dropShadow_713_38" result="effect2_dropShadow_713_38"/>
<feBlend mode="normal" in="SourceGraphic" in2="effect2_dropShadow_713_38" result="shape"/>
</filter>
<linearGradient id="paint0_linear_713_38" x1="195" y1="0.766113" x2="195" y2="83.0738" gradientUnits="userSpaceOnUse">
<stop stop-color="#30D95F"/>
<stop offset="1" stop-color="#2976C6"/>
</linearGradient>
</defs>
</svg>
