<svg width="27" height="26" viewBox="0 0 27 26" fill="none" xmlns="http://www.w3.org/2000/svg">
<path d="M13.6382 0C10.1297 0 9.69171 0.01625 8.31416 0.078C6.93877 0.143 6.00247 0.36075 5.17918 0.6825C4.33005 1.014 3.60899 1.45925 2.89116 2.18183C2.17333 2.90442 1.72994 3.62917 1.40169 4.485C1.08206 5.31375 0.864665 6.25625 0.801169 7.64075C0.736597 9.02742 0.723682 9.46833 0.723682 13C0.723682 16.5317 0.739825 16.9726 0.801169 18.3593C0.865742 19.7427 1.08206 20.6863 1.40169 21.515C1.73101 22.3687 2.17333 23.0956 2.89116 23.8182C3.60899 24.5397 4.32897 24.9871 5.17918 25.3175C6.00355 25.6382 6.93985 25.8581 8.31416 25.922C9.69171 25.987 10.1297 26 13.6382 26C17.1466 26 17.5846 25.9838 18.9621 25.922C20.3365 25.857 21.2738 25.6382 22.0971 25.3175C22.9452 24.986 23.6673 24.5397 24.3851 23.8182C25.1019 23.0956 25.5464 22.3719 25.8746 21.515C26.1932 20.6863 26.4116 19.7427 26.4751 18.3593C26.5397 16.9726 26.5526 16.5317 26.5526 13C26.5526 9.46833 26.5365 9.02742 26.4751 7.64075C26.4106 6.25733 26.1932 5.31267 25.8746 4.485C25.5453 3.63025 25.1019 2.90442 24.3851 2.18183C23.6673 1.45925 22.9484 1.01292 22.0971 0.6825C21.2738 0.36075 20.3365 0.141917 18.9621 0.078C17.5846 0.013 17.1466 0 13.6382 0V0ZM13.6382 2.34C17.0852 2.34 17.4964 2.35733 18.8578 2.41692C20.1169 2.4765 20.8003 2.68667 21.2545 2.8665C21.8593 3.10158 22.2876 3.38325 22.7418 3.83717C23.1927 4.29217 23.4725 4.72442 23.7061 5.33325C23.8826 5.79042 24.0935 6.47833 24.1505 7.74583C24.2119 9.11733 24.2259 9.529 24.2259 13C24.2259 16.471 24.2097 16.8838 24.1462 18.2542C24.0806 19.5217 23.8707 20.2096 23.6931 20.6667C23.4521 21.2756 23.1776 21.7068 22.7256 22.1639C22.2747 22.6178 21.8388 22.8995 21.2405 23.1346C20.7885 23.3123 20.0943 23.5246 18.8352 23.582C17.4641 23.6438 17.0605 23.6578 13.6059 23.6578C10.1502 23.6578 9.74659 23.6416 8.37658 23.5777C7.11635 23.5116 6.42219 23.3003 5.97019 23.1216C5.35783 22.8789 4.93703 22.6027 4.4861 22.1477C4.03302 21.6938 3.74352 21.255 3.51751 20.6527C3.33994 20.1977 3.13116 19.4989 3.06551 18.2314C3.01708 16.8664 2.99986 16.445 2.99986 12.9838C2.99986 9.52142 3.01708 9.09892 3.06551 7.71767C3.13116 6.45017 3.33994 5.7525 3.51751 5.2975C3.74352 4.68 4.03302 4.2575 4.4861 3.80142C4.93703 3.3475 5.35783 3.055 5.97019 2.82858C6.42219 2.64875 7.10128 2.4375 8.36044 2.3725C9.7326 2.32375 10.1362 2.3075 13.5897 2.3075L13.6382 2.34ZM13.6382 6.3245C9.97367 6.3245 7.00657 9.3145 7.00657 13C7.00657 16.6888 9.9769 19.6755 13.6382 19.6755C17.3026 19.6755 20.2697 16.6855 20.2697 13C20.2697 9.31125 17.2994 6.3245 13.6382 6.3245ZM13.6382 17.3333C11.2597 17.3333 9.33333 15.3942 9.33333 13C9.33333 10.6058 11.2597 8.66667 13.6382 8.66667C16.0166 8.66667 17.943 10.6058 17.943 13C17.943 15.3942 16.0166 17.3333 13.6382 17.3333ZM22.0821 6.06125C22.0821 6.9225 21.3868 7.62125 20.5323 7.62125C19.6767 7.62125 18.9826 6.92142 18.9826 6.06125C18.9826 5.20108 19.6778 4.50233 20.5323 4.50233C21.3858 4.50125 22.0821 5.20108 22.0821 6.06125Z" fill="white" fill-opacity="0.76"/>
</svg>
