<svg width="26" height="26" viewBox="0 0 26 26" fill="none" xmlns="http://www.w3.org/2000/svg">
<path d="M12.9669 0C5.87989 0 0.103839 5.785 0.103839 12.883C0.103839 15.158 0.700915 17.368 1.81719 19.318L0 26L6.81445 24.206C8.69653 25.233 10.8123 25.779 12.9669 25.779C20.0539 25.779 25.83 19.994 25.83 12.896C25.83 9.451 24.4931 6.214 22.0658 3.783C19.6386 1.339 16.4066 0 12.9669 0ZM12.9799 2.171C15.8355 2.171 18.5093 3.289 20.5342 5.317C22.5461 7.345 23.6624 10.036 23.6624 12.896C23.6624 18.798 18.8598 23.595 12.9669 23.595C11.0459 23.595 9.16381 23.088 7.52834 22.1L7.13894 21.879L3.08922 22.945L4.16655 18.993L3.90695 18.577C2.8426 16.9 2.27148 14.911 2.27148 12.883C2.28446 6.981 7.07404 2.171 12.9799 2.171ZM8.41097 6.929C8.2033 6.929 7.85284 7.007 7.5543 7.332C7.26874 7.657 6.42505 8.45 6.42505 10.023C6.42505 11.609 7.58026 13.13 7.72304 13.351C7.90476 13.572 10.0075 16.822 13.2395 18.2C14.0053 18.551 14.6024 18.746 15.0697 18.889C15.8355 19.136 16.5364 19.097 17.0945 19.019C17.7176 18.928 18.9896 18.239 19.2622 17.485C19.5347 16.731 19.5347 16.094 19.4569 15.951C19.366 15.821 19.1583 15.743 18.8338 15.6C18.5093 15.418 16.9258 14.638 16.6402 14.534C16.3417 14.43 16.16 14.378 15.9134 14.69C15.7057 15.015 15.0826 15.743 14.9009 15.951C14.7062 16.172 14.5245 16.198 14.213 16.042C13.8755 15.873 12.8371 15.535 11.617 14.443C10.6565 13.585 10.0205 12.532 9.82578 12.207C9.67002 11.895 9.8128 11.7 9.96856 11.557C10.1113 11.414 10.319 11.18 10.4488 10.985C10.6176 10.803 10.6695 10.66 10.7733 10.452C10.8772 10.231 10.8252 10.049 10.7474 9.893C10.6695 9.75 10.0205 8.138 9.7479 7.501C9.48831 6.877 9.22871 6.955 9.02103 6.942C8.83931 6.942 8.63163 6.929 8.41097 6.929Z" fill="white" fill-opacity="0.76"/>
</svg>
